Enclosed-Medium.sfdir
StartChar: uF1D84
Encoding: 990596 990596 2
Width: 1000
Flags: MW
LayerCount: 2
Fore
SplineSet
50 300 m 0
 50 555 246 770 500 770 c 0
 741 770 950 566 950 300 c 0
 950 46 754 -170 500 -170 c 0
 259 -170 50 34 50 300 c 0
95 299 m 0
 95 67 276 -125 499 -125 c 0
 721 -125 905 62 905 300 c 0
 905 533 725 725 501 725 c 0
 282 725 95 542 95 299 c 0
327.799804688 422.5 m 1
 345.299804688 481.299804688 382.400390625 537.299804688 489.5 537.299804688 c 0
 615.5 537.299804688 672.200195312 466.600585938 672.200195312 387.5 c 0
 672.200195312 319.600585938 628.799804688 281.799804688 539.200195312 217.400390625 c 0
 504.200195312 197.100585938 453.799804688 164.900390625 383.799804688 111.700195312 c 1
 672.200195312 112.400390625 l 1
 672.200195312 62.7001953125 l 1
 333.400390625 62.7001953125 l 1
 333.400390625 108.200195312 l 1
 430.700195312 198.5 l 2
 531.5 260.799804688 614.099609375 310.5 614.099609375 385.400390625 c 0
 614.099609375 444.200195312 566.5 491.799804688 476.200195312 491.799804688 c 0
 369.799804688 491.799804688 360.700195312 385.400390625 357.900390625 384 c 1
 327.799804688 422.5 l 1
EndSplineSet
EndChar
StartChar: uF1D86
Encoding: 990598 990598 4
Width: 1000
Flags: MW
LayerCount: 2
Fore
SplineSet
50 300 m 0
 50 555 246 770 500 770 c 0
 741 770 950 566 950 300 c 0
 950 46 754 -170 500 -170 c 0
 259 -170 50 34 50 300 c 0
95 299 m 0
 95 67 276 -125 499 -125 c 0
 721 -125 905 62 905 300 c 0
 905 533 725 725 501 725 c 0
 282 725 95 542 95 299 c 0
318 190.450195312 m 1
 318 224.049804688 l 0
 318 233.150390625 318.700195312 234.549804688 325.700195312 245.75 c 2
 542 529.25 l 1
 612.700195312 529.25 l 1
 612.700195312 233.150390625 l 1xe8
 682 233.150390625 l 1
 682 190.450195312 l 1
 612.700195312 190.450195312 l 1
 612.700195312 70.75 l 1
 554.599609375 70.75 l 1
 554.599609375 190.450195312 l 1xf0
 318 190.450195312 l 1
372.599609375 233.150390625 m 1
 560.900390625 233.150390625 l 1xe8
 560.900390625 503.349609375 l 1
 546.900390625 447.349609375 492.299804688 385.049804688 372.599609375 233.150390625 c 1
EndSplineSet
EndChar
StartChar: uF1D88
Encoding: 990600 990600 6
Width: 1000
Flags: MW
LayerCount: 2
Fore
SplineSet
50 300 m 0
 50 555 246 770 500 770 c 0
 741 770 950 566 950 300 c 0
 950 46 754 -170 500 -170 c 0
 259 -170 50 34 50 300 c 0
95 299 m 0
 95 67 276 -125 499 -125 c 0
 721 -125 905 62 905 300 c 0
 905 533 725 725 501 725 c 0
 282 725 95 542 95 299 c 0
311.700195312 296.5 m 0
 311.700195312 366.5 331.299804688 429.5 365.599609375 474.30078125 c 0
 411.799804688 518.400390625 481.799804688 545 561.599609375 545 c 0
 614.099609375 545 641.400390625 537.30078125 659.599609375 531 c 1
 659.599609375 489 l 1
 640.700195312 495.30078125 614.099609375 503.700195312 561.599609375 503.700195312 c 0
 504.200195312 503.700195312 460.799804688 484.100585938 429.299804688 456.100585938 c 0
 391.5 422.5 373.299804688 375.600585938 370.5 336.400390625 c 1
 413.900390625 373.5 481.099609375 393.80078125 546.900390625 393.80078125 c 0
 600.099609375 393.80078125 631.599609375 377.700195312 651.200195312 351.100585938 c 0
 677.099609375 314.700195312 686.900390625 279.700195312 688.299804688 239.100585938 c 0
 688.299804688 234.900390625 688.299804688 231.400390625 688.299804688 227.200195312 c 0
 688.299804688 172.600585938 675 135.5 640 98.400390625 c 0
 602.200195312 68.30078125 558.799804688 55 502.099609375 55 c 0
 451.700195312 55 388 68.30078125 351.599609375 115.900390625 c 0
 327.799804688 152.30078125 311.700195312 209.700195312 311.700195312 296.5 c 0
371.900390625 243.30078125 m 0
 371.900390625 237 371.200195312 230.700195312 372.599609375 224.400390625 c 0
 381 172.600585938 402.700195312 98.400390625 500.700195312 98.400390625 c 0
 580.5 98.400390625 615.5 145.30078125 626 176.100585938 c 0
 630.200195312 191.5 630.900390625 206.900390625 630.900390625 223 c 0
 630.900390625 232.80078125 631.599609375 241.200195312 630.200195312 248.900390625 c 0
 628.099609375 276.200195312 620.400390625 294.400390625 601.5 314.700195312 c 0
 570 347.600585938 530.099609375 351.100585938 506.299804688 351.100585938 c 0
 436.299804688 351.100585938 387.299804688 314 374.700195312 266.400390625 c 4
 372.599609375 258.700195312 371.900390625 251 371.900390625 243.30078125 c 0
EndSplineSet
EndChar
StartChar: uF1D8D
Encoding: 990605 990605 11
Width: 1000
Flags: MW
LayerCount: 2
Fore
SplineSet
50 300 m 0
 50 555 246 770 500 770 c 0
 741 770 950 566 950 300 c 0
 950 46 754 -170 500 -170 c 0
 259 -170 50 34 50 300 c 0
95 299 m 0
 95 67 276 -125 499 -125 c 0
 721 -125 905 62 905 300 c 0
 905 533 725 725 501 725 c 0
 282 725 95 542 95 299 c 0
557.400390625 450.5 m 1
 557.400390625 491.100585938 l 1
 637.900390625 491.100585938 672.900390625 519.799804688 691.799804688 537.299804688 c 1
 704.400390625 537.299804688 l 1
 704.400390625 104 l 1
 792.599609375 104 l 1
 792.599609375 62.7001953125 l 1
 561.599609375 62.7001953125 l 1
 561.599609375 104 l 1
 648.400390625 104 l 1
 648.400390625 466.600585938 l 1
 623.900390625 456.799804688 599.400390625 450.5 557.400390625 450.5 c 1
207.400390625 450.5 m 1
 207.400390625 491.100585938 l 1
 287.900390625 491.100585938 322.900390625 519.799804688 341.799804688 537.299804688 c 1
 354.400390625 537.299804688 l 1
 354.400390625 104 l 1
 442.599609375 104 l 1
 442.599609375 62.7001953125 l 1
 211.599609375 62.7001953125 l 1
 211.599609375 104 l 1
 298.400390625 104 l 1
 298.400390625 466.600585938 l 1
 273.900390625 456.799804688 249.400390625 450.5 207.400390625 450.5 c 1
EndSplineSet
EndChar
StartChar: uF1D91
Encoding: 990609 990609 15
Width: 1000
Flags: MW
LayerCount: 2
Fore
SplineSet
50 300 m 0
 50 555 246 770 500 770 c 0
 741 770 950 566 950 300 c 0
 950 46 754 -170 500 -170 c 0
 259 -170 50 34 50 300 c 0
95 299 m 0
 95 67 276 -125 499 -125 c 0
 721 -125 905 62 905 300 c 0
 905 533 725 725 501 725 c 0
 282 725 95 542 95 299 c 0
512.599609375 123.600585938 m 1
 536.400390625 162.80078125 l 1
 539.200195312 157.900390625 543.400390625 153.700195312 546.200195312 149.5 c 0
 558.799804688 132.700195312 572.799804688 120.80078125 586.799804688 113.100585938 c 0
 609.900390625 100.5 633 98.400390625 645.599609375 98.400390625 c 0
 666.599609375 98.400390625 694.599609375 106.80078125 714.200195312 131.30078125 c 0
 728.200195312 148.80078125 738 175.400390625 738 213.900390625 c 0
 738 221.600585938 737.299804688 229.30078125 736.599609375 236.30078125 c 0
 733.799804688 269.200195312 723.299804688 290.900390625 711.400390625 304.900390625 c 0
 697.400390625 321 680.599609375 326.600585938 666.599609375 326.600585938 c 0
 611.299804688 326.600585938 589.599609375 270.600585938 589.599609375 270.600585938 c 1
 542 270.600585938 l 1
 542 528.900390625 l 1
 777.200195312 528.900390625 l 1
 777.200195312 484.100585938 l 1
 592.400390625 484.100585938 l 1
 592.400390625 340.600585938 l 1
 615.5 358.100585938 635.099609375 369.30078125 668 369.30078125 c 0
 702.299804688 369.30078125 733.099609375 353.900390625 757.599609375 327.30078125 c 4
 783.5 299.30078125 801 259.400390625 801 213.200195312 c 0
 801 168.400390625 782.799804688 127.80078125 753.400390625 99.1005859375 c 0
 726.099609375 71.80078125 689 55 647 55 c 0
 617.599609375 55 588.900390625 62.7001953125 564.400390625 76.7001953125 c 0
 544.099609375 88.6005859375 525.900390625 104.700195312 512.599609375 123.600585938 c 1
199 458.200195312 m 1
 199 498.80078125 l 1
 279.5 498.80078125 314.5 527.5 333.400390625 545 c 1
 346 545 l 1
 346 111.700195312 l 1
 434.200195312 111.700195312 l 1
 434.200195312 70.400390625 l 1
 203.200195312 70.400390625 l 1
 203.200195312 111.700195312 l 1
 290 111.700195312 l 1
 290 474.30078125 l 1
 265.5 464.5 241 458.200195312 199 458.200195312 c 1
EndSplineSet
EndChar
StartChar: uF1D93
Encoding: 990611 990611 17
Width: 1000
Flags: MW
LayerCount: 2
Fore
SplineSet
50 300 m 0
 50 555 246 770 500 770 c 0
 741 770 950 566 950 300 c 0
 950 46 754 -170 500 -170 c 0
 259 -170 50 34 50 300 c 0
95 299 m 0
 95 67 276 -125 499 -125 c 0
 721 -125 905 62 905 300 c 0
 905 533 725 725 501 725 c 0
 282 725 95 542 95 299 c 0
512.599609375 476.05078125 m 1
 512.599609375 525.75 l 1
 803.799804688 525.05078125 l 1
 803.799804688 479.55078125 l 1
 705.099609375 366.150390625 648.400390625 212.150390625 648.400390625 58.849609375 c 1
 589.599609375 58.849609375 l 1
 589.599609375 198.150390625 637.200195312 349.349609375 756.200195312 476.05078125 c 1
 512.599609375 476.05078125 l 1
196.200195312 454.349609375 m 1
 196.200195312 494.951171875 l 1
 276.700195312 494.951171875 311.700195312 523.650390625 330.599609375 541.150390625 c 1
 343.200195312 541.150390625 l 1
 343.200195312 107.849609375 l 1
 431.400390625 107.849609375 l 1
 431.400390625 66.55078125 l 1
 200.400390625 66.55078125 l 1
 200.400390625 107.849609375 l 1
 287.200195312 107.849609375 l 1
 287.200195312 470.451171875 l 1
 262.700195312 460.650390625 238.200195312 454.349609375 196.200195312 454.349609375 c 1
EndSplineSet
EndChar
StartChar: uF1F87
Encoding: 991111 991111 1714
Width: 1000
Flags: MW
LayerCount: 2
Fore
SplineSet
717 -197 m 5
 746 -166 768 -144 797 -96 c 4
 869 23 892 166 892 303 c 4
 892 668 729 784 717 803 c 5
 758 803 l 1
 826 742 950 603 950 304 c 0
 950 2 826 -136 758 -197 c 1
 717 -197 l 5
50 303 m 0
 50 603 173 742 241 803 c 1
 283 803 l 1
 254 772 231 750 202 701 c 0
 131 582 108 440 108 303 c 0
 108 -62 271 -178 283 -197 c 1
 241 -197 l 1
 177 -139 50 -1 50 303 c 0
380.299804688 487.799804688 m 1
 380.299804688 528.400390625 l 1
 460.799804688 528.400390625 498.599609375 557.099609375 517.5 574.599609375 c 1
 530.799804688 574.599609375 l 1
 530.799804688 141.299804688 l 1
 619.700195312 141.299804688 l 1
 619.700195312 100 l 1
 383.799804688 100 l 1
 383.799804688 141.299804688 l 1
 474.799804688 141.299804688 l 1
 474.799804688 503.900390625 l 1
 446.799804688 494.099609375 422.299804688 487.799804688 380.299804688 487.799804688 c 1
EndSplineSet
EndChar
StartChar: uF1F89
Encoding: 991113 991113 1716
Width: 1000
Flags: MW
LayerCount: 2
Fore
SplineSet
717 -197 m 5
 746 -166 768 -144 797 -96 c 4
 869 23 892 166 892 303 c 4
 892 668 729 784 717 803 c 5
 758 803 l 1
 826 742 950 603 950 304 c 0
 950 2 826 -136 758 -197 c 1
 717 -197 l 5
50 303 m 0
 50 603 173 742 241 803 c 1
 283 803 l 1
 254 772 231 750 202 701 c 0
 131 582 108 440 108 303 c 0
 108 -62 271 -178 283 -197 c 1
 241 -197 l 1
 177 -139 50 -1 50 303 c 0
318 156.700195312 m 1
 326.400390625 199.400390625 l 1
 349.5 167.900390625 376.799804688 150.400390625 400.599609375 140.599609375 c 0
 439.799804688 129.400390625 474.099609375 128 489.5 128 c 0
 529.400390625 128 560.900390625 139.200195312 584 157.400390625 c 0
 606.400390625 174.900390625 619 199.400390625 619 227.400390625 c 0xe8
 619 234.400390625 618.299804688 241.400390625 616.200195312 248.400390625 c 0
 610.599609375 272.200195312 594.5 293.200195312 569.299804688 307.200195312 c 0
 548.299804688 319.099609375 520.299804688 326.099609375 484.599609375 326.099609375 c 2
 407.599609375 326.099609375 l 1
 407.599609375 369.5 l 1
 468.5 372.299804688 476.200195312 373 483.200195312 373.700195312 c 0
 552.5 382.099609375 598 424.799804688 598 467.5 c 0
 598 486.400390625 587.5 503.200195312 569.299804688 514.400390625 c 0
 550.400390625 526.299804688 523.799804688 532.599609375 491.599609375 532.599609375 c 0
 462.200195312 532.599609375 432.799804688 527 407.599609375 517.900390625 c 0
 389.400390625 508.799804688 374.700195312 496.200195312 364.200195312 480.099609375 c 0
 360 473.799804688 356.5 466.799804688 353 459.799804688 c 1
 327.799804688 498.299804688 l 1
 346 526.299804688 367.700195312 544.5 388 555.700195312 c 0
 425.799804688 572.5 469.900390625 574.599609375 493.700195312 574.599609375 c 0
 539.900390625 574.599609375 584.700195312 564.799804688 619 548 c 0
 644.900390625 529.099609375 662.400390625 501.099609375 662.400390625 467.5 c 0xf0
 662.400390625 447.900390625 656.799804688 418.5 634.400390625 389.799804688 c 0
 622.5 375.099609375 600.799804688 360.400390625 567.200195312 347.799804688 c 1
 607.799804688 338 633 324 648.400390625 307.200195312 c 0
 670.799804688 283.400390625 682 254.700195312 682 226 c 0
 682 188.900390625 664.5 149.700195312 633 121.700195312 c 4
 602.200195312 99.2998046875 551.799804688 84.599609375 490.200195312 84.599609375 c 0
 471.299804688 84.599609375 427.900390625 86 386.599609375 101.400390625 c 0
 364.200195312 111.900390625 339.700195312 129.400390625 318 156.700195312 c 1
EndSplineSet
EndChar
StartChar: uF1F8A
Encoding: 991114 991114 1717
Width: 1000
Flags: MW
LayerCount: 2
Fore
SplineSet
717 -197 m 5
 746 -166 768 -144 797 -96 c 4
 869 23 892 166 892 303 c 4
 892 668 729 784 717 803 c 5
 758 803 l 1
 826 742 950 603 950 304 c 0
 950 2 826 -136 758 -197 c 1
 717 -197 l 5
50 303 m 0
 50 603 173 742 241 803 c 1
 283 803 l 1
 254 772 231 750 202 701 c 0
 131 582 108 440 108 303 c 0
 108 -62 271 -178 283 -197 c 1
 241 -197 l 1
 177 -139 50 -1 50 303 c 0
318 219.700195312 m 1
 318 253.299804688 l 0
 318 262.400390625 318.700195312 263.799804688 325.700195312 275 c 2
 542 558.5 l 1
 612.700195312 558.5 l 1
 612.700195312 262.400390625 l 1xe8
 682 262.400390625 l 1
 682 219.700195312 l 1
 612.700195312 219.700195312 l 1
 612.700195312 100 l 1
 554.599609375 100 l 1
 554.599609375 219.700195312 l 1xf0
 318 219.700195312 l 1
372.599609375 262.400390625 m 1
 560.900390625 262.400390625 l 1xe8
 560.900390625 532.599609375 l 1
 546.900390625 476.599609375 492.299804688 414.299804688 372.599609375 262.400390625 c 1
EndSplineSet
EndChar
StartChar: uF1F8B
Encoding: 991115 991115 1718
Width: 1000
Flags: MW
LayerCount: 2
Fore
SplineSet
717 -197 m 5
 746 -166 768 -144 797 -96 c 4
 869 23 892 166 892 303 c 4
 892 668 729 784 717 803 c 5
 758 803 l 1
 826 742 950 603 950 304 c 0
 950 2 826 -136 758 -197 c 1
 717 -197 l 5
50 303 m 0
 50 603 173 742 241 803 c 1
 283 803 l 1
 254 772 231 750 202 701 c 0
 131 582 108 440 108 303 c 0
 108 -62 271 -178 283 -197 c 1
 241 -197 l 1
 177 -139 50 -1 50 303 c 0
320.799804688 153.200195312 m 1
 344.599609375 192.400390625 l 1
 347.400390625 187.5 350.900390625 183.299804688 353.700195312 179.099609375 c 0
 366.299804688 162.299804688 381 150.400390625 395 142.700195312 c 0
 424.400390625 130.099609375 459.400390625 128 478.299804688 128 c 0
 509.799804688 128 551.099609375 136.400390625 580.5 160.900390625 c 0
 601.5 178.400390625 616.200195312 205 616.200195312 243.5 c 0
 616.200195312 251.200195312 616.200195312 258.900390625 614.799804688 265.900390625 c 0
 610.599609375 298.799804688 595.200195312 320.5 577 334.5 c 0
 556 350.599609375 530.099609375 356.200195312 509.099609375 356.200195312 c 0
 426.5 356.200195312 397.099609375 300.200195312 397.099609375 300.200195312 c 1
 349.5 300.200195312 l 1
 349.5 558.5 l 1
 656.099609375 558.5 l 1
 656.099609375 513.700195312 l 1
 400.599609375 513.700195312 l 1
 400.599609375 370.200195312 l 1
 432.799804688 387.700195312 462.200195312 398.900390625 511.200195312 398.900390625 c 0
 563 398.900390625 609.900390625 383.5 636.5 356.900390625 c 4
 662.400390625 328.900390625 679.200195312 289 679.200195312 242.799804688 c 0
 679.200195312 198 661.700195312 157.400390625 632.299804688 128.700195312 c 0
 599.400390625 101.400390625 542.700195312 84.599609375 479.700195312 84.599609375 c 0
 435.599609375 84.599609375 397.099609375 92.2998046875 372.599609375 106.299804688 c 0
 352.299804688 118.200195312 334.099609375 134.299804688 320.799804688 153.200195312 c 1
EndSplineSet
EndChar
StartChar: uF1F8D
Encoding: 991117 991117 1720
Width: 1000
Flags: MW
LayerCount: 2
Fore
SplineSet
717 -197 m 5
 746 -166 768 -144 797 -96 c 4
 869 23 892 166 892 303 c 4
 892 668 729 784 717 803 c 5
 758 803 l 1
 826 742 950 603 950 304 c 0
 950 2 826 -136 758 -197 c 1
 717 -197 l 5
50 303 m 0
 50 603 173 742 241 803 c 1
 283 803 l 1
 254 772 231 750 202 701 c 0
 131 582 108 440 108 303 c 0
 108 -62 271 -178 283 -197 c 1
 241 -197 l 1
 177 -139 50 -1 50 303 c 0
323.599609375 509.5 m 1
 323.599609375 559.200195312 l 1
 676.400390625 558.5 l 1
 676.400390625 513 l 1
 570 399.599609375 471.299804688 242.799804688 460.099609375 92.2998046875 c 5
 400.599609375 92.2998046875 l 1
 400.599609375 231.599609375 468.5 382.799804688 628.799804688 509.5 c 1
 323.599609375 509.5 l 1
EndSplineSet
EndChar
StartChar: uF1F8E
Encoding: 991118 991118 1721
Width: 1000
Flags: MW
LayerCount: 2
Fore
SplineSet
717 -197 m 5
 746 -166 768 -144 797 -96 c 4
 869 23 892 166 892 303 c 4
 892 668 729 784 717 803 c 5
 758 803 l 1
 826 742 950 603 950 304 c 0
 950 2 826 -136 758 -197 c 1
 717 -197 l 5
50 303 m 0
 50 603 173 742 241 803 c 1
 283 803 l 1
 254 772 231 750 202 701 c 0
 131 582 108 440 108 303 c 0
 108 -62 271 -178 283 -197 c 1
 241 -197 l 1
 177 -139 50 -1 50 303 c 0
309.599609375 226 m 0xf2
 309.599609375 274.299804688 338.299804688 323.299804688 427.200195312 347.799804688 c 1
 352.299804688 363.900390625 319.400390625 406.599609375 319.400390625 451.400390625 c 0
 319.400390625 516.5 383.799804688 574.599609375 500 574.599609375 c 0
 502.099609375 574.599609375 503.5 574.599609375 505.599609375 574.599609375 c 4
 613.400390625 573.200195312 680.599609375 518.599609375 680.599609375 452.099609375 c 0xec
 680.599609375 410.099609375 654.700195312 369.5 572.799804688 347.799804688 c 1
 637.900390625 333.799804688 690.400390625 293.200195312 690.400390625 225.299804688 c 0
 690.400390625 151.799804688 623.900390625 84.599609375 500 84.599609375 c 0
 376.099609375 84.599609375 309.599609375 151.099609375 309.599609375 226 c 0xf2
367 226.700195312 m 0
 367 191.700195312 384.5 163.700195312 416 146.900390625 c 0
 438.400390625 135 466.400390625 128 500 128 c 0
 529.400390625 128 560.900390625 134.299804688 586.099609375 148.299804688 c 0
 613.400390625 163.700195312 633 189.599609375 633 227.400390625 c 0xf2
 633 233.700195312 633 240 631.599609375 246.299804688 c 0
 626 270.099609375 612 289.700195312 589.599609375 303.700195312 c 0
 566.5 318.400390625 535 326.099609375 498.599609375 326.099609375 c 0
 473.400390625 326.099609375 442.599609375 320.5 418.799804688 307.900390625 c 0
 393.599609375 294.599609375 373.299804688 274.299804688 367.700195312 243.5 c 0
 366.299804688 237.900390625 367 232.299804688 367 226.700195312 c 0
369.799804688 451.400390625 m 0
 369.799804688 425.5 385.200195312 404.5 409 390.5 c 0
 432.099609375 377.200195312 462.900390625 369.5 498.599609375 369.5 c 0
 534.299804688 369.5 564.400390625 376.5 586.799804688 388.400390625 c 0
 614.099609375 403.099609375 630.200195312 424.799804688 630.200195312 451.400390625 c 0
 630.200195312 458.400390625 629.5 465.400390625 627.400390625 471.700195312 c 0
 621.099609375 490.599609375 605 506.700195312 582.599609375 517.200195312 c 0
 560.200195312 527.700195312 532.200195312 533.299804688 500 533.299804688 c 0xec
 465 533.299804688 435.599609375 527 413.200195312 515.099609375 c 0
 390.099609375 502.5 375.400390625 485 371.200195312 463.299804688 c 0
 369.799804688 459.799804688 369.799804688 455.599609375 369.799804688 451.400390625 c 0
EndSplineSet
EndChar
StartChar: uF1F8F
Encoding: 991119 991119 1722
Width: 1000
Flags: MW
LayerCount: 2
Fore
SplineSet
717 -197 m 5
 746 -166 768 -144 797 -96 c 4
 869 23 892 166 892 303 c 4
 892 668 729 784 717 803 c 5
 758 803 l 1
 826 742 950 603 950 304 c 0
 950 2 826 -136 758 -197 c 1
 717 -197 l 5
50 303 m 0
 50 603 173 742 241 803 c 1
 283 803 l 1
 254 772 231 750 202 701 c 0
 131 582 108 440 108 303 c 0
 108 -62 271 -178 283 -197 c 1
 241 -197 l 1
 177 -139 50 -1 50 303 c 0
311.700195312 404.5 m 0
 311.700195312 455.599609375 325 494.099609375 362.099609375 532.599609375 c 0
 402.700195312 562 446.099609375 574.599609375 503.5 574.599609375 c 0
 544.099609375 574.599609375 594.5 565.5 633.700195312 534.700195312 c 0
 664.5 500.400390625 688.299804688 439.5 688.299804688 333.099609375 c 0
 688.299804688 254 663.799804688 186.799804688 626 142.700195312 c 0
 579.799804688 105.599609375 518.900390625 84.599609375 453.799804688 84.599609375 c 0
 388.700195312 84.599609375 357.900390625 97.900390625 332.700195312 116.799804688 c 1
 354.400390625 154.599609375 l 1
 371.200195312 143.400390625 397.099609375 128 455.900390625 128 c 0
 506.299804688 128 551.799804688 146.900390625 584 183.299804688 c 0
 603.599609375 206.400390625 620.400390625 235.799804688 627.400390625 271.5 c 0
 628.799804688 278.5 628.799804688 285.5 629.5 293.200195312 c 1
 584 256.799804688 524.5 235.099609375 453.099609375 235.099609375 c 0
 398.5 235.099609375 368.400390625 251.200195312 349.5 277.799804688 c 0
 320.099609375 318.400390625 311.700195312 356.200195312 311.700195312 404.5 c 0
369.099609375 404.5 m 0
 369.099609375 366.700195312 371.900390625 340.099609375 402.700195312 310.700195312 c 0
 422.299804688 291.799804688 449.599609375 278.5 493.700195312 278.5 c 0
 533.599609375 278.5 568.599609375 291.099609375 591.700195312 310.700195312 c 4
 614.799804688 330.299804688 628.099609375 357.599609375 628.099609375 387 c 0
 628.099609375 433.200195312 607.799804688 532.599609375 504.200195312 532.599609375 c 0
 474.799804688 532.599609375 451 526.299804688 432.099609375 516.5 c 0
 399.900390625 499.700195312 381.700195312 473.799804688 375.400390625 454.900390625 c 0
 369.099609375 438.099609375 369.099609375 422 369.099609375 404.5 c 0
EndSplineSet
EndChar
StartChar: uF1F90
Encoding: 991120 991120 1723
Width: 1000
Flags: MW
LayerCount: 2
Fore
SplineSet
717 -197 m 5
 746 -166 768 -144 797 -96 c 4
 869 23 892 166 892 303 c 4
 892 668 729 784 717 803 c 5
 758 803 l 1
 826 742 950 603 950 304 c 0
 950 2 826 -136 758 -197 c 1
 717 -197 l 5
50 303 m 0
 50 603 173 742 241 803 c 1
 283 803 l 1
 254 772 231 750 202 701 c 0
 131 582 108 440 108 303 c 0
 108 -62 271 -178 283 -197 c 1
 241 -197 l 1
 177 -139 50 -1 50 303 c 0
511.900390625 317 m 2
 511.900390625 330.299804688 l 2
 511.900390625 398.900390625 516.799804688 530.5 613.400390625 566.200195312 c 0
 626 571.099609375 640 574.599609375 657.5 574.599609375 c 0
 693.900390625 574.599609375 728.900390625 558.5 752.700195312 531.200195312 c 0
 794.700195312 483.599609375 802.400390625 403.099609375 803.799804688 352 c 0
 803.799804688 342.900390625 803.799804688 334.5 803.799804688 327.5 c 0
 803.799804688 185.400390625 768.099609375 116.799804688 701.599609375 92.2998046875 c 0
 689.700195312 87.400390625 675.700195312 84.599609375 657.5 84.599609375 c 0
 599.400390625 84.599609375 512.599609375 118.200195312 511.900390625 317 c 2
566.5 315.599609375 m 2
 566.5 200.099609375 594.5 153.900390625 623.900390625 136.400390625 c 4
 635.799804688 129.400390625 647.700195312 127.299804688 658.200195312 127.299804688 c 0
 672.200195312 127.299804688 689.700195312 131.5 705.099609375 146.200195312 c 0
 728.900390625 169.299804688 749.200195312 217.599609375 749.200195312 316.299804688 c 2
 749.200195312 359 l 2
 749.200195312 427.599609375 738 469.599609375 721.900390625 494.799804688 c 0
 703 524.900390625 677.799804688 531.200195312 657.5 531.200195312 c 0
 621.099609375 531.200195312 566.5 508.099609375 566.5 359 c 2
 566.5 315.599609375 l 2
196.200195312 487.799804688 m 1
 196.200195312 528.400390625 l 1
 276.700195312 528.400390625 311 557.099609375 329.900390625 574.599609375 c 1
 343.200195312 574.599609375 l 1
 343.200195312 141.299804688 l 1
 430.700195312 141.299804688 l 1
 430.700195312 100 l 1
 199.700195312 100 l 1
 199.700195312 141.299804688 l 1
 287.200195312 141.299804688 l 1
 287.200195312 503.900390625 l 1
 262.700195312 494.099609375 238.200195312 487.799804688 196.200195312 487.799804688 c 1
EndSplineSet
EndChar
StartChar: uF1F91
Encoding: 991121 991121 1724
Width: 1000
Flags: MW
LayerCount: 2
Fore
SplineSet
717 -197 m 5
 746 -166 768 -144 797 -96 c 4
 869 23 892 166 892 303 c 4
 892 668 729 784 717 803 c 5
 758 803 l 1
 826 742 950 603 950 304 c 0
 950 2 826 -136 758 -197 c 1
 717 -197 l 5
50 303 m 0
 50 603 173 742 241 803 c 1
 283 803 l 1
 254 772 231 750 202 701 c 0
 131 582 108 440 108 303 c 0
 108 -62 271 -178 283 -197 c 1
 241 -197 l 1
 177 -139 50 -1 50 303 c 0
557.400390625 487.799804688 m 1
 557.400390625 528.400390625 l 1
 637.900390625 528.400390625 672.900390625 557.099609375 691.799804688 574.599609375 c 1
 704.400390625 574.599609375 l 1
 704.400390625 141.299804688 l 1
 792.599609375 141.299804688 l 1
 792.599609375 100 l 1
 561.599609375 100 l 1
 561.599609375 141.299804688 l 1
 648.400390625 141.299804688 l 1
 648.400390625 503.900390625 l 1
 623.900390625 494.099609375 599.400390625 487.799804688 557.400390625 487.799804688 c 1
207.400390625 487.799804688 m 1
 207.400390625 528.400390625 l 1
 287.900390625 528.400390625 322.900390625 557.099609375 341.799804688 574.599609375 c 1
 354.400390625 574.599609375 l 1
 354.400390625 141.299804688 l 1
 442.599609375 141.299804688 l 1
 442.599609375 100 l 1
 211.599609375 100 l 1
 211.599609375 141.299804688 l 1
 298.400390625 141.299804688 l 1
 298.400390625 503.900390625 l 1
 273.900390625 494.099609375 249.400390625 487.799804688 207.400390625 487.799804688 c 1
EndSplineSet
EndChar
StartChar: uF1F96
Encoding: 991126 991126 1729
Width: 1000
Flags: MW
LayerCount: 2
Fore
SplineSet
717 -197 m 5
 746 -166 768 -144 797 -96 c 4
 869 23 892 166 892 303 c 4
 892 668 729 784 717 803 c 5
 758 803 l 1
 826 742 950 603 950 304 c 0
 950 2 826 -136 758 -197 c 1
 717 -197 l 5
50 303 m 0
 50 603 173 742 241 803 c 1
 283 803 l 1
 254 772 231 750 202 701 c 0
 131 582 108 440 108 303 c 0
 108 -62 271 -178 283 -197 c 1
 241 -197 l 1
 177 -139 50 -1 50 303 c 0
512.599609375 326.099609375 m 0
 512.599609375 396.099609375 532.900390625 459.099609375 567.200195312 503.900390625 c 0
 600.099609375 548 647 574.599609375 700.200195312 574.599609375 c 0
 735.200195312 574.599609375 756.200195312 566.900390625 774.400390625 560.599609375 c 1
 774.400390625 518.599609375 l 1
 755.5 524.900390625 735.200195312 533.299804688 700.200195312 533.299804688 c 0
 661.700195312 533.299804688 633 513.700195312 612 485.700195312 c 0
 586.799804688 452.099609375 573.5 405.200195312 571.400390625 366 c 1
 600.799804688 403.099609375 646.299804688 423.400390625 690.400390625 423.400390625 c 0
 726.099609375 423.400390625 746.400390625 407.299804688 766 380.700195312 c 0
 791.900390625 344.299804688 802.400390625 309.299804688 803.799804688 268.700195312 c 0
 803.799804688 264.5 803.799804688 261 803.799804688 256.799804688 c 0
 803.799804688 202.200195312 789.799804688 165.099609375 754.799804688 128 c 0
 726.799804688 97.900390625 697.400390625 84.599609375 659.599609375 84.599609375 c 0
 626 84.599609375 584 97.900390625 553.200195312 145.5 c 0
 529.400390625 181.900390625 512.599609375 239.299804688 512.599609375 326.099609375 c 0
572.799804688 272.900390625 m 0
 572.799804688 266.599609375 573.5 260.299804688 574.200195312 254 c 0
 579.799804688 202.200195312 594.5 128 659.599609375 128 c 0
 712.799804688 128 735.200195312 174.900390625 742.200195312 205.700195312 c 0
 745 221.099609375 746.400390625 236.5 746.400390625 252.599609375 c 0
 746.400390625 262.400390625 745.700195312 270.799804688 745 278.5 c 0
 743.599609375 305.799804688 739.400390625 324 726.799804688 344.299804688 c 0
 705.799804688 377.200195312 678.5 380.700195312 662.400390625 380.700195312 c 0
 615.5 380.700195312 584 343.599609375 575.599609375 296 c 4
 574.200195312 288.299804688 572.799804688 280.599609375 572.799804688 272.900390625 c 0
196.200195312 487.799804688 m 1
 196.200195312 528.400390625 l 1
 276.700195312 528.400390625 311.700195312 557.099609375 330.599609375 574.599609375 c 1
 343.200195312 574.599609375 l 1
 343.200195312 141.299804688 l 1
 431.400390625 141.299804688 l 1
 431.400390625 100 l 1
 200.400390625 100 l 1
 200.400390625 141.299804688 l 1
 287.200195312 141.299804688 l 1
 287.200195312 503.900390625 l 1
 262.700195312 494.099609375 238.200195312 487.799804688 196.200195312 487.799804688 c 1
EndSplineSet
EndChar
StartChar: uF1F97
Encoding: 991127 991127 1730
Width: 1000
Flags: MW
LayerCount: 2
Fore
SplineSet
717 -197 m 5
 746 -166 768 -144 797 -96 c 4
 869 23 892 166 892 303 c 4
 892 668 729 784 717 803 c 5
 758 803 l 1
 826 742 950 603 950 304 c 0
 950 2 826 -136 758 -197 c 1
 717 -197 l 5
50 303 m 0
 50 603 173 742 241 803 c 1
 283 803 l 1
 254 772 231 750 202 701 c 0
 131 582 108 440 108 303 c 0
 108 -62 271 -178 283 -197 c 1
 241 -197 l 1
 177 -139 50 -1 50 303 c 0
512.599609375 509.5 m 1
 512.599609375 559.200195312 l 1
 803.799804688 558.5 l 1
 803.799804688 513 l 1
 705.099609375 399.599609375 648.400390625 245.599609375 648.400390625 92.2998046875 c 1
 589.599609375 92.2998046875 l 1
 589.599609375 231.599609375 637.200195312 382.799804688 756.200195312 509.5 c 1
 512.599609375 509.5 l 1
196.200195312 487.799804688 m 1
 196.200195312 528.400390625 l 1
 276.700195312 528.400390625 311.700195312 557.099609375 330.599609375 574.599609375 c 1
 343.200195312 574.599609375 l 1
 343.200195312 141.299804688 l 1
 431.400390625 141.299804688 l 1
 431.400390625 100 l 1
 200.400390625 100 l 1
 200.400390625 141.299804688 l 1
 287.200195312 141.299804688 l 1
 287.200195312 503.900390625 l 1
 262.700195312 494.099609375 238.200195312 487.799804688 196.200195312 487.799804688 c 1
EndSplineSet
EndChar
StartChar: uF1F9A
Encoding: 991130 991130 1733
Width: 1000
Flags: MW
LayerCount: 2
Fore
SplineSet
717 -197 m 5
 746 -166 768 -144 797 -96 c 4
 869 23 892 166 892 303 c 4
 892 668 729 784 717 803 c 5
 758 803 l 1
 826 742 950 603 950 304 c 0
 950 2 826 -136 758 -197 c 1
 717 -197 l 5
50 303 m 0
 50 603 173 742 241 803 c 1
 283 803 l 1
 254 772 231 750 202 701 c 0
 131 582 108 440 108 303 c 0
 108 -62 271 -178 283 -197 c 1
 241 -197 l 1
 177 -139 50 -1 50 303 c 0
529.400390625 317 m 2
 529.400390625 330.299804688 l 2
 529.400390625 398.900390625 533.599609375 530.5 630.200195312 566.200195312 c 0
 642.799804688 571.099609375 657.5 574.599609375 675 574.599609375 c 0
 711.400390625 574.599609375 746.400390625 558.5 770.200195312 531.200195312 c 0
 812.200195312 483.599609375 819.200195312 403.099609375 820.599609375 352 c 0
 820.599609375 342.900390625 820.599609375 334.5 820.599609375 327.5 c 0
 820.599609375 185.400390625 784.900390625 116.799804688 718.400390625 92.2998046875 c 0
 706.5 87.400390625 693.200195312 84.599609375 675 84.599609375 c 0
 616.900390625 84.599609375 530.099609375 118.200195312 529.400390625 317 c 2
584 315.599609375 m 2
 584 200.099609375 612 153.900390625 641.400390625 136.400390625 c 4
 653.299804688 129.400390625 664.5 127.299804688 675 127.299804688 c 0
 689 127.299804688 707.200195312 131.5 722.599609375 146.200195312 c 0
 746.400390625 169.299804688 766 217.599609375 766 316.299804688 c 2
 766 359 l 2
 766 427.599609375 755.5 469.599609375 739.400390625 494.799804688 c 0
 720.5 524.900390625 695.299804688 531.200195312 675 531.200195312 c 0
 638.599609375 531.200195312 584 508.099609375 584 359 c 2
 584 315.599609375 l 2
179.400390625 459.799804688 m 1
 196.900390625 518.599609375 234 574.599609375 315.200195312 574.599609375 c 0
 408.299804688 574.599609375 465 503.900390625 465 424.799804688 c 0
 465 356.900390625 420.200195312 319.099609375 347.400390625 254.700195312 c 0
 324.299804688 234.400390625 291.400390625 202.200195312 235.400390625 149 c 1
 465 149.700195312 l 1
 465 100 l 1
 185 100 l 1
 185 145.5 l 1
 276 235.799804688 l 2
 343.200195312 298.099609375 406.200195312 347.799804688 406.200195312 422.700195312 c 0
 406.200195312 481.5 365.599609375 529.099609375 305.400390625 529.099609375 c 0
 220 529.099609375 211.599609375 422.700195312 208.799804688 421.299804688 c 1
 179.400390625 459.799804688 l 1
EndSplineSet
EndChar
StartChar: uF1FA8
Encoding: 991144 991144 24
Width: 1000
Flags: MW
LayerCount: 2
Fore
SplineSet
50 300 m 0
 50 555 246 770 500 770 c 0
 741 770 950 566 950 300 c 0
 950 46 754 -170 500 -170 c 0
 259 -170 50 34 50 300 c 0
95 299 m 0
 95 67 276 -125 499 -125 c 0
 721 -125 905 62 905 300 c 0
 905 533 725 725 501 725 c 0
 282 725 95 542 95 299 c 0
514.700195312 182.400390625 m 1
 514.700195312 216 l 0
 514.700195312 225.100585938 515.400390625 226.5 522.400390625 237.700195312 c 2
 691.799804688 521.200195312 l 1
 756.200195312 521.200195312 l 1
 756.200195312 225.100585938 l 1xe8
 825.5 225.100585938 l 1
 825.5 182.400390625 l 1
 756.200195312 182.400390625 l 1
 756.200195312 62.7001953125 l 1
 700.200195312 62.7001953125 l 1
 700.200195312 182.400390625 l 1xf0
 514.700195312 182.400390625 l 1
569.299804688 225.100585938 m 1
 704.400390625 225.100585938 l 1xe8
 704.400390625 495.299804688 l 1
 695.299804688 439.299804688 658.900390625 377 569.299804688 225.100585938 c 1
174.5 422.5 m 1
 192 481.299804688 229.099609375 537.299804688 310.299804688 537.299804688 c 0
 403.400390625 537.299804688 460.099609375 466.600585938 460.099609375 387.5 c 0
 460.099609375 319.600585938 416 281.799804688 343.200195312 217.400390625 c 0
 320.099609375 197.100585938 286.5 164.900390625 230.5 111.700195312 c 1
 460.099609375 112.400390625 l 1
 460.099609375 62.7001953125 l 1
 180.099609375 62.7001953125 l 1
 180.099609375 108.200195312 l 1
 271.099609375 198.5 l 2
 338.299804688 260.799804688 402 310.5 402 385.400390625 c 0
 402 444.200195312 361.400390625 491.799804688 301.200195312 491.799804688 c 0
 215.799804688 491.799804688 207.400390625 385.400390625 204.599609375 384 c 1
 174.5 422.5 l 1
EndSplineSet
EndChar
StartChar: uF1FAB
Encoding: 991147 991147 27
Width: 1000
Flags: MW
LayerCount: 2
Fore
SplineSet
50 300 m 0
 50 555 246 770 500 770 c 0
 741 770 950 566 950 300 c 0
 950 46 754 -170 500 -170 c 0
 259 -170 50 34 50 300 c 0
95 299 m 0
 95 67 276 -125 499 -125 c 0
 721 -125 905 62 905 300 c 0
 905 533 725 725 501 725 c 0
 282 725 95 542 95 299 c 0
529.400390625 476.05078125 m 1
 529.400390625 525.75 l 1
 820.599609375 525.05078125 l 1
 820.599609375 479.55078125 l 1
 721.900390625 366.150390625 665.900390625 212.150390625 665.900390625 58.849609375 c 1
 606.400390625 58.849609375 l 1
 606.400390625 198.150390625 654 349.349609375 773 476.05078125 c 1
 529.400390625 476.05078125 l 1
179.400390625 426.349609375 m 1
 196.900390625 485.150390625 234 541.150390625 315.200195312 541.150390625 c 0
 408.299804688 541.150390625 465 470.451171875 465 391.349609375 c 0
 465 323.451171875 420.900390625 285.650390625 348.099609375 221.25 c 0
 325 200.951171875 291.400390625 168.75 235.400390625 115.55078125 c 1
 465 116.25 l 1
 465 66.55078125 l 1
 185 66.55078125 l 1
 185 112.05078125 l 1
 276 202.349609375 l 2
 343.200195312 264.650390625 406.900390625 314.349609375 406.900390625 389.25 c 0
 406.900390625 448.05078125 366.299804688 495.650390625 306.099609375 495.650390625 c 0
 220.700195312 495.650390625 212.299804688 389.25 209.5 387.849609375 c 1
 179.400390625 426.349609375 l 1
EndSplineSet
EndChar
StartChar: uF1FAC
Encoding: 991148 991148 28
Width: 1000
Flags: MW
LayerCount: 2
Fore
SplineSet
50 300 m 0
 50 555 246 770 500 770 c 0
 741 770 950 566 950 300 c 0
 950 46 754 -170 500 -170 c 0
 259 -170 50 34 50 300 c 0
95 299 m 0
 95 67 276 -125 499 -125 c 0
 721 -125 905 62 905 300 c 0
 905 533 725 725 501 725 c 0
 282 725 95 542 95 299 c 0
529.400390625 196.400390625 m 0xf2
 529.400390625 244.700195312 558.099609375 293.700195312 626.700195312 318.200195312 c 1
 572.099609375 334.30078125 539.200195312 377 539.200195312 421.80078125 c 0
 539.200195312 486.900390625 597.299804688 545 675 545 c 0
 676.400390625 545 677.099609375 545 678.5 545 c 4
 750.599609375 543.600585938 810.799804688 489 810.799804688 422.5 c 0xec
 810.799804688 380.5 784.900390625 339.900390625 723.299804688 318.200195312 c 1
 768.099609375 304.200195312 820.599609375 263.600585938 820.599609375 195.700195312 c 0
 820.599609375 122.200195312 757.599609375 55 675 55 c 0
 592.400390625 55 529.400390625 121.5 529.400390625 196.400390625 c 0xf2
586.099609375 197.100585938 m 0
 586.099609375 162.100585938 598 134.100585938 619 117.30078125 c 0
 633.700195312 105.400390625 652.599609375 98.400390625 675 98.400390625 c 0
 694.599609375 98.400390625 715.599609375 104.700195312 732.400390625 118.700195312 c 0
 750.599609375 134.100585938 763.900390625 160 763.900390625 197.80078125 c 0xf2
 763.900390625 204.100585938 763.200195312 210.400390625 762.5 216.700195312 c 0
 759 240.5 749.200195312 260.100585938 734.5 274.100585938 c 0
 719.099609375 288.80078125 698.799804688 296.5 674.299804688 296.5 c 0
 657.5 296.5 637.200195312 290.900390625 621.099609375 278.30078125 c 0
 604.299804688 265 590.299804688 244.700195312 586.799804688 213.900390625 c 0
 586.099609375 208.30078125 586.099609375 202.700195312 586.099609375 197.100585938 c 0
588.200195312 421.80078125 m 0
 588.200195312 395.900390625 598 374.900390625 614.099609375 360.900390625 c 0
 629.5 347.600585938 650.5 339.900390625 674.299804688 339.900390625 c 0
 698.099609375 339.900390625 718.400390625 346.900390625 733.099609375 358.80078125 c 0
 751.299804688 373.5 761.799804688 395.200195312 761.799804688 421.80078125 c 0
 761.799804688 428.80078125 761.099609375 435.80078125 759.700195312 442.100585938 c 0
 755.5 461 745 477.100585938 730.299804688 487.600585938 c 0
 715.599609375 498.100585938 696.700195312 503.700195312 675 503.700195312 c 0xec
 651.900390625 503.700195312 631.599609375 497.400390625 616.900390625 485.5 c 0
 601.5 472.900390625 591.700195312 455.400390625 588.900390625 433.700195312 c 0
 588.200195312 430.200195312 588.200195312 426 588.200195312 421.80078125 c 0
179.400390625 430.200195312 m 1
 196.900390625 489 234 545 315.200195312 545 c 0
 408.299804688 545 465 474.30078125 465 395.200195312 c 0
 465 327.30078125 420.900390625 289.5 348.099609375 225.100585938 c 0
 325 204.80078125 291.400390625 172.600585938 235.400390625 119.400390625 c 1
 465 120.100585938 l 1
 465 70.400390625 l 1
 185 70.400390625 l 1
 185 115.900390625 l 1
 276 206.200195312 l 2
 343.200195312 268.5 406.900390625 318.200195312 406.900390625 393.100585938 c 0
 406.900390625 451.900390625 366.299804688 499.5 306.099609375 499.5 c 0
 220.700195312 499.5 212.299804688 393.100585938 209.5 391.700195312 c 1
 179.400390625 430.200195312 l 1
EndSplineSet
EndChar
StartChar: uF1FB0
Encoding: 991152 991152 1734
Width: 1000
Flags: MW
LayerCount: 2
Fore
SplineSet
717 -197 m 5
 746 -166 768 -144 797 -96 c 4
 869 23 892 166 892 303 c 4
 892 668 729 784 717 803 c 5
 758 803 l 1
 826 742 950 603 950 304 c 0
 950 2 826 -136 758 -197 c 1
 717 -197 l 5
50 303 m 0
 50 603 173 742 241 803 c 1
 283 803 l 1
 254 772 231 750 202 701 c 0
 131 582 108 440 108 303 c 0
 108 -62 271 -178 283 -197 c 1
 241 -197 l 1
 177 -139 50 -1 50 303 c 0
355.099609375 179.099609375 m 0
 355.099609375 253.299804688 496.5 270.799804688 590.299804688 271.5 c 1
 590.299804688 295.299804688 l 2
 589.599609375 317.700195312 588.900390625 338.700195312 572.099609375 359.700195312 c 0
 552.5 380 525.200195312 380.700195312 511.200195312 380.700195312 c 0
 435.599609375 380.700195312 406.200195312 361.099609375 382.400390625 345 c 1
 378.200195312 391.900390625 l 1
 411.099609375 410.799804688 444.700195312 422.700195312 514.700195312 422.700195312 c 0
 595.900390625 422.700195312 640.700195312 370.900390625 644.900390625 313.5 c 2
 644.900390625 100 l 1
 591.700195312 100 l 1
 591.700195312 124.5 l 1
 551.099609375 98.599609375 482.5 92.2998046875 434.900390625 92.2998046875 c 0
 376.099609375 92.2998046875 355.099609375 146.900390625 355.099609375 179.099609375 c 0
406.200195312 179.799804688 m 0
 406.200195312 153.900390625 434.200195312 135.700195312 487.400390625 135.700195312 c 0
 535.700195312 135.700195312 590.299804688 146.200195312 590.299804688 191 c 2
 590.299804688 235.099609375 l 1
 528.700195312 234.400390625 406.200195312 223.900390625 406.200195312 179.799804688 c 0
EndSplineSet
EndChar
StartChar: uF1FB1
Encoding: 991153 991153 1735
Width: 1000
Flags: MW
LayerCount: 2
Fore
SplineSet
717 -197 m 5
 746 -166 768 -144 797 -96 c 4
 869 23 892 166 892 303 c 4
 892 668 729 784 717 803 c 5
 758 803 l 1
 826 742 950 603 950 304 c 0
 950 2 826 -136 758 -197 c 1
 717 -197 l 5
50 303 m 0
 50 603 173 742 241 803 c 1
 283 803 l 1
 254 772 231 750 202 701 c 0
 131 582 108 440 108 303 c 0
 108 -62 271 -178 283 -197 c 1
 241 -197 l 1
 177 -139 50 -1 50 303 c 0
318 100 m 1
 318 605.400390625 l 1
 370.5 605.400390625 l 1
 370.5 377.900390625 l 1
 437.700195312 413.599609375 505.599609375 418.5 537.799804688 418.5 c 0
 637.200195312 418.5 682 340.799804688 682 256.799804688 c 0
 682 165.099609375 623.900390625 92.2998046875 513.299804688 92.2998046875 c 0
 451.700195312 92.2998046875 408.299804688 111.200195312 372.599609375 132.200195312 c 1
 372.599609375 100 l 1
 318 100 l 1
372.599609375 193.099609375 m 2
 372.599609375 174.900390625 376.799804688 175.599609375 390.799804688 163 c 0
 414.599609375 142.700195312 445.400390625 135 476.200195312 135 c 0
 581.200195312 135 626.700195312 164.400390625 626.700195312 256.099609375 c 0
 626.700195312 349.200195312 592.400390625 375.799804688 484.599609375 375.799804688 c 0
 431.400390625 375.799804688 372.599609375 349.900390625 372.599609375 324 c 2
 372.599609375 193.099609375 l 2
EndSplineSet
EndChar
StartChar: uF1FB3
Encoding: 991155 991155 1737
Width: 1000
Flags: MW
LayerCount: 2
Fore
SplineSet
717 -197 m 5
 746 -166 768 -144 797 -96 c 4
 869 23 892 166 892 303 c 4
 892 668 729 784 717 803 c 5
 758 803 l 1
 826 742 950 603 950 304 c 0
 950 2 826 -136 758 -197 c 1
 717 -197 l 5
50 303 m 0
 50 603 173 742 241 803 c 1
 283 803 l 1
 254 772 231 750 202 701 c 0
 131 582 108 440 108 303 c 0
 108 -62 271 -178 283 -197 c 1
 241 -197 l 1
 177 -139 50 -1 50 303 c 0
318 254.700195312 m 0
 318 312.099609375 339 361.799804688 371.900390625 391.200195312 c 0
 401.299804688 408.700195312 437.700195312 419.200195312 477.599609375 419.200195312 c 0
 542.700195312 419.200195312 593.099609375 400.299804688 628.799804688 380.700195312 c 1
 628.799804688 605.400390625 l 1
 682 605.400390625 l 1
 682 100 l 1
 626.700195312 100 l 1
 626.700195312 136.400390625 l 1
 591 114 540.599609375 92.2998046875 471.299804688 92.2998046875 c 0
 433.5 92.2998046875 399.200195312 102.099609375 371.200195312 119.599609375 c 0
 339 149 318 199.400390625 318 254.700195312 c 0
372.599609375 255.400390625 m 0
 372.599609375 205 382.400390625 173.5 414.599609375 156 c 0
 441.200195312 141.299804688 488.799804688 135.700195312 514 135.700195312 c 0
 575.599609375 135.700195312 626.700195312 170.700195312 626.700195312 193.799804688 c 2
 626.700195312 327.5 l 2
 626.700195312 338.700195312 624.599609375 342.900390625 605 354.799804688 c 0
 573.5 375.099609375 537.799804688 375.799804688 526.599609375 375.799804688 c 2
 525.200195312 375.799804688 l 2
 418.799804688 375.799804688 372.599609375 347.099609375 372.599609375 255.400390625 c 0
EndSplineSet
EndChar
StartChar: uF1FB4
Encoding: 991156 991156 1738
Width: 1000
Flags: MW
LayerCount: 2
Fore
SplineSet
717 -197 m 5
 746 -166 768 -144 797 -96 c 4
 869 23 892 166 892 303 c 4
 892 668 729 784 717 803 c 5
 758 803 l 1
 826 742 950 603 950 304 c 0
 950 2 826 -136 758 -197 c 1
 717 -197 l 5
50 303 m 0
 50 603 173 742 241 803 c 1
 283 803 l 1
 254 772 231 750 202 701 c 0
 131 582 108 440 108 303 c 0
 108 -62 271 -178 283 -197 c 1
 241 -197 l 1
 177 -139 50 -1 50 303 c 0
333.400390625 258.200195312 m 0
 333.400390625 345.700195312 400.599609375 422.700195312 521 422.700195312 c 0
 591 422.700195312 660.299804688 394 666.599609375 274.299804688 c 2
 666.599609375 254 l 1
 382.400390625 254 l 1
 384.5 218.299804688 404.799804688 187.5 435.599609375 165.799804688 c 4
 462.900390625 146.900390625 497.200195312 135.700195312 537.799804688 135.700195312 c 0
 600.099609375 135.700195312 633.700195312 155.299804688 659.599609375 174.200195312 c 1
 663.799804688 128 l 1
 633.700195312 107.700195312 596.599609375 92.2998046875 537.799804688 92.2998046875 c 0
 400.599609375 92.2998046875 333.400390625 171.400390625 333.400390625 258.200195312 c 0
388 292.5 m 1
 626 292.5 l 1
 614.799804688 370.900390625 551.799804688 379.299804688 521 379.299804688 c 0
 441.200195312 379.299804688 399.200195312 327.5 388 292.5 c 1
EndSplineSet
EndChar
StartChar: uF1FB5
Encoding: 991157 991157 1739
Width: 1000
Flags: MW
LayerCount: 2
Fore
SplineSet
717 -197 m 5
 746 -166 768 -144 797 -96 c 4
 869 23 892 166 892 303 c 4
 892 668 729 784 717 803 c 5
 758 803 l 1
 826 742 950 603 950 304 c 0
 950 2 826 -136 758 -197 c 1
 717 -197 l 5
50 303 m 0
 50 603 173 742 241 803 c 1
 283 803 l 1
 254 772 231 750 202 701 c 0
 131 582 108 440 108 303 c 0
 108 -62 271 -178 283 -197 c 1
 241 -197 l 1
 177 -139 50 -1 50 303 c 0
405.5 370.200195312 m 1
 405.5 411.5 l 1
 457.299804688 411.5 l 1
 457.299804688 462.599609375 l 2
 457.299804688 468.200195312 456.599609375 473.799804688 456.599609375 479.400390625 c 0
 456.599609375 524.900390625 471.299804688 559.900390625 495.099609375 582.299804688 c 0
 516.099609375 602.599609375 544.099609375 613.099609375 574.200195312 613.099609375 c 0
 595.900390625 613.099609375 613.400390625 609.599609375 629.5 605.400390625 c 1
 629.5 558.5 l 1
 613.400390625 564.799804688 595.200195312 570.400390625 572.799804688 570.400390625 c 0
 558.099609375 570.400390625 539.200195312 566.200195312 525.900390625 553.599609375 c 0
 515.400390625 543.799804688 507.700195312 529.099609375 507.700195312 506.700195312 c 2
 507.700195312 411.5 l 1
 586.799804688 411.5 l 1
 586.799804688 370.200195312 l 1
 509.799804688 370.200195312 l 1
 509.799804688 100 l 1
 457.299804688 100 l 1
 457.299804688 370.200195312 l 1
 405.5 370.200195312 l 1
EndSplineSet
EndChar
StartChar: uF1FB6
Encoding: 991158 991158 1740
Width: 1000
Flags: MW
LayerCount: 2
Fore
SplineSet
717 -197 m 5
 746 -166 768 -144 797 -96 c 4
 869 23 892 166 892 303 c 4
 892 668 729 784 717 803 c 5
 758 803 l 1
 826 742 950 603 950 304 c 0
 950 2 826 -136 758 -197 c 1
 717 -197 l 5
50 303 m 0
 50 603 173 742 241 803 c 1
 283 803 l 1
 254 772 231 750 202 701 c 0
 131 582 108 440 108 303 c 0
 108 -62 271 -178 283 -197 c 1
 241 -197 l 1
 177 -139 50 -1 50 303 c 0
381.700195312 304.400390625 m 0
 381.700195312 284.099609375 389.400390625 268 402 255.400390625 c 0
 418.799804688 239.299804688 444.700195312 230.900390625 476.200195312 230.900390625 c 0
 497.200195312 230.900390625 525.200195312 235.799804688 544.799804688 251.200195312 c 0
 559.5 262.400390625 570 279.900390625 570 305.099609375 c 0
 570 310.700195312 569.299804688 316.299804688 567.900390625 321.200195312 c 0
 563.700195312 340.099609375 551.799804688 354.799804688 535 364.599609375 c 0
 519.599609375 373.700195312 499.299804688 378.599609375 475.5 378.599609375 c 0
 456.599609375 378.599609375 432.099609375 375.099609375 413.200195312 363.200195312 c 0
 398.5 354.099609375 387.299804688 340.799804688 383.099609375 320.5 c 0
 381.700195312 315.599609375 381.700195312 310 381.700195312 304.400390625 c 0
357.200195312 50.2998046875 m 0
 357.200195312 34.2001953125 368.400390625 21.599609375 385.900390625 13.2001953125 c 0
 413.900390625 3.400390625 451 -2.2001953125 482.5 -3.599609375 c 0
 489.5 -4.2998046875 496.5 -4.2998046875 502.799804688 -4.2998046875 c 0
 551.799804688 -4.2998046875 589.599609375 3.400390625 609.900390625 16 c 0
 623.900390625 25.099609375 633 36.2998046875 633 49.599609375 c 0
 633 78.2998046875 604.299804688 97.900390625 507.700195312 97.900390625 c 2
 441.900390625 97.900390625 l 1
 411.099609375 97.2001953125 l 2
 372.599609375 95.099609375 357.200195312 69.900390625 357.200195312 50.2998046875 c 0
308.200195312 50.2998046875 m 0
 308.200195312 79 325.700195312 106.299804688 353 122.400390625 c 1
 341.799804688 138.5 335.5 153.200195312 335.5 175.599609375 c 0
 335.5 198 343.200195312 217.599609375 355.799804688 234.400390625 c 1
 355.799804688 235.099609375 l 1
 334.799804688 263.099609375 332.700195312 290.400390625 332.700195312 304.400390625 c 0
 332.700195312 338 348.099609375 370.900390625 373.299804688 392.599609375 c 0
 397.099609375 408.700195312 433.5 418.5 475.5 418.5 c 0
 481.099609375 418.5 485.299804688 417.799804688 490.900390625 417.799804688 c 0
 521.700195312 415.700195312 546.900390625 409.400390625 573.5 396.799804688 c 1
 607.799804688 410.799804688 647.700195312 418.5 684.099609375 418.5 c 1
 691.799804688 374.400390625 l 1
 677.799804688 375.799804688 664.5 376.5 650.5 376.5 c 0
 634.400390625 376.5 609.900390625 374.400390625 595.900390625 373.700195312 c 1
 612 351.299804688 619 332.400390625 619 304.400390625 c 0
 619 273.599609375 606.400390625 244.200195312 585.400390625 223.200195312 c 0
 563.700195312 202.900390625 523.099609375 190.299804688 475.5 190.299804688 c 0
 416.700195312 190.299804688 383.099609375 210.599609375 380.299804688 211.299804688 c 0
 373.299804688 197.299804688 372.599609375 190.299804688 372.599609375 185.400390625 c 0
 372.599609375 168.599609375 381 148.299804688 427.200195312 148.299804688 c 2
 505.599609375 148.299804688 l 2
 545.5 148.299804688 593.099609375 147.599609375 625.299804688 134.299804688 c 4
 649.099609375 124.5 670.099609375 107 678.5 76.900390625 c 0
 680.599609375 68.5 682 60.099609375 682 51 c 0
 682 19.5 658.900390625 -7.7998046875 622.5 -24.599609375 c 0
 595.900390625 -37.2001953125 559.5 -44.2001953125 504.900390625 -44.2001953125 c 0
 456.599609375 -44.2001953125 411.099609375 -37.900390625 376.099609375 -28.099609375 c 0
 353 -19 334.799804688 -6.400390625 322.900390625 9 c 0
 313.799804688 21.599609375 308.200195312 35.599609375 308.200195312 50.2998046875 c 0
EndSplineSet
EndChar
StartChar: uF1FB7
Encoding: 991159 991159 1741
Width: 1000
Flags: MW
LayerCount: 2
Fore
SplineSet
717 -197 m 5
 746 -166 768 -144 797 -96 c 4
 869 23 892 166 892 303 c 4
 892 668 729 784 717 803 c 5
 758 803 l 1
 826 742 950 603 950 304 c 0
 950 2 826 -136 758 -197 c 1
 717 -197 l 5
50 303 m 0
 50 603 173 742 241 803 c 1
 283 803 l 1
 254 772 231 750 202 701 c 0
 131 582 108 440 108 303 c 0
 108 -62 271 -178 283 -197 c 1
 241 -197 l 1
 177 -139 50 -1 50 303 c 0
339.700195312 100 m 1
 339.700195312 605.400390625 l 1
 392.200195312 605.400390625 l 1
 392.200195312 368.799804688 l 1
 427.200195312 395.400390625 470.599609375 418.5 543.400390625 418.5 c 0
 640 418.5 656.099609375 369.5 659.599609375 328.200195312 c 0
 660.299804688 318.400390625 660.299804688 309.299804688 660.299804688 301.599609375 c 2
 660.299804688 100 l 1
 605.700195312 100 l 1
 605.700195312 296.700195312 l 2
 605.700195312 354.799804688 593.799804688 375.799804688 502.799804688 375.799804688 c 0
 423 375.799804688 395.700195312 319.799804688 395.700195312 268 c 2
 395.700195312 100 l 1
 339.700195312 100 l 1
EndSplineSet
EndChar
StartChar: uF1FBC
Encoding: 991164 991164 1746
Width: 1000
Flags: MW
LayerCount: 2
Fore
SplineSet
717 -197 m 5
 746 -166 768 -144 797 -96 c 4
 869 23 892 166 892 303 c 4
 892 668 729 784 717 803 c 5
 758 803 l 1
 826 742 950 603 950 304 c 0
 950 2 826 -136 758 -197 c 1
 717 -197 l 5
50 303 m 0
 50 603 173 742 241 803 c 1
 283 803 l 1
 254 772 231 750 202 701 c 0
 131 582 108 440 108 303 c 0
 108 -62 271 -178 283 -197 c 1
 241 -197 l 1
 177 -139 50 -1 50 303 c 0
278.099609375 100 m 1xdc
 278.099609375 415 l 1
 329.200195312 415 l 1
 329.200195312 382.799804688 l 1
 329.200195312 366 l 1
 339 378.599609375 369.799804688 418.5 431.400390625 418.5 c 0
 490.200195312 418.5 510.5 388.400390625 520.299804688 361.799804688 c 1
 530.799804688 375.799804688 562.299804688 418.5 626 418.5 c 0
 654.700195312 418.5 675 411.5 689 400.299804688 c 4
 710 383.5 717.700195312 357.599609375 720.5 333.799804688 c 0
 721.900390625 321.900390625 721.900390625 311.400390625 721.900390625 301.599609375 c 2
 721.900390625 100 l 1
 666.599609375 100 l 1
 666.599609375 296.700195312 l 2
 666.599609375 338 659.599609375 375.799804688 598.700195312 375.799804688 c 0
 545.5 375.799804688 527.299804688 319.799804688 527.299804688 268 c 2
 527.299804688 100 l 1
 472.700195312 100 l 1
 472.700195312 296.700195312 l 2
 472.700195312 338 465 375.799804688 404.099609375 375.799804688 c 0xec
 350.900390625 375.799804688 332.700195312 319.799804688 332.700195312 268 c 2
 332.700195312 100 l 1
 278.099609375 100 l 1xdc
EndSplineSet
EndChar
StartChar: uF1FBD
Encoding: 991165 991165 1747
Width: 1000
Flags: MW
LayerCount: 2
Fore
SplineSet
717 -197 m 5
 746 -166 768 -144 797 -96 c 4
 869 23 892 166 892 303 c 4
 892 668 729 784 717 803 c 5
 758 803 l 1
 826 742 950 603 950 304 c 0
 950 2 826 -136 758 -197 c 1
 717 -197 l 5
50 303 m 0
 50 603 173 742 241 803 c 1
 283 803 l 1
 254 772 231 750 202 701 c 0
 131 582 108 440 108 303 c 0
 108 -62 271 -178 283 -197 c 1
 241 -197 l 1
 177 -139 50 -1 50 303 c 0
340.400390625 100 m 1xd8
 340.400390625 415 l 1
 391.5 415 l 1
 391.5 385.599609375 l 1
 391.5 366 l 1
 404.099609375 378.599609375 451 418.5 543.400390625 418.5 c 0
 596.599609375 418.5 621.799804688 408 635.799804688 391.900390625 c 0
 650.5 375.099609375 656.099609375 352 658.200195312 329.599609375 c 0
 658.900390625 319.799804688 659.599609375 310.700195312 659.599609375 301.599609375 c 2
 659.599609375 100 l 1
 605 100 l 1
 605 296.700195312 l 2
 605 356.200195312 593.099609375 375.799804688 502.099609375 375.799804688 c 0xe8
 422.299804688 375.799804688 395 319.799804688 395 268 c 2
 395 100 l 1
 340.400390625 100 l 1xd8
EndSplineSet
EndChar
StartChar: uF1FC1
Encoding: 991169 991169 1751
Width: 1000
Flags: MW
LayerCount: 2
Fore
SplineSet
717 -197 m 5
 746 -166 768 -144 797 -96 c 4
 869 23 892 166 892 303 c 4
 892 668 729 784 717 803 c 5
 758 803 l 1
 826 742 950 603 950 304 c 0
 950 2 826 -136 758 -197 c 1
 717 -197 l 5
50 303 m 0
 50 603 173 742 241 803 c 1
 283 803 l 1
 254 772 231 750 202 701 c 0
 131 582 108 440 108 303 c 0
 108 -62 271 -178 283 -197 c 1
 241 -197 l 1
 177 -139 50 -1 50 303 c 0
414.599609375 100 m 1xd0
 414.599609375 415 l 1
 463.599609375 415 l 1
 463.599609375 382.799804688 l 5
 463.599609375 352 l 1xe0
 475.5 368.799804688 511.200195312 417.799804688 585.400390625 418.5 c 1
 585.400390625 371.599609375 l 1
 544.799804688 370.200195312 466.400390625 345.700195312 466.400390625 244.200195312 c 2xd0
 466.400390625 100 l 1
 414.599609375 100 l 1xd0
EndSplineSet
EndChar
StartChar: uF1FC2
Encoding: 991170 991170 1752
Width: 1000
Flags: MW
LayerCount: 2
Fore
SplineSet
717 -197 m 5
 746 -166 768 -144 797 -96 c 4
 869 23 892 166 892 303 c 4
 892 668 729 784 717 803 c 5
 758 803 l 1
 826 742 950 603 950 304 c 0
 950 2 826 -136 758 -197 c 1
 717 -197 l 5
50 303 m 0
 50 603 173 742 241 803 c 1
 283 803 l 1
 254 772 231 750 202 701 c 0
 131 582 108 440 108 303 c 0
 108 -62 271 -178 283 -197 c 1
 241 -197 l 1
 177 -139 50 -1 50 303 c 0
360 123.799804688 m 1
 368.400390625 171.400390625 l 1
 398.5 153.900390625 431.400390625 136.400390625 509.799804688 136.400390625 c 0
 577.700195312 136.400390625 591 165.099609375 591 184 c 0
 591 211.299804688 565.799804688 224.599609375 549 228.799804688 c 0
 525.900390625 233.700195312 480.400390625 237.200195312 448.200195312 244.200195312 c 0
 420.200195312 249.799804688 395 262.400390625 379.599609375 282 c 0
 369.799804688 294.599609375 364.200195312 310.700195312 364.200195312 330.299804688 c 0
 364.200195312 354.099609375 371.200195312 384.900390625 402 404.5 c 4
 423 415.700195312 459.400390625 422.700195312 511.200195312 422.700195312 c 0
 565.799804688 422.700195312 591 417.099609375 628.799804688 401 c 1
 620.400390625 354.799804688 l 1
 592.400390625 368.099609375 570 380.700195312 501.400390625 380.700195312 c 0
 428.599609375 380.700195312 413.200195312 354.799804688 413.200195312 338 c 0
 413.200195312 286.900390625 531.5 294.599609375 579.799804688 276.400390625 c 0
 608.5 263.099609375 640 234.400390625 640 188.900390625 c 0
 640 165.099609375 632.299804688 134.299804688 605 114 c 0
 587.5 100.700195312 563 92.2998046875 511.200195312 92.2998046875 c 0
 475.5 92.2998046875 412.5 95.099609375 360 123.799804688 c 1
EndSplineSet
EndChar
StartChar: uF1FC4
Encoding: 991172 991172 1754
Width: 1000
Flags: MW
LayerCount: 2
Fore
SplineSet
717 -197 m 5
 746 -166 768 -144 797 -96 c 4
 869 23 892 166 892 303 c 4
 892 668 729 784 717 803 c 5
 758 803 l 1
 826 742 950 603 950 304 c 0
 950 2 826 -136 758 -197 c 1
 717 -197 l 5
50 303 m 0
 50 603 173 742 241 803 c 1
 283 803 l 1
 254 772 231 750 202 701 c 0
 131 582 108 440 108 303 c 0
 108 -62 271 -178 283 -197 c 1
 241 -197 l 1
 177 -139 50 -1 50 303 c 0
340.400390625 185.400390625 m 2
 340.400390625 411.5 l 1
 395 411.5 l 1
 395 177 l 2
 396.400390625 161.599609375 399.200195312 149.700195312 411.799804688 142 c 0
 424.400390625 135 444 131.5 479 131.5 c 0
 515.400390625 131.5 543.400390625 139.200195312 564.400390625 150.400390625 c 0
 587.5 163 600.799804688 179.799804688 603.599609375 195.200195312 c 0
 605 202.200195312 605 209.200195312 605 215.5 c 2
 605 411.5 l 1
 659.599609375 411.5 l 1
 659.599609375 100 l 1
 606.400390625 100 l 1
 606.400390625 119.599609375 l 1
 606.400390625 133.599609375 l 5
 588.900390625 121 577 111.900390625 551.799804688 105.599609375 c 4
 514 95.7998046875 456.599609375 92.2998046875 423 92.2998046875 c 0
 389.400390625 92.2998046875 372.599609375 98.599609375 361.400390625 108.400390625 c 0
 339.700195312 128 340.400390625 160.900390625 340.400390625 185.400390625 c 2
EndSplineSet
EndChar
StartChar: uF1FC6
Encoding: 991174 991174 1756
Width: 1000
Flags: MW
LayerCount: 2
Fore
SplineSet
717 -197 m 5
 746 -166 768 -144 797 -96 c 4
 869 23 892 166 892 303 c 4
 892 668 729 784 717 803 c 5
 758 803 l 1
 826 742 950 603 950 304 c 0
 950 2 826 -136 758 -197 c 1
 717 -197 l 5
50 303 m 0
 50 603 173 742 241 803 c 1
 283 803 l 1
 254 772 231 750 202 701 c 0
 131 582 108 440 108 303 c 0
 108 -62 271 -178 283 -197 c 1
 241 -197 l 1
 177 -139 50 -1 50 303 c 0
233.299804688 411.5 m 1
 285.799804688 411.5 l 1
 358.599609375 179.799804688 356.5 163 361.400390625 135 c 1
 363.5 187.5 456.599609375 398.900390625 460.799804688 411.5 c 1
 535.700195312 411.5 l 1
 611.299804688 240.700195312 l 2
 632.299804688 167.200195312 635.099609375 156.700195312 637.900390625 135 c 1
 642.099609375 181.200195312 710.700195312 393.299804688 715.599609375 411.5 c 1
 766.700195312 411.5 l 1
 670.099609375 100 l 1
 609.200195312 100 l 1
 491.599609375 360.400390625 507.700195312 329.599609375 496.5 375.799804688 c 1
 492.299804688 320.5 390.799804688 116.799804688 385.200195312 100 c 1
 329.900390625 100 l 1
 233.299804688 411.5 l 1
EndSplineSet
EndChar
StartChar: uF1FC7
Encoding: 991175 991175 1757
Width: 1000
Flags: MW
LayerCount: 2
Fore
SplineSet
717 -197 m 5
 746 -166 768 -144 797 -96 c 4
 869 23 892 166 892 303 c 4
 892 668 729 784 717 803 c 5
 758 803 l 1
 826 742 950 603 950 304 c 0
 950 2 826 -136 758 -197 c 1
 717 -197 l 5
50 303 m 0
 50 603 173 742 241 803 c 1
 283 803 l 1
 254 772 231 750 202 701 c 0
 131 582 108 440 108 303 c 0
 108 -62 271 -178 283 -197 c 1
 241 -197 l 1
 177 -139 50 -1 50 303 c 0
287.200195312 100 m 1
 462.200195312 259.599609375 l 1
 462.200195312 261 l 1
 291.400390625 411.5 l 1
 351.599609375 411.5 l 1
 497.200195312 296 l 1
 497.900390625 296 l 1
 637.200195312 411.5 l 1
 701.599609375 411.5 l 1
 531.5 261 l 1
 531.5 260.299804688 l 1
 712.799804688 100 l 1
 654 100 l 1
 497.200195312 231.599609375 l 1
 346 100 l 1
 287.200195312 100 l 1
EndSplineSet
EndChar
StartChar: uF1FC9
Encoding: 991177 991177 1759
Width: 1000
Flags: MW
LayerCount: 2
Fore
SplineSet
717 -197 m 5
 746 -166 768 -144 797 -96 c 4
 869 23 892 166 892 303 c 4
 892 668 729 784 717 803 c 5
 758 803 l 1
 826 742 950 603 950 304 c 0
 950 2 826 -136 758 -197 c 1
 717 -197 l 5
50 303 m 0
 50 603 173 742 241 803 c 1
 283 803 l 1
 254 772 231 750 202 701 c 0
 131 582 108 440 108 303 c 0
 108 -62 271 -178 283 -197 c 1
 241 -197 l 1
 177 -139 50 -1 50 303 c 0
346 100 m 1
 346 128.700195312 l 1
 578.400390625 370.200195312 l 1
 355.799804688 369.5 l 1
 355.799804688 411.5 l 1
 652.599609375 411.5 l 1
 652.599609375 383.5 l 1
 420.200195312 143.400390625 l 1
 654 144.099609375 l 5
 654 100 l 1
 346 100 l 1
EndSplineSet
EndChar
StartChar: uF2020
Encoding: 991264 991264 0
Width: 1000
Flags: MW
LayerCount: 2
Fore
SplineSet
50 300 m 0
 50 555 246 770 500 770 c 0
 741 770 950 566 950 300 c 0
 950 46 754 -170 500 -170 c 0
 259 -170 50 34 50 300 c 0
95 299 m 0
 95 67 276 -125 499 -125 c 0
 721 -125 905 62 905 300 c 0
 905 533 725 725 501 725 c 0
 282 725 95 542 95 299 c 0
322.900390625 287.400390625 m 2
 322.900390625 300.700195312 l 2
 322.900390625 369.30078125 328.5 500.900390625 433.5 536.600585938 c 0
 452.400390625 541.5 472.700195312 545 499.299804688 545 c 0
 553.900390625 545 602.200195312 528.900390625 626 501.600585938 c 0
 668 454 675.700195312 373.5 677.099609375 322.400390625 c 0
 677.099609375 313.30078125 677.099609375 304.900390625 677.099609375 297.900390625 c 0
 677.099609375 155.80078125 641.400390625 87.2001953125 565.799804688 62.7001953125 c 0
 547.599609375 57.80078125 526.599609375 55 499.299804688 55 c 0
 412.5 55 323.599609375 88.6005859375 322.900390625 287.400390625 c 2
377.5 286 m 2
 377.5 170.5 405.5 124.30078125 448.900390625 106.80078125 c 4
 467.099609375 99.80078125 485.299804688 97.7001953125 500.700195312 97.7001953125 c 0
 521.700195312 97.7001953125 547.599609375 101.900390625 570.700195312 116.600585938 c 0
 601.5 139.700195312 622.5 188 622.5 286.700195312 c 2
 622.5 329.400390625 l 2
 622.5 398 611.299804688 440 595.200195312 465.200195312 c 0
 567.900390625 495.30078125 530.099609375 501.600585938 499.299804688 501.600585938 c 0
 444.700195312 501.600585938 377.5 478.5 377.5 329.400390625 c 2
 377.5 286 l 2
EndSplineSet
EndChar
StartChar: uF205E
Encoding: 991326 991326 328
Width: 1000
Flags: MW
LayerCount: 2
Fore
SplineSet
50 300 m 0
 50 555 246 770 500 770 c 0
 741 770 950 566 950 300 c 0
 950 46 754 -170 500 -170 c 0
 259 -170 50 34 50 300 c 0
380.299804688 450.5 m 1
 422.299804688 450.5 446.799804688 456.799804688 474.799804688 466.600585938 c 1
 474.799804688 104 l 1
 383.799804688 104 l 1
 383.799804688 62.7001953125 l 1
 619.700195312 62.7001953125 l 1
 619.700195312 104 l 1
 530.799804688 104 l 1
 530.799804688 537.299804688 l 1
 517.5 537.299804688 l 1
 498.599609375 519.799804688 460.799804688 491.100585938 380.299804688 491.100585938 c 1
 380.299804688 450.5 l 1
EndSplineSet
EndChar
StartChar: uF205F
Encoding: 991327 991327 329
Width: 1000
Flags: MW
LayerCount: 2
Fore
SplineSet
50 300 m 0
 50 555 246 770 500 770 c 0
 741 770 950 566 950 300 c 0
 950 46 754 -170 500 -170 c 0
 259 -170 50 34 50 300 c 0
327.799804688 422.5 m 1
 357.900390625 384 l 1
 360.700195312 385.400390625 369.799804688 491.799804688 476.200195312 491.799804688 c 0
 566.5 491.799804688 614.099609375 444.200195312 614.099609375 385.400390625 c 0
 614.099609375 310.5 531.5 260.799804688 430.700195312 198.5 c 2
 333.400390625 108.200195312 l 1
 333.400390625 62.7001953125 l 1
 672.200195312 62.7001953125 l 1
 672.200195312 112.400390625 l 1
 383.799804688 111.700195312 l 1
 453.799804688 164.900390625 504.200195312 197.100585938 539.200195312 217.400390625 c 0
 628.799804688 281.799804688 672.200195312 319.600585938 672.200195312 387.5 c 0
 672.200195312 466.600585938 615.5 537.299804688 489.5 537.299804688 c 0
 382.400390625 537.299804688 345.299804688 481.299804688 327.799804688 422.5 c 1
EndSplineSet
EndChar
StartChar: uF2065
Encoding: 991333 991333 335
Width: 1000
Flags: MW
LayerCount: 2
Fore
SplineSet
50 300 m 0
 50 555 246 770 500 770 c 0
 741 770 950 566 950 300 c 0
 950 46 754 -170 500 -170 c 0
 259 -170 50 34 50 300 c 0
309.599609375 196.400390625 m 0xf2
 309.599609375 121.5 376.099609375 55 500 55 c 0
 623.900390625 55 690.400390625 122.200195312 690.400390625 195.700195312 c 0
 690.400390625 263.600585938 637.900390625 304.200195312 572.799804688 318.200195312 c 1
 654.700195312 339.900390625 680.599609375 380.5 680.599609375 422.5 c 0xec
 680.599609375 489 613.400390625 543.600585938 505.599609375 545 c 4
 503.5 545 502.099609375 545 500 545 c 0
 383.799804688 545 319.400390625 486.900390625 319.400390625 421.80078125 c 0
 319.400390625 377 352.299804688 334.30078125 427.200195312 318.200195312 c 1
 338.299804688 293.700195312 309.599609375 244.700195312 309.599609375 196.400390625 c 0xf2
367 197.100585938 m 0
 367 202.700195312 366.299804688 208.30078125 367.700195312 213.900390625 c 0
 373.299804688 244.700195312 393.599609375 265 418.799804688 278.30078125 c 0
 442.599609375 290.900390625 473.400390625 296.5 498.599609375 296.5 c 0
 535 296.5 566.5 288.80078125 589.599609375 274.100585938 c 0
 612 260.100585938 626 240.5 631.599609375 216.700195312 c 0
 633 210.400390625 633 204.100585938 633 197.80078125 c 0xf2
 633 160 613.400390625 134.100585938 586.099609375 118.700195312 c 0
 560.900390625 104.700195312 529.400390625 98.400390625 500 98.400390625 c 0
 466.400390625 98.400390625 438.400390625 105.400390625 416 117.30078125 c 0
 384.5 134.100585938 367 162.100585938 367 197.100585938 c 0
369.799804688 421.80078125 m 0
 369.799804688 426 369.799804688 430.200195312 371.200195312 433.700195312 c 0
 375.400390625 455.400390625 390.099609375 472.900390625 413.200195312 485.5 c 0
 435.599609375 497.400390625 465 503.700195312 500 503.700195312 c 0xec
 532.200195312 503.700195312 560.200195312 498.100585938 582.599609375 487.600585938 c 0
 605 477.100585938 621.099609375 461 627.400390625 442.100585938 c 0
 629.5 435.80078125 630.200195312 428.80078125 630.200195312 421.80078125 c 0
 630.200195312 395.200195312 614.099609375 373.5 586.799804688 358.80078125 c 0
 564.400390625 346.900390625 534.299804688 339.900390625 498.599609375 339.900390625 c 0
 462.900390625 339.900390625 432.099609375 347.600585938 409 360.900390625 c 0
 385.200195312 374.900390625 369.799804688 395.900390625 369.799804688 421.80078125 c 0
EndSplineSet
EndChar
StartChar: uF269E
Encoding: 992926 992926 1786
Width: 1000
Flags: MW
LayerCount: 2
Fore
SplineSet
717 -197 m 5
 746 -166 768 -144 797 -96 c 4
 869 23 892 166 892 303 c 4
 892 668 729 784 717 803 c 5
 758 803 l 1
 826 742 950 603 950 304 c 0
 950 2 826 -136 758 -197 c 1
 717 -197 l 5
50 303 m 0
 50 603 173 742 241 803 c 1
 283 803 l 1
 254 772 231 750 202 701 c 0
 131 582 108 440 108 303 c 0
 108 -62 271 -178 283 -197 c 1
 241 -197 l 1
 177 -139 50 -1 50 303 c 0
532.200195312 459.799804688 m 1
 549.700195312 518.599609375 586.799804688 574.599609375 668 574.599609375 c 0
 761.099609375 574.599609375 817.799804688 503.900390625 817.799804688 424.799804688 c 0
 817.799804688 356.900390625 773.700195312 319.099609375 700.900390625 254.700195312 c 0
 677.799804688 234.400390625 644.200195312 202.200195312 588.200195312 149 c 1
 817.799804688 149.700195312 l 1
 817.799804688 100 l 1
 537.799804688 100 l 1
 537.799804688 145.5 l 1
 628.799804688 235.799804688 l 2
 696 298.099609375 759.700195312 347.799804688 759.700195312 422.700195312 c 0
 759.700195312 481.5 719.099609375 529.099609375 658.900390625 529.099609375 c 0
 573.5 529.099609375 565.099609375 422.700195312 562.299804688 421.299804688 c 1
 532.200195312 459.799804688 l 1
182.200195312 317 m 2
 182.200195312 330.299804688 l 2
 182.200195312 398.900390625 187.099609375 530.5 283.700195312 566.200195312 c 0
 296.299804688 571.099609375 310.299804688 574.599609375 327.799804688 574.599609375 c 0
 364.200195312 574.599609375 399.200195312 558.5 423 531.200195312 c 0
 465 483.599609375 472.700195312 403.099609375 474.099609375 352 c 0
 474.099609375 342.900390625 474.099609375 334.5 474.099609375 327.5 c 0
 474.099609375 185.400390625 438.400390625 116.799804688 371.900390625 92.2998046875 c 0
 360 87.400390625 346 84.599609375 327.799804688 84.599609375 c 0
 269.700195312 84.599609375 182.900390625 118.200195312 182.200195312 317 c 2
236.799804688 315.599609375 m 2
 236.799804688 200.099609375 264.799804688 153.900390625 294.200195312 136.400390625 c 4
 306.099609375 129.400390625 318 127.299804688 328.5 127.299804688 c 0
 342.5 127.299804688 360 131.5 375.400390625 146.200195312 c 0
 399.200195312 169.299804688 419.5 217.599609375 419.5 316.299804688 c 2
 419.5 359 l 2
 419.5 427.599609375 408.299804688 469.599609375 392.200195312 494.799804688 c 0
 373.299804688 524.900390625 348.099609375 531.200195312 327.799804688 531.200195312 c 0
 291.400390625 531.200195312 236.799804688 508.099609375 236.799804688 359 c 2
 236.799804688 315.599609375 l 2
EndSplineSet
EndChar
StartChar: uF26A0
Encoding: 992928 992928 1788
Width: 1000
Flags: MW
LayerCount: 2
Fore
SplineSet
717 -197 m 5
 746 -166 768 -144 797 -96 c 4
 869 23 892 166 892 303 c 4
 892 668 729 784 717 803 c 5
 758 803 l 1
 826 742 950 603 950 304 c 0
 950 2 826 -136 758 -197 c 1
 717 -197 l 5
50 303 m 0
 50 603 173 742 241 803 c 1
 283 803 l 1
 254 772 231 750 202 701 c 0
 131 582 108 440 108 303 c 0
 108 -62 271 -178 283 -197 c 1
 241 -197 l 1
 177 -139 50 -1 50 303 c 0
514.700195312 219.700195312 m 1
 514.700195312 253.299804688 l 0
 514.700195312 262.400390625 515.400390625 263.799804688 522.400390625 275 c 2
 691.799804688 558.5 l 1
 756.200195312 558.5 l 1
 756.200195312 262.400390625 l 1xe8
 825.5 262.400390625 l 1
 825.5 219.700195312 l 1
 756.200195312 219.700195312 l 1
 756.200195312 100 l 1
 700.200195312 100 l 1
 700.200195312 219.700195312 l 1xf0
 514.700195312 219.700195312 l 1
569.299804688 262.400390625 m 1
 704.400390625 262.400390625 l 1xe8
 704.400390625 532.599609375 l 1
 695.299804688 476.599609375 658.900390625 414.299804688 569.299804688 262.400390625 c 1
174.5 317 m 2
 174.5 330.299804688 l 2
 174.5 398.900390625 179.400390625 530.5 276 566.200195312 c 0
 288.599609375 571.099609375 302.599609375 574.599609375 320.099609375 574.599609375 c 0
 356.5 574.599609375 391.5 558.5 415.299804688 531.200195312 c 0
 457.299804688 483.599609375 465 403.099609375 466.400390625 352 c 0
 466.400390625 342.900390625 466.400390625 334.5 466.400390625 327.5 c 0
 466.400390625 185.400390625 430.700195312 116.799804688 364.200195312 92.2998046875 c 0
 352.299804688 87.400390625 338.299804688 84.599609375 320.099609375 84.599609375 c 0
 262 84.599609375 175.200195312 118.200195312 174.5 317 c 2
229.099609375 315.599609375 m 2
 229.099609375 200.099609375 257.099609375 153.900390625 286.5 136.400390625 c 4
 298.400390625 129.400390625 310.299804688 127.299804688 320.799804688 127.299804688 c 0
 334.799804688 127.299804688 352.299804688 131.5 367.700195312 146.200195312 c 0
 391.5 169.299804688 411.799804688 217.599609375 411.799804688 316.299804688 c 2
 411.799804688 359 l 2
 411.799804688 427.599609375 400.599609375 469.599609375 384.5 494.799804688 c 0
 365.599609375 524.900390625 340.400390625 531.200195312 320.099609375 531.200195312 c 0
 283.700195312 531.200195312 229.099609375 508.099609375 229.099609375 359 c 2
 229.099609375 315.599609375 l 2
EndSplineSet
EndChar
StartChar: uF26A2
Encoding: 992930 992930 1790
Width: 1000
Flags: MW
LayerCount: 2
Fore
SplineSet
717 -197 m 5
 746 -166 768 -144 797 -96 c 4
 869 23 892 166 892 303 c 4
 892 668 729 784 717 803 c 5
 758 803 l 1
 826 742 950 603 950 304 c 0
 950 2 826 -136 758 -197 c 1
 717 -197 l 5
50 303 m 0
 50 603 173 742 241 803 c 1
 283 803 l 1
 254 772 231 750 202 701 c 0
 131 582 108 440 108 303 c 0
 108 -62 271 -178 283 -197 c 1
 241 -197 l 1
 177 -139 50 -1 50 303 c 0
530.099609375 326.099609375 m 0
 530.099609375 396.099609375 549.700195312 459.099609375 584 503.900390625 c 0
 616.900390625 548 663.799804688 574.599609375 717 574.599609375 c 0
 752 574.599609375 773.700195312 566.900390625 791.900390625 560.599609375 c 1
 791.900390625 518.599609375 l 1
 773 524.900390625 752 533.299804688 717 533.299804688 c 0
 678.5 533.299804688 649.799804688 513.700195312 628.799804688 485.700195312 c 0
 603.599609375 452.099609375 591 405.200195312 588.900390625 366 c 1
 618.299804688 403.099609375 663.099609375 423.400390625 707.200195312 423.400390625 c 0
 742.900390625 423.400390625 763.900390625 407.299804688 783.5 380.700195312 c 0
 809.400390625 344.299804688 819.200195312 309.299804688 820.599609375 268.700195312 c 0
 820.599609375 264.5 820.599609375 261 820.599609375 256.799804688 c 0
 820.599609375 202.200195312 807.299804688 165.099609375 772.299804688 128 c 0
 744.299804688 97.900390625 714.900390625 84.599609375 677.099609375 84.599609375 c 0
 643.5 84.599609375 600.799804688 97.900390625 570 145.5 c 0
 546.200195312 181.900390625 530.099609375 239.299804688 530.099609375 326.099609375 c 0
590.299804688 272.900390625 m 0
 590.299804688 266.599609375 590.299804688 260.299804688 591 254 c 0
 596.599609375 202.200195312 611.299804688 128 676.400390625 128 c 0
 729.599609375 128 752.700195312 174.900390625 759.700195312 205.700195312 c 0
 762.5 221.099609375 763.200195312 236.5 763.200195312 252.599609375 c 0
 763.200195312 262.400390625 763.200195312 270.799804688 762.5 278.5 c 0
 761.099609375 305.799804688 756.200195312 324 743.599609375 344.299804688 c 0
 722.599609375 377.200195312 696 380.700195312 679.900390625 380.700195312 c 0
 633 380.700195312 600.799804688 343.599609375 592.400390625 296 c 4
 591 288.299804688 590.299804688 280.599609375 590.299804688 272.900390625 c 0
179.400390625 317 m 2
 179.400390625 330.299804688 l 2
 179.400390625 398.900390625 184.299804688 530.5 280.900390625 566.200195312 c 0
 293.5 571.099609375 307.5 574.599609375 325 574.599609375 c 0
 361.400390625 574.599609375 396.400390625 558.5 420.200195312 531.200195312 c 0
 462.200195312 483.599609375 469.900390625 403.099609375 471.299804688 352 c 0
 471.299804688 342.900390625 471.299804688 334.5 471.299804688 327.5 c 0
 471.299804688 185.400390625 435.599609375 116.799804688 369.099609375 92.2998046875 c 0
 357.200195312 87.400390625 343.200195312 84.599609375 325 84.599609375 c 0
 266.900390625 84.599609375 180.099609375 118.200195312 179.400390625 317 c 2
234 315.599609375 m 2
 234 200.099609375 262 153.900390625 291.400390625 136.400390625 c 4
 303.299804688 129.400390625 315.200195312 127.299804688 325.700195312 127.299804688 c 0
 339.700195312 127.299804688 357.200195312 131.5 372.599609375 146.200195312 c 0
 396.400390625 169.299804688 416.700195312 217.599609375 416.700195312 316.299804688 c 2
 416.700195312 359 l 2
 416.700195312 427.599609375 405.5 469.599609375 389.400390625 494.799804688 c 0
 370.5 524.900390625 345.299804688 531.200195312 325 531.200195312 c 0
 288.599609375 531.200195312 234 508.099609375 234 359 c 2
 234 315.599609375 l 2
EndSplineSet
EndChar
StartChar: uF26A4
Encoding: 992932 992932 1792
Width: 1000
Flags: MW
LayerCount: 2
Fore
SplineSet
717 -197 m 5
 746 -166 768 -144 797 -96 c 4
 869 23 892 166 892 303 c 4
 892 668 729 784 717 803 c 5
 758 803 l 1
 826 742 950 603 950 304 c 0
 950 2 826 -136 758 -197 c 1
 717 -197 l 5
50 303 m 0
 50 603 173 742 241 803 c 1
 283 803 l 1
 254 772 231 750 202 701 c 0
 131 582 108 440 108 303 c 0
 108 -62 271 -178 283 -197 c 1
 241 -197 l 1
 177 -139 50 -1 50 303 c 0
529.400390625 226 m 0xf2
 529.400390625 274.299804688 558.099609375 323.299804688 626.700195312 347.799804688 c 1
 572.099609375 363.900390625 539.200195312 406.599609375 539.200195312 451.400390625 c 0
 539.200195312 516.5 597.299804688 574.599609375 675 574.599609375 c 0
 676.400390625 574.599609375 677.099609375 574.599609375 678.5 574.599609375 c 4
 750.599609375 573.200195312 810.799804688 518.599609375 810.799804688 452.099609375 c 0xec
 810.799804688 410.099609375 784.900390625 369.5 723.299804688 347.799804688 c 1
 768.099609375 333.799804688 820.599609375 293.200195312 820.599609375 225.299804688 c 0
 820.599609375 151.799804688 757.599609375 84.599609375 675 84.599609375 c 0
 592.400390625 84.599609375 529.400390625 151.099609375 529.400390625 226 c 0xf2
586.099609375 226.700195312 m 0
 586.099609375 191.700195312 598 163.700195312 619 146.900390625 c 0
 633.700195312 135 652.599609375 128 675 128 c 0
 694.599609375 128 715.599609375 134.299804688 732.400390625 148.299804688 c 0
 750.599609375 163.700195312 763.900390625 189.599609375 763.900390625 227.400390625 c 0xf2
 763.900390625 233.700195312 763.200195312 240 762.5 246.299804688 c 0
 759 270.099609375 749.200195312 289.700195312 734.5 303.700195312 c 0
 719.099609375 318.400390625 698.799804688 326.099609375 674.299804688 326.099609375 c 0
 657.5 326.099609375 637.200195312 320.5 621.099609375 307.900390625 c 0
 604.299804688 294.599609375 590.299804688 274.299804688 586.799804688 243.5 c 0
 586.099609375 237.900390625 586.099609375 232.299804688 586.099609375 226.700195312 c 0
588.200195312 451.400390625 m 0
 588.200195312 425.5 598 404.5 614.099609375 390.5 c 0
 629.5 377.200195312 650.5 369.5 674.299804688 369.5 c 0
 698.099609375 369.5 718.400390625 376.5 733.099609375 388.400390625 c 0
 751.299804688 403.099609375 761.799804688 424.799804688 761.799804688 451.400390625 c 0
 761.799804688 458.400390625 761.099609375 465.400390625 759.700195312 471.700195312 c 0
 755.5 490.599609375 745 506.700195312 730.299804688 517.200195312 c 0
 715.599609375 527.700195312 696.700195312 533.299804688 675 533.299804688 c 0xec
 651.900390625 533.299804688 631.599609375 527 616.900390625 515.099609375 c 0
 601.5 502.5 591.700195312 485 588.900390625 463.299804688 c 0
 588.200195312 459.799804688 588.200195312 455.599609375 588.200195312 451.400390625 c 0
179.400390625 317 m 2
 179.400390625 330.299804688 l 2
 179.400390625 398.900390625 184.299804688 530.5 280.900390625 566.200195312 c 0
 293.5 571.099609375 307.5 574.599609375 325 574.599609375 c 0
 361.400390625 574.599609375 396.400390625 558.5 420.200195312 531.200195312 c 0
 462.200195312 483.599609375 469.900390625 403.099609375 471.299804688 352 c 0
 471.299804688 342.900390625 471.299804688 334.5 471.299804688 327.5 c 0
 471.299804688 185.400390625 435.599609375 116.799804688 369.099609375 92.2998046875 c 0
 357.200195312 87.400390625 343.200195312 84.599609375 325 84.599609375 c 0
 266.900390625 84.599609375 180.099609375 118.200195312 179.400390625 317 c 2
234 315.599609375 m 2
 234 200.099609375 262 153.900390625 291.400390625 136.400390625 c 4
 303.299804688 129.400390625 315.200195312 127.299804688 325.700195312 127.299804688 c 0
 339.700195312 127.299804688 357.200195312 131.5 372.599609375 146.200195312 c 0
 396.400390625 169.299804688 416.700195312 217.599609375 416.700195312 316.299804688 c 2
 416.700195312 359 l 2
 416.700195312 427.599609375 405.5 469.599609375 389.400390625 494.799804688 c 0
 370.5 524.900390625 345.299804688 531.200195312 325 531.200195312 c 0
 288.599609375 531.200195312 234 508.099609375 234 359 c 2
 234 315.599609375 l 2
EndSplineSet
EndChar
StartChar: uF26A6
Encoding: 992934 992934 1794
Width: 1000
Flags: MW
LayerCount: 2
Fore
SplineSet
717 -197 m 5
 746 -166 768 -144 797 -96 c 4
 869 23 892 166 892 303 c 4
 892 668 729 784 717 803 c 5
 758 803 l 1
 826 742 950 603 950 304 c 0
 950 2 826 -136 758 -197 c 1
 717 -197 l 5
50 303 m 0
 50 603 173 742 241 803 c 1
 283 803 l 1
 254 772 231 750 202 701 c 0
 131 582 108 440 108 303 c 0
 108 -62 271 -178 283 -197 c 1
 241 -197 l 1
 177 -139 50 -1 50 303 c 0
574.900390625 487.799804688 m 1
 574.900390625 528.400390625 l 1
 655.400390625 528.400390625 689.700195312 557.099609375 708.599609375 574.599609375 c 1
 721.900390625 574.599609375 l 1
 721.900390625 141.299804688 l 1
 809.400390625 141.299804688 l 1
 809.400390625 100 l 1
 578.400390625 100 l 1
 578.400390625 141.299804688 l 1
 665.900390625 141.299804688 l 1
 665.900390625 503.900390625 l 1
 641.400390625 494.099609375 616.900390625 487.799804688 574.900390625 487.799804688 c 1
190.599609375 459.799804688 m 1
 208.099609375 518.599609375 245.200195312 574.599609375 326.400390625 574.599609375 c 0
 419.5 574.599609375 476.200195312 503.900390625 476.200195312 424.799804688 c 0
 476.200195312 356.900390625 432.099609375 319.099609375 359.299804688 254.700195312 c 0
 336.200195312 234.400390625 302.599609375 202.200195312 246.599609375 149 c 1
 476.200195312 149.700195312 l 1
 476.200195312 100 l 1
 196.200195312 100 l 1
 196.200195312 145.5 l 1
 287.200195312 235.799804688 l 2
 354.400390625 298.099609375 418.099609375 347.799804688 418.099609375 422.700195312 c 0
 418.099609375 481.5 377.5 529.099609375 317.299804688 529.099609375 c 0
 231.900390625 529.099609375 223.5 422.700195312 220.700195312 421.299804688 c 1
 190.599609375 459.799804688 l 1
EndSplineSet
EndChar
StartChar: uF26A9
Encoding: 992937 992937 1797
Width: 1000
Flags: MW
LayerCount: 2
Fore
SplineSet
717 -197 m 5
 746 -166 768 -144 797 -96 c 4
 869 23 892 166 892 303 c 4
 892 668 729 784 717 803 c 5
 758 803 l 1
 826 742 950 603 950 304 c 0
 950 2 826 -136 758 -197 c 1
 717 -197 l 5
50 303 m 0
 50 603 173 742 241 803 c 1
 283 803 l 1
 254 772 231 750 202 701 c 0
 131 582 108 440 108 303 c 0
 108 -62 271 -178 283 -197 c 1
 241 -197 l 1
 177 -139 50 -1 50 303 c 0
514.700195312 219.700195312 m 1
 514.700195312 253.299804688 l 0
 514.700195312 262.400390625 515.400390625 263.799804688 522.400390625 275 c 2
 691.799804688 558.5 l 1
 756.200195312 558.5 l 1
 756.200195312 262.400390625 l 1xe8
 825.5 262.400390625 l 1
 825.5 219.700195312 l 1
 756.200195312 219.700195312 l 1
 756.200195312 100 l 1
 700.200195312 100 l 1
 700.200195312 219.700195312 l 1xf0
 514.700195312 219.700195312 l 1
569.299804688 262.400390625 m 1
 704.400390625 262.400390625 l 1xe8
 704.400390625 532.599609375 l 1
 695.299804688 476.599609375 658.900390625 414.299804688 569.299804688 262.400390625 c 1
174.5 459.799804688 m 1
 192 518.599609375 229.099609375 574.599609375 310.299804688 574.599609375 c 0
 403.400390625 574.599609375 460.099609375 503.900390625 460.099609375 424.799804688 c 0
 460.099609375 356.900390625 416 319.099609375 343.200195312 254.700195312 c 0
 320.099609375 234.400390625 286.5 202.200195312 230.5 149 c 1
 460.099609375 149.700195312 l 1
 460.099609375 100 l 1
 180.099609375 100 l 1
 180.099609375 145.5 l 1
 271.099609375 235.799804688 l 2
 338.299804688 298.099609375 402 347.799804688 402 422.700195312 c 0
 402 481.5 361.400390625 529.099609375 301.200195312 529.099609375 c 0
 215.799804688 529.099609375 207.400390625 422.700195312 204.599609375 421.299804688 c 1
 174.5 459.799804688 l 1
EndSplineSet
EndChar
StartChar: uF26AA
Encoding: 992938 992938 1798
Width: 1000
Flags: MW
LayerCount: 2
Fore
SplineSet
717 -197 m 5
 746 -166 768 -144 797 -96 c 4
 869 23 892 166 892 303 c 4
 892 668 729 784 717 803 c 5
 758 803 l 1
 826 742 950 603 950 304 c 0
 950 2 826 -136 758 -197 c 1
 717 -197 l 5
50 303 m 0
 50 603 173 742 241 803 c 1
 283 803 l 1
 254 772 231 750 202 701 c 0
 131 582 108 440 108 303 c 0
 108 -62 271 -178 283 -197 c 1
 241 -197 l 1
 177 -139 50 -1 50 303 c 0
530.099609375 153.200195312 m 1
 553.900390625 192.400390625 l 1
 556.700195312 187.5 560.200195312 183.299804688 563 179.099609375 c 0
 575.599609375 162.299804688 590.299804688 150.400390625 604.299804688 142.700195312 c 0
 627.400390625 130.099609375 650.5 128 663.099609375 128 c 0
 684.099609375 128 711.400390625 136.400390625 731 160.900390625 c 0
 745 178.400390625 754.799804688 205 754.799804688 243.5 c 0
 754.799804688 251.200195312 754.799804688 258.900390625 754.099609375 265.900390625 c 0
 751.299804688 298.799804688 740.799804688 320.5 728.900390625 334.5 c 0
 714.900390625 350.599609375 697.400390625 356.200195312 683.400390625 356.200195312 c 0
 628.099609375 356.200195312 606.400390625 300.200195312 606.400390625 300.200195312 c 1
 558.799804688 300.200195312 l 1
 558.799804688 558.5 l 1
 794.700195312 558.5 l 1
 794.700195312 513.700195312 l 1
 609.900390625 513.700195312 l 1
 609.900390625 370.200195312 l 1
 633 387.700195312 651.900390625 398.900390625 684.799804688 398.900390625 c 0
 719.099609375 398.900390625 750.599609375 383.5 775.099609375 356.900390625 c 4
 801 328.900390625 817.799804688 289 817.799804688 242.799804688 c 0
 817.799804688 198 800.299804688 157.400390625 770.900390625 128.700195312 c 0
 743.599609375 101.400390625 705.799804688 84.599609375 663.799804688 84.599609375 c 0
 634.400390625 84.599609375 606.400390625 92.2998046875 581.900390625 106.299804688 c 0
 561.599609375 118.200195312 543.400390625 134.299804688 530.099609375 153.200195312 c 1
182.200195312 459.799804688 m 1
 199.700195312 518.599609375 236.799804688 574.599609375 318 574.599609375 c 0
 411.099609375 574.599609375 467.799804688 503.900390625 467.799804688 424.799804688 c 0
 467.799804688 356.900390625 423.700195312 319.099609375 350.900390625 254.700195312 c 0
 327.799804688 234.400390625 294.200195312 202.200195312 238.200195312 149 c 1
 467.799804688 149.700195312 l 1
 467.799804688 100 l 1
 187.799804688 100 l 1
 187.799804688 145.5 l 1
 278.799804688 235.799804688 l 2
 346 298.099609375 409.700195312 347.799804688 409.700195312 422.700195312 c 0
 409.700195312 481.5 369.099609375 529.099609375 308.900390625 529.099609375 c 0
 223.5 529.099609375 215.099609375 422.700195312 212.299804688 421.299804688 c 1
 182.200195312 459.799804688 l 1
EndSplineSet
EndChar
StartChar: uF26AC
Encoding: 992940 992940 1800
Width: 1000
Flags: MW
LayerCount: 2
Fore
SplineSet
717 -197 m 5
 746 -166 768 -144 797 -96 c 4
 869 23 892 166 892 303 c 4
 892 668 729 784 717 803 c 5
 758 803 l 1
 826 742 950 603 950 304 c 0
 950 2 826 -136 758 -197 c 1
 717 -197 l 5
50 303 m 0
 50 603 173 742 241 803 c 1
 283 803 l 1
 254 772 231 750 202 701 c 0
 131 582 108 440 108 303 c 0
 108 -62 271 -178 283 -197 c 1
 241 -197 l 1
 177 -139 50 -1 50 303 c 0
529.400390625 509.5 m 1
 529.400390625 559.200195312 l 1
 820.599609375 558.5 l 1
 820.599609375 513 l 1
 721.900390625 399.599609375 665.900390625 245.599609375 665.900390625 92.2998046875 c 1
 606.400390625 92.2998046875 l 1
 606.400390625 231.599609375 654 382.799804688 773 509.5 c 1
 529.400390625 509.5 l 1
179.400390625 459.799804688 m 1
 196.900390625 518.599609375 234 574.599609375 315.200195312 574.599609375 c 0
 408.299804688 574.599609375 465 503.900390625 465 424.799804688 c 0
 465 356.900390625 420.900390625 319.099609375 348.099609375 254.700195312 c 0
 325 234.400390625 291.400390625 202.200195312 235.400390625 149 c 1
 465 149.700195312 l 1
 465 100 l 1
 185 100 l 1
 185 145.5 l 1
 276 235.799804688 l 2
 343.200195312 298.099609375 406.900390625 347.799804688 406.900390625 422.700195312 c 0
 406.900390625 481.5 366.299804688 529.099609375 306.099609375 529.099609375 c 0
 220.700195312 529.099609375 212.299804688 422.700195312 209.5 421.299804688 c 1
 179.400390625 459.799804688 l 1
EndSplineSet
EndChar
StartChar: uF26AF
Encoding: 992943 992943 1803
Width: 1000
Flags: MW
LayerCount: 2
Fore
SplineSet
717 -197 m 5
 746 -166 768 -144 797 -96 c 4
 869 23 892 166 892 303 c 4
 892 668 729 784 717 803 c 5
 758 803 l 1
 826 742 950 603 950 304 c 0
 950 2 826 -136 758 -197 c 1
 717 -197 l 5
50 303 m 0
 50 603 173 742 241 803 c 1
 283 803 l 1
 254 772 231 750 202 701 c 0
 131 582 108 440 108 303 c 0
 108 -62 271 -178 283 -197 c 1
 241 -197 l 1
 177 -139 50 -1 50 303 c 0
529.400390625 317 m 2
 529.400390625 330.299804688 l 2
 529.400390625 398.900390625 533.599609375 530.5 630.200195312 566.200195312 c 0
 642.799804688 571.099609375 657.5 574.599609375 675 574.599609375 c 0
 711.400390625 574.599609375 746.400390625 558.5 770.200195312 531.200195312 c 0
 812.200195312 483.599609375 819.200195312 403.099609375 820.599609375 352 c 0
 820.599609375 342.900390625 820.599609375 334.5 820.599609375 327.5 c 0
 820.599609375 185.400390625 784.900390625 116.799804688 718.400390625 92.2998046875 c 0
 706.5 87.400390625 693.200195312 84.599609375 675 84.599609375 c 0
 616.900390625 84.599609375 530.099609375 118.200195312 529.400390625 317 c 2
584 315.599609375 m 2
 584 200.099609375 612 153.900390625 641.400390625 136.400390625 c 4
 653.299804688 129.400390625 664.5 127.299804688 675 127.299804688 c 0
 689 127.299804688 707.200195312 131.5 722.599609375 146.200195312 c 0
 746.400390625 169.299804688 766 217.599609375 766 316.299804688 c 2
 766 359 l 2
 766 427.599609375 755.5 469.599609375 739.400390625 494.799804688 c 0
 720.5 524.900390625 695.299804688 531.200195312 675 531.200195312 c 0
 638.599609375 531.200195312 584 508.099609375 584 359 c 2
 584 315.599609375 l 2
179.400390625 156.700195312 m 1
 186.400390625 199.400390625 l 1
 209.5 167.900390625 236.799804688 150.400390625 260.599609375 140.599609375 c 0
 287.200195312 129.400390625 310.299804688 128 320.799804688 128 c 0
 347.400390625 128 368.400390625 139.200195312 383.799804688 157.400390625 c 0
 398.5 174.900390625 407.599609375 199.400390625 407.599609375 227.400390625 c 0xe8
 407.599609375 234.400390625 407.599609375 241.400390625 406.200195312 248.400390625 c 0
 402.700195312 272.200195312 390.799804688 293.200195312 374 307.200195312 c 0
 360 319.099609375 341.799804688 326.099609375 318 326.099609375 c 2
 266.200195312 326.099609375 l 1
 266.200195312 369.5 l 1
 306.799804688 372.299804688 311.700195312 373 316.599609375 373.700195312 c 0
 362.799804688 382.099609375 393.599609375 424.799804688 393.599609375 467.5 c 0
 393.599609375 486.400390625 385.900390625 503.200195312 374 514.400390625 c 0
 361.400390625 526.299804688 343.900390625 532.599609375 322.200195312 532.599609375 c 0
 302.599609375 532.599609375 283 527 266.200195312 517.900390625 c 0
 250.099609375 508.799804688 236.099609375 496.200195312 225.599609375 480.099609375 c 0
 221.400390625 473.799804688 217.900390625 466.799804688 214.400390625 459.799804688 c 1
 189.200195312 498.299804688 l 1
 207.400390625 526.299804688 227.700195312 544.5 248 555.700195312 c 0
 278.099609375 572.5 307.5 574.599609375 323.599609375 574.599609375 c 0
 354.400390625 574.599609375 384.5 564.799804688 407.599609375 548 c 0
 433.5 529.099609375 451 501.099609375 451 467.5 c 0xf0
 451 447.900390625 445.400390625 418.5 423 389.799804688 c 0
 411.099609375 375.099609375 395 360.400390625 372.599609375 347.799804688 c 1
 399.900390625 338 421.599609375 324 437 307.200195312 c 0
 459.400390625 283.400390625 470.599609375 254.700195312 470.599609375 226 c 0
 470.599609375 188.900390625 453.099609375 149.700195312 421.599609375 121.700195312 c 4
 396.400390625 99.2998046875 363.5 84.599609375 322.200195312 84.599609375 c 0
 309.599609375 84.599609375 279.5 86 246.599609375 101.400390625 c 0
 224.200195312 111.900390625 201.099609375 129.400390625 179.400390625 156.700195312 c 1
EndSplineSet
EndChar
StartChar: uF26B0
Encoding: 992944 992944 1804
Width: 1000
Flags: MW
LayerCount: 2
Fore
SplineSet
717 -197 m 5
 746 -166 768 -144 797 -96 c 4
 869 23 892 166 892 303 c 4
 892 668 729 784 717 803 c 5
 758 803 l 1
 826 742 950 603 950 304 c 0
 950 2 826 -136 758 -197 c 1
 717 -197 l 5
50 303 m 0
 50 603 173 742 241 803 c 1
 283 803 l 1
 254 772 231 750 202 701 c 0
 131 582 108 440 108 303 c 0
 108 -62 271 -178 283 -197 c 1
 241 -197 l 1
 177 -139 50 -1 50 303 c 0
574.900390625 487.799804688 m 1
 574.900390625 528.400390625 l 1
 655.400390625 528.400390625 689.700195312 557.099609375 708.599609375 574.599609375 c 1
 721.900390625 574.599609375 l 1
 721.900390625 141.299804688 l 1
 809.400390625 141.299804688 l 1
 809.400390625 100 l 1
 578.400390625 100 l 1
 578.400390625 141.299804688 l 1
 665.900390625 141.299804688 l 1
 665.900390625 503.900390625 l 1
 641.400390625 494.099609375 616.900390625 487.799804688 574.900390625 487.799804688 c 1
190.599609375 156.700195312 m 1
 198.299804688 199.400390625 l 1
 221.400390625 167.900390625 248.700195312 150.400390625 272.5 140.599609375 c 0
 299.099609375 129.400390625 322.200195312 128 332.700195312 128 c 0
 359.299804688 128 380.299804688 139.200195312 395.700195312 157.400390625 c 0
 410.400390625 174.900390625 418.799804688 199.400390625 418.799804688 227.400390625 c 0xe8
 418.799804688 234.400390625 418.799804688 241.400390625 417.400390625 248.400390625 c 0
 413.900390625 272.200195312 402.700195312 293.200195312 385.900390625 307.200195312 c 0
 371.900390625 319.099609375 353 326.099609375 329.200195312 326.099609375 c 2
 278.099609375 326.099609375 l 1
 278.099609375 369.5 l 1
 318.700195312 372.299804688 323.599609375 373 328.5 373.700195312 c 0
 374.700195312 382.099609375 404.799804688 424.799804688 404.799804688 467.5 c 0
 404.799804688 486.400390625 397.799804688 503.200195312 385.900390625 514.400390625 c 0
 373.299804688 526.299804688 355.799804688 532.599609375 334.099609375 532.599609375 c 0
 314.5 532.599609375 294.900390625 527 278.099609375 517.900390625 c 0
 262 508.799804688 247.299804688 496.200195312 236.799804688 480.099609375 c 0
 232.599609375 473.799804688 229.099609375 466.799804688 225.599609375 459.799804688 c 1
 200.400390625 498.299804688 l 1
 218.599609375 526.299804688 239.599609375 544.5 259.900390625 555.700195312 c 0
 290 572.5 319.400390625 574.599609375 335.5 574.599609375 c 0
 366.299804688 574.599609375 396.400390625 564.799804688 419.5 548 c 0
 445.400390625 529.099609375 462.200195312 501.099609375 462.200195312 467.5 c 0xf0
 462.200195312 447.900390625 457.299804688 418.5 434.900390625 389.799804688 c 0
 423 375.099609375 406.900390625 360.400390625 384.5 347.799804688 c 1
 411.799804688 338 433.5 324 448.900390625 307.200195312 c 0
 471.299804688 283.400390625 481.799804688 254.700195312 481.799804688 226 c 0
 481.799804688 188.900390625 465 149.700195312 433.5 121.700195312 c 4
 408.299804688 99.2998046875 374.700195312 84.599609375 333.400390625 84.599609375 c 0
 320.799804688 84.599609375 291.400390625 86 258.5 101.400390625 c 0
 236.099609375 111.900390625 212.299804688 129.400390625 190.599609375 156.700195312 c 1
EndSplineSet
EndChar
StartChar: uF26B5
Encoding: 992949 992949 1809
Width: 1000
Flags: MW
LayerCount: 2
Fore
SplineSet
717 -197 m 5
 746 -166 768 -144 797 -96 c 4
 869 23 892 166 892 303 c 4
 892 668 729 784 717 803 c 5
 758 803 l 1
 826 742 950 603 950 304 c 0
 950 2 826 -136 758 -197 c 1
 717 -197 l 5
50 303 m 0
 50 603 173 742 241 803 c 1
 283 803 l 1
 254 772 231 750 202 701 c 0
 131 582 108 440 108 303 c 0
 108 -62 271 -178 283 -197 c 1
 241 -197 l 1
 177 -139 50 -1 50 303 c 0
530.099609375 326.099609375 m 0
 530.099609375 396.099609375 549.700195312 459.099609375 584 503.900390625 c 0
 616.900390625 548 663.799804688 574.599609375 717 574.599609375 c 0
 752 574.599609375 773.700195312 566.900390625 791.900390625 560.599609375 c 1
 791.900390625 518.599609375 l 1
 773 524.900390625 752 533.299804688 717 533.299804688 c 0
 678.5 533.299804688 649.799804688 513.700195312 628.799804688 485.700195312 c 0
 603.599609375 452.099609375 591 405.200195312 588.900390625 366 c 1
 618.299804688 403.099609375 663.099609375 423.400390625 707.200195312 423.400390625 c 0
 742.900390625 423.400390625 763.900390625 407.299804688 783.5 380.700195312 c 0
 809.400390625 344.299804688 819.200195312 309.299804688 820.599609375 268.700195312 c 0
 820.599609375 264.5 820.599609375 261 820.599609375 256.799804688 c 0
 820.599609375 202.200195312 807.299804688 165.099609375 772.299804688 128 c 0
 744.299804688 97.900390625 714.900390625 84.599609375 677.099609375 84.599609375 c 0
 643.5 84.599609375 600.799804688 97.900390625 570 145.5 c 0
 546.200195312 181.900390625 530.099609375 239.299804688 530.099609375 326.099609375 c 0
590.299804688 272.900390625 m 0
 590.299804688 266.599609375 590.299804688 260.299804688 591 254 c 0
 596.599609375 202.200195312 611.299804688 128 676.400390625 128 c 0
 729.599609375 128 752.700195312 174.900390625 759.700195312 205.700195312 c 0
 762.5 221.099609375 763.200195312 236.5 763.200195312 252.599609375 c 0
 763.200195312 262.400390625 763.200195312 270.799804688 762.5 278.5 c 0
 761.099609375 305.799804688 756.200195312 324 743.599609375 344.299804688 c 0
 722.599609375 377.200195312 696 380.700195312 679.900390625 380.700195312 c 0
 633 380.700195312 600.799804688 343.599609375 592.400390625 296 c 4
 591 288.299804688 590.299804688 280.599609375 590.299804688 272.900390625 c 0
179.400390625 156.700195312 m 1
 187.099609375 199.400390625 l 1
 210.200195312 167.900390625 237.5 150.400390625 261.299804688 140.599609375 c 0
 287.900390625 129.400390625 311 128 321.5 128 c 0
 348.099609375 128 369.099609375 139.200195312 384.5 157.400390625 c 0
 399.200195312 174.900390625 407.599609375 199.400390625 407.599609375 227.400390625 c 0xe8
 407.599609375 234.400390625 407.599609375 241.400390625 406.200195312 248.400390625 c 0
 402.700195312 272.200195312 391.5 293.200195312 374.700195312 307.200195312 c 0
 360.700195312 319.099609375 341.799804688 326.099609375 318 326.099609375 c 2
 266.900390625 326.099609375 l 1
 266.900390625 369.5 l 1
 307.5 372.299804688 312.400390625 373 317.299804688 373.700195312 c 0
 363.5 382.099609375 393.599609375 424.799804688 393.599609375 467.5 c 0
 393.599609375 486.400390625 386.599609375 503.200195312 374.700195312 514.400390625 c 0
 362.099609375 526.299804688 344.599609375 532.599609375 322.900390625 532.599609375 c 0
 303.299804688 532.599609375 283.700195312 527 266.900390625 517.900390625 c 0
 250.799804688 508.799804688 236.099609375 496.200195312 225.599609375 480.099609375 c 0
 221.400390625 473.799804688 217.900390625 466.799804688 214.400390625 459.799804688 c 1
 189.200195312 498.299804688 l 1
 207.400390625 526.299804688 228.400390625 544.5 248.700195312 555.700195312 c 0
 278.799804688 572.5 308.200195312 574.599609375 324.299804688 574.599609375 c 0
 355.099609375 574.599609375 385.200195312 564.799804688 408.299804688 548 c 0
 434.200195312 529.099609375 451 501.099609375 451 467.5 c 0xf0
 451 447.900390625 446.099609375 418.5 423.700195312 389.799804688 c 0
 411.799804688 375.099609375 395.700195312 360.400390625 373.299804688 347.799804688 c 1
 400.599609375 338 422.299804688 324 437.700195312 307.200195312 c 0
 460.099609375 283.400390625 470.599609375 254.700195312 470.599609375 226 c 0
 470.599609375 188.900390625 453.799804688 149.700195312 422.299804688 121.700195312 c 4
 397.099609375 99.2998046875 363.5 84.599609375 322.200195312 84.599609375 c 0
 309.599609375 84.599609375 280.200195312 86 247.299804688 101.400390625 c 0
 224.900390625 111.900390625 201.099609375 129.400390625 179.400390625 156.700195312 c 1
EndSplineSet
EndChar
StartChar: uF26B7
Encoding: 992951 992951 1811
Width: 1000
Flags: MW
LayerCount: 2
Fore
SplineSet
717 -197 m 5
 746 -166 768 -144 797 -96 c 4
 869 23 892 166 892 303 c 4
 892 668 729 784 717 803 c 5
 758 803 l 1
 826 742 950 603 950 304 c 0
 950 2 826 -136 758 -197 c 1
 717 -197 l 5
50 303 m 0
 50 603 173 742 241 803 c 1
 283 803 l 1
 254 772 231 750 202 701 c 0
 131 582 108 440 108 303 c 0
 108 -62 271 -178 283 -197 c 1
 241 -197 l 1
 177 -139 50 -1 50 303 c 0
529.400390625 226 m 0xf2
 529.400390625 274.299804688 558.099609375 323.299804688 626.700195312 347.799804688 c 1
 572.099609375 363.900390625 539.200195312 406.599609375 539.200195312 451.400390625 c 0
 539.200195312 516.5 597.299804688 574.599609375 675 574.599609375 c 0
 676.400390625 574.599609375 677.099609375 574.599609375 678.5 574.599609375 c 4
 750.599609375 573.200195312 810.799804688 518.599609375 810.799804688 452.099609375 c 0xec
 810.799804688 410.099609375 784.900390625 369.5 723.299804688 347.799804688 c 1
 768.099609375 333.799804688 820.599609375 293.200195312 820.599609375 225.299804688 c 0
 820.599609375 151.799804688 757.599609375 84.599609375 675 84.599609375 c 0
 592.400390625 84.599609375 529.400390625 151.099609375 529.400390625 226 c 0xf2
586.099609375 226.700195312 m 0
 586.099609375 191.700195312 598 163.700195312 619 146.900390625 c 0
 633.700195312 135 652.599609375 128 675 128 c 0
 694.599609375 128 715.599609375 134.299804688 732.400390625 148.299804688 c 0
 750.599609375 163.700195312 763.900390625 189.599609375 763.900390625 227.400390625 c 0xf2
 763.900390625 233.700195312 763.200195312 240 762.5 246.299804688 c 0
 759 270.099609375 749.200195312 289.700195312 734.5 303.700195312 c 0
 719.099609375 318.400390625 698.799804688 326.099609375 674.299804688 326.099609375 c 0
 657.5 326.099609375 637.200195312 320.5 621.099609375 307.900390625 c 0
 604.299804688 294.599609375 590.299804688 274.299804688 586.799804688 243.5 c 0
 586.099609375 237.900390625 586.099609375 232.299804688 586.099609375 226.700195312 c 0
588.200195312 451.400390625 m 0
 588.200195312 425.5 598 404.5 614.099609375 390.5 c 0
 629.5 377.200195312 650.5 369.5 674.299804688 369.5 c 0
 698.099609375 369.5 718.400390625 376.5 733.099609375 388.400390625 c 0
 751.299804688 403.099609375 761.799804688 424.799804688 761.799804688 451.400390625 c 0
 761.799804688 458.400390625 761.099609375 465.400390625 759.700195312 471.700195312 c 0
 755.5 490.599609375 745 506.700195312 730.299804688 517.200195312 c 0
 715.599609375 527.700195312 696.700195312 533.299804688 675 533.299804688 c 0xec
 651.900390625 533.299804688 631.599609375 527 616.900390625 515.099609375 c 0
 601.5 502.5 591.700195312 485 588.900390625 463.299804688 c 0
 588.200195312 459.799804688 588.200195312 455.599609375 588.200195312 451.400390625 c 0
179.400390625 156.700195312 m 1
 187.099609375 199.400390625 l 1
 210.200195312 167.900390625 237.5 150.400390625 261.299804688 140.599609375 c 0
 287.900390625 129.400390625 311 128 321.5 128 c 0
 348.099609375 128 369.099609375 139.200195312 384.5 157.400390625 c 0
 399.200195312 174.900390625 407.599609375 199.400390625 407.599609375 227.400390625 c 0xe8
 407.599609375 234.400390625 407.599609375 241.400390625 406.200195312 248.400390625 c 0
 402.700195312 272.200195312 391.5 293.200195312 374.700195312 307.200195312 c 0
 360.700195312 319.099609375 341.799804688 326.099609375 318 326.099609375 c 2
 266.900390625 326.099609375 l 1
 266.900390625 369.5 l 1
 307.5 372.299804688 312.400390625 373 317.299804688 373.700195312 c 0
 363.5 382.099609375 393.599609375 424.799804688 393.599609375 467.5 c 0
 393.599609375 486.400390625 386.599609375 503.200195312 374.700195312 514.400390625 c 0
 362.099609375 526.299804688 344.599609375 532.599609375 322.900390625 532.599609375 c 0
 303.299804688 532.599609375 283.700195312 527 266.900390625 517.900390625 c 0
 250.799804688 508.799804688 236.099609375 496.200195312 225.599609375 480.099609375 c 0
 221.400390625 473.799804688 217.900390625 466.799804688 214.400390625 459.799804688 c 1
 189.200195312 498.299804688 l 1
 207.400390625 526.299804688 228.400390625 544.5 248.700195312 555.700195312 c 0
 278.799804688 572.5 308.200195312 574.599609375 324.299804688 574.599609375 c 0
 355.099609375 574.599609375 385.200195312 564.799804688 408.299804688 548 c 0
 434.200195312 529.099609375 451 501.099609375 451 467.5 c 0xf0
 451 447.900390625 446.099609375 418.5 423.700195312 389.799804688 c 0
 411.799804688 375.099609375 395.700195312 360.400390625 373.299804688 347.799804688 c 1
 400.599609375 338 422.299804688 324 437.700195312 307.200195312 c 0
 460.099609375 283.400390625 470.599609375 254.700195312 470.599609375 226 c 0
 470.599609375 188.900390625 453.799804688 149.700195312 422.299804688 121.700195312 c 4
 397.099609375 99.2998046875 363.5 84.599609375 322.200195312 84.599609375 c 0
 309.599609375 84.599609375 280.200195312 86 247.299804688 101.400390625 c 0
 224.900390625 111.900390625 201.099609375 129.400390625 179.400390625 156.700195312 c 1
EndSplineSet
EndChar
StartChar: uF26B8
Encoding: 992952 992952 1812
Width: 1000
Flags: MW
LayerCount: 2
Fore
SplineSet
717 -197 m 5
 746 -166 768 -144 797 -96 c 4
 869 23 892 166 892 303 c 4
 892 668 729 784 717 803 c 5
 758 803 l 1
 826 742 950 603 950 304 c 0
 950 2 826 -136 758 -197 c 1
 717 -197 l 5
50 303 m 0
 50 603 173 742 241 803 c 1
 283 803 l 1
 254 772 231 750 202 701 c 0
 131 582 108 440 108 303 c 0
 108 -62 271 -178 283 -197 c 1
 241 -197 l 1
 177 -139 50 -1 50 303 c 0
530.099609375 404.5 m 0
 530.099609375 455.599609375 543.400390625 494.099609375 580.5 532.599609375 c 0
 609.900390625 562 638.599609375 574.599609375 677.099609375 574.599609375 c 0
 704.400390625 574.599609375 738 565.5 766 534.700195312 c 0
 796.799804688 500.400390625 820.599609375 439.5 820.599609375 333.099609375 c 0
 820.599609375 254 796.099609375 186.799804688 759 142.700195312 c 0
 728.200195312 105.599609375 687.599609375 84.599609375 644.200195312 84.599609375 c 0
 600.799804688 84.599609375 576.299804688 97.900390625 551.099609375 116.799804688 c 1
 572.799804688 154.599609375 l 1
 588.900390625 143.400390625 606.400390625 128 645.599609375 128 c 0
 679.200195312 128 709.299804688 146.900390625 731 183.299804688 c 0
 744.299804688 206.400390625 754.799804688 235.799804688 759.700195312 271.5 c 0
 760.400390625 278.5 761.099609375 285.5 761.799804688 293.200195312 c 1
 731 256.799804688 691.099609375 235.099609375 643.5 235.099609375 c 0
 607.099609375 235.099609375 586.799804688 251.200195312 567.900390625 277.799804688 c 0
 538.5 318.400390625 530.099609375 356.200195312 530.099609375 404.5 c 0
587.5 404.5 m 0
 587.5 366.700195312 589.599609375 340.099609375 609.900390625 310.700195312 c 0
 623.200195312 291.799804688 641.400390625 278.5 670.799804688 278.5 c 0
 697.400390625 278.5 720.5 291.099609375 735.900390625 310.700195312 c 4
 751.299804688 330.299804688 760.400390625 357.599609375 760.400390625 387 c 0
 760.400390625 433.200195312 747.099609375 532.599609375 677.799804688 532.599609375 c 0
 658.200195312 532.599609375 642.099609375 526.299804688 629.5 516.5 c 0
 607.799804688 499.700195312 595.900390625 473.799804688 591.700195312 454.900390625 c 0
 587.5 438.099609375 587.5 422 587.5 404.5 c 0
179.400390625 156.700195312 m 1
 187.099609375 199.400390625 l 1
 210.200195312 167.900390625 237.5 150.400390625 261.299804688 140.599609375 c 0
 287.900390625 129.400390625 311 128 321.5 128 c 0
 348.099609375 128 369.099609375 139.200195312 384.5 157.400390625 c 0
 399.200195312 174.900390625 407.599609375 199.400390625 407.599609375 227.400390625 c 0xe8
 407.599609375 234.400390625 407.599609375 241.400390625 406.200195312 248.400390625 c 0
 402.700195312 272.200195312 391.5 293.200195312 374.700195312 307.200195312 c 0
 360.700195312 319.099609375 341.799804688 326.099609375 318 326.099609375 c 2
 266.900390625 326.099609375 l 1
 266.900390625 369.5 l 1
 307.5 372.299804688 312.400390625 373 317.299804688 373.700195312 c 0
 363.5 382.099609375 393.599609375 424.799804688 393.599609375 467.5 c 0
 393.599609375 486.400390625 386.599609375 503.200195312 374.700195312 514.400390625 c 0
 362.099609375 526.299804688 344.599609375 532.599609375 322.900390625 532.599609375 c 0
 303.299804688 532.599609375 283.700195312 527 266.900390625 517.900390625 c 0
 250.799804688 508.799804688 236.099609375 496.200195312 225.599609375 480.099609375 c 0
 221.400390625 473.799804688 217.900390625 466.799804688 214.400390625 459.799804688 c 1
 189.200195312 498.299804688 l 1
 207.400390625 526.299804688 228.400390625 544.5 248.700195312 555.700195312 c 0
 278.799804688 572.5 308.200195312 574.599609375 324.299804688 574.599609375 c 0
 355.099609375 574.599609375 385.200195312 564.799804688 408.299804688 548 c 0
 434.200195312 529.099609375 451 501.099609375 451 467.5 c 0xf0
 451 447.900390625 446.099609375 418.5 423.700195312 389.799804688 c 0
 411.799804688 375.099609375 395.700195312 360.400390625 373.299804688 347.799804688 c 1
 400.599609375 338 422.299804688 324 437.700195312 307.200195312 c 0
 460.099609375 283.400390625 470.599609375 254.700195312 470.599609375 226 c 0
 470.599609375 188.900390625 453.799804688 149.700195312 422.299804688 121.700195312 c 4
 397.099609375 99.2998046875 363.5 84.599609375 322.200195312 84.599609375 c 0
 309.599609375 84.599609375 280.200195312 86 247.299804688 101.400390625 c 0
 224.900390625 111.900390625 201.099609375 129.400390625 179.400390625 156.700195312 c 1
EndSplineSet
EndChar
StartChar: uF26B9
Encoding: 992953 992953 1813
Width: 1000
Flags: MW
LayerCount: 2
Fore
SplineSet
717 -197 m 5
 746 -166 768 -144 797 -96 c 4
 869 23 892 166 892 303 c 4
 892 668 729 784 717 803 c 5
 758 803 l 1
 826 742 950 603 950 304 c 0
 950 2 826 -136 758 -197 c 1
 717 -197 l 5
50 303 m 0
 50 603 173 742 241 803 c 1
 283 803 l 1
 254 772 231 750 202 701 c 0
 131 582 108 440 108 303 c 0
 108 -62 271 -178 283 -197 c 1
 241 -197 l 1
 177 -139 50 -1 50 303 c 0
533.599609375 317 m 2
 533.599609375 330.299804688 l 2
 533.599609375 398.900390625 539.200195312 530.5 635.799804688 566.200195312 c 0
 648.400390625 571.099609375 661.700195312 574.599609375 679.200195312 574.599609375 c 0
 715.599609375 574.599609375 750.599609375 558.5 774.400390625 531.200195312 c 0
 816.400390625 483.599609375 824.799804688 403.099609375 826.200195312 352 c 0
 826.200195312 342.900390625 826.200195312 334.5 826.200195312 327.5 c 0
 826.200195312 185.400390625 790.5 116.799804688 724 92.2998046875 c 0
 712.099609375 87.400390625 697.400390625 84.599609375 679.200195312 84.599609375 c 0
 621.099609375 84.599609375 534.299804688 118.200195312 533.599609375 317 c 2
588.200195312 315.599609375 m 2
 588.200195312 200.099609375 616.200195312 153.900390625 645.599609375 136.400390625 c 4
 657.5 129.400390625 670.099609375 127.299804688 680.599609375 127.299804688 c 0
 694.599609375 127.299804688 711.400390625 131.5 726.799804688 146.200195312 c 0
 750.599609375 169.299804688 771.599609375 217.599609375 771.599609375 316.299804688 c 2
 771.599609375 359 l 2
 771.599609375 427.599609375 759.700195312 469.599609375 743.599609375 494.799804688 c 0
 724.700195312 524.900390625 699.5 531.200195312 679.200195312 531.200195312 c 0
 642.799804688 531.200195312 588.200195312 508.099609375 588.200195312 359 c 2
 588.200195312 315.599609375 l 2
173.799804688 219.700195312 m 1
 173.799804688 253.299804688 l 0
 173.799804688 262.400390625 175.200195312 263.799804688 182.200195312 275 c 2
 351.599609375 558.5 l 1
 416 558.5 l 1
 416 262.400390625 l 1xe8
 484.599609375 262.400390625 l 1
 484.599609375 219.700195312 l 1
 416 219.700195312 l 1
 416 100 l 1
 360 100 l 1
 360 219.700195312 l 1xf0
 173.799804688 219.700195312 l 1
228.400390625 262.400390625 m 1
 364.200195312 262.400390625 l 1xe8
 364.200195312 532.599609375 l 1
 355.099609375 476.599609375 318 414.299804688 228.400390625 262.400390625 c 1
EndSplineSet
EndChar
StartChar: uF26BA
Encoding: 992954 992954 1814
Width: 1000
Flags: MW
LayerCount: 2
Fore
SplineSet
717 -197 m 5
 746 -166 768 -144 797 -96 c 4
 869 23 892 166 892 303 c 4
 892 668 729 784 717 803 c 5
 758 803 l 1
 826 742 950 603 950 304 c 0
 950 2 826 -136 758 -197 c 1
 717 -197 l 5
50 303 m 0
 50 603 173 742 241 803 c 1
 283 803 l 1
 254 772 231 750 202 701 c 0
 131 582 108 440 108 303 c 0
 108 -62 271 -178 283 -197 c 1
 241 -197 l 1
 177 -139 50 -1 50 303 c 0
579.799804688 487.799804688 m 1
 579.799804688 528.400390625 l 1
 660.299804688 528.400390625 694.599609375 557.099609375 713.5 574.599609375 c 1
 726.799804688 574.599609375 l 1
 726.799804688 141.299804688 l 1
 814.299804688 141.299804688 l 1
 814.299804688 100 l 1
 583.299804688 100 l 1
 583.299804688 141.299804688 l 1
 670.799804688 141.299804688 l 1
 670.799804688 503.900390625 l 1
 646.299804688 494.099609375 621.799804688 487.799804688 579.799804688 487.799804688 c 1
185.700195312 219.700195312 m 1
 185.700195312 253.299804688 l 0
 185.700195312 262.400390625 186.400390625 263.799804688 193.400390625 275 c 2
 362.799804688 558.5 l 1
 427.200195312 558.5 l 1
 427.200195312 262.400390625 l 1xe8
 496.5 262.400390625 l 1
 496.5 219.700195312 l 1
 427.200195312 219.700195312 l 1
 427.200195312 100 l 1
 371.200195312 100 l 1
 371.200195312 219.700195312 l 1xf0
 185.700195312 219.700195312 l 1
240.299804688 262.400390625 m 1
 375.400390625 262.400390625 l 1xe8
 375.400390625 532.599609375 l 1
 366.299804688 476.599609375 329.900390625 414.299804688 240.299804688 262.400390625 c 1
EndSplineSet
EndChar
StartChar: uF26BD
Encoding: 992957 992957 1817
Width: 1000
Flags: MW
LayerCount: 2
Fore
SplineSet
717 -197 m 5
 746 -166 768 -144 797 -96 c 4
 869 23 892 166 892 303 c 4
 892 668 729 784 717 803 c 5
 758 803 l 1
 826 742 950 603 950 304 c 0
 950 2 826 -136 758 -197 c 1
 717 -197 l 5
50 303 m 0
 50 603 173 742 241 803 c 1
 283 803 l 1
 254 772 231 750 202 701 c 0
 131 582 108 440 108 303 c 0
 108 -62 271 -178 283 -197 c 1
 241 -197 l 1
 177 -139 50 -1 50 303 c 0
519.599609375 219.700195312 m 1
 519.599609375 253.299804688 l 0
 519.599609375 262.400390625 520.299804688 263.799804688 527.299804688 275 c 2
 696.700195312 558.5 l 1
 761.099609375 558.5 l 1
 761.099609375 262.400390625 l 1xe8
 830.400390625 262.400390625 l 1
 830.400390625 219.700195312 l 1
 761.099609375 219.700195312 l 1
 761.099609375 100 l 1
 705.099609375 100 l 1
 705.099609375 219.700195312 l 1xf0
 519.599609375 219.700195312 l 1
574.200195312 262.400390625 m 1
 709.299804688 262.400390625 l 1xe8
 709.299804688 532.599609375 l 1
 700.200195312 476.599609375 663.799804688 414.299804688 574.200195312 262.400390625 c 1
169.599609375 219.700195312 m 1
 169.599609375 253.299804688 l 0
 169.599609375 262.400390625 170.299804688 263.799804688 177.299804688 275 c 2
 346.700195312 558.5 l 1
 411.099609375 558.5 l 1
 411.099609375 262.400390625 l 1xe8
 480.400390625 262.400390625 l 1
 480.400390625 219.700195312 l 1
 411.099609375 219.700195312 l 1
 411.099609375 100 l 1
 355.099609375 100 l 1
 355.099609375 219.700195312 l 1xf0
 169.599609375 219.700195312 l 1
224.200195312 262.400390625 m 1
 359.299804688 262.400390625 l 1xe8
 359.299804688 532.599609375 l 1
 350.200195312 476.599609375 313.799804688 414.299804688 224.200195312 262.400390625 c 1
EndSplineSet
EndChar
StartChar: uF26BE
Encoding: 992958 992958 1818
Width: 1000
Flags: MW
LayerCount: 2
Fore
SplineSet
717 -197 m 5
 746 -166 768 -144 797 -96 c 4
 869 23 892 166 892 303 c 4
 892 668 729 784 717 803 c 5
 758 803 l 1
 826 742 950 603 950 304 c 0
 950 2 826 -136 758 -197 c 1
 717 -197 l 5
50 303 m 0
 50 603 173 742 241 803 c 1
 283 803 l 1
 254 772 231 750 202 701 c 0
 131 582 108 440 108 303 c 0
 108 -62 271 -178 283 -197 c 1
 241 -197 l 1
 177 -139 50 -1 50 303 c 0
535 153.200195312 m 1
 558.799804688 192.400390625 l 1
 561.599609375 187.5 565.099609375 183.299804688 567.900390625 179.099609375 c 0
 580.5 162.299804688 595.200195312 150.400390625 609.200195312 142.700195312 c 0
 632.299804688 130.099609375 655.400390625 128 668 128 c 0
 689 128 716.299804688 136.400390625 735.900390625 160.900390625 c 0
 749.900390625 178.400390625 759.700195312 205 759.700195312 243.5 c 0
 759.700195312 251.200195312 759.700195312 258.900390625 759 265.900390625 c 0
 756.200195312 298.799804688 745.700195312 320.5 733.799804688 334.5 c 0
 719.799804688 350.599609375 702.299804688 356.200195312 688.299804688 356.200195312 c 0
 633 356.200195312 611.299804688 300.200195312 611.299804688 300.200195312 c 1
 563.700195312 300.200195312 l 1
 563.700195312 558.5 l 1
 799.599609375 558.5 l 1
 799.599609375 513.700195312 l 1
 614.799804688 513.700195312 l 1
 614.799804688 370.200195312 l 1
 637.900390625 387.700195312 656.799804688 398.900390625 689.700195312 398.900390625 c 0
 724 398.900390625 755.5 383.5 780 356.900390625 c 4
 805.900390625 328.900390625 822.700195312 289 822.700195312 242.799804688 c 0
 822.700195312 198 805.200195312 157.400390625 775.799804688 128.700195312 c 0
 748.5 101.400390625 710.700195312 84.599609375 668.700195312 84.599609375 c 0
 639.299804688 84.599609375 611.299804688 92.2998046875 586.799804688 106.299804688 c 0
 566.5 118.200195312 548.299804688 134.299804688 535 153.200195312 c 1
177.299804688 219.700195312 m 1
 177.299804688 253.299804688 l 0
 177.299804688 262.400390625 178 263.799804688 185 275 c 2
 354.400390625 558.5 l 1
 418.799804688 558.5 l 1
 418.799804688 262.400390625 l 1xe8
 488.099609375 262.400390625 l 1
 488.099609375 219.700195312 l 1
 418.799804688 219.700195312 l 1
 418.799804688 100 l 1
 362.799804688 100 l 1
 362.799804688 219.700195312 l 1xf0
 177.299804688 219.700195312 l 1
231.900390625 262.400390625 m 1
 367 262.400390625 l 1xe8
 367 532.599609375 l 1
 357.900390625 476.599609375 321.5 414.299804688 231.900390625 262.400390625 c 1
EndSplineSet
EndChar
StartChar: uF26C1
Encoding: 992961 992961 1821
Width: 1000
Flags: MW
LayerCount: 2
Fore
SplineSet
717 -197 m 5
 746 -166 768 -144 797 -96 c 4
 869 23 892 166 892 303 c 4
 892 668 729 784 717 803 c 5
 758 803 l 1
 826 742 950 603 950 304 c 0
 950 2 826 -136 758 -197 c 1
 717 -197 l 5
50 303 m 0
 50 603 173 742 241 803 c 1
 283 803 l 1
 254 772 231 750 202 701 c 0
 131 582 108 440 108 303 c 0
 108 -62 271 -178 283 -197 c 1
 241 -197 l 1
 177 -139 50 -1 50 303 c 0
534.299804688 226 m 0xf2
 534.299804688 274.299804688 563 323.299804688 631.599609375 347.799804688 c 1
 577 363.900390625 544.099609375 406.599609375 544.099609375 451.400390625 c 0
 544.099609375 516.5 602.200195312 574.599609375 679.900390625 574.599609375 c 0
 681.299804688 574.599609375 682 574.599609375 683.400390625 574.599609375 c 4
 755.5 573.200195312 815.700195312 518.599609375 815.700195312 452.099609375 c 0xec
 815.700195312 410.099609375 789.799804688 369.5 728.200195312 347.799804688 c 1
 773 333.799804688 825.5 293.200195312 825.5 225.299804688 c 0
 825.5 151.799804688 762.5 84.599609375 679.900390625 84.599609375 c 0
 597.299804688 84.599609375 534.299804688 151.099609375 534.299804688 226 c 0xf2
591 226.700195312 m 0
 591 191.700195312 602.900390625 163.700195312 623.900390625 146.900390625 c 0
 638.599609375 135 657.5 128 679.900390625 128 c 0
 699.5 128 720.5 134.299804688 737.299804688 148.299804688 c 0
 755.5 163.700195312 768.799804688 189.599609375 768.799804688 227.400390625 c 0xf2
 768.799804688 233.700195312 768.099609375 240 767.400390625 246.299804688 c 0
 763.900390625 270.099609375 754.099609375 289.700195312 739.400390625 303.700195312 c 0
 724 318.400390625 703.700195312 326.099609375 679.200195312 326.099609375 c 0
 662.400390625 326.099609375 642.099609375 320.5 626 307.900390625 c 0
 609.200195312 294.599609375 595.200195312 274.299804688 591.700195312 243.5 c 0
 591 237.900390625 591 232.299804688 591 226.700195312 c 0
593.099609375 451.400390625 m 0
 593.099609375 425.5 602.900390625 404.5 619 390.5 c 0
 634.400390625 377.200195312 655.400390625 369.5 679.200195312 369.5 c 0
 703 369.5 723.299804688 376.5 738 388.400390625 c 0
 756.200195312 403.099609375 766.700195312 424.799804688 766.700195312 451.400390625 c 0
 766.700195312 458.400390625 766 465.400390625 764.599609375 471.700195312 c 0
 760.400390625 490.599609375 749.900390625 506.700195312 735.200195312 517.200195312 c 0
 720.5 527.700195312 701.599609375 533.299804688 679.900390625 533.299804688 c 0xec
 656.799804688 533.299804688 636.5 527 621.799804688 515.099609375 c 0
 606.400390625 502.5 596.599609375 485 593.799804688 463.299804688 c 0
 593.099609375 459.799804688 593.099609375 455.599609375 593.099609375 451.400390625 c 0
174.5 219.700195312 m 1
 174.5 253.299804688 l 0
 174.5 262.400390625 175.200195312 263.799804688 182.200195312 275 c 2
 351.599609375 558.5 l 1
 416 558.5 l 1
 416 262.400390625 l 1xe8
 485.299804688 262.400390625 l 1
 485.299804688 219.700195312 l 1
 416 219.700195312 l 1
 416 100 l 1
 360 100 l 1
 360 219.700195312 l 1xf0
 174.5 219.700195312 l 1
229.099609375 262.400390625 m 1
 364.200195312 262.400390625 l 1xe8
 364.200195312 532.599609375 l 1
 355.099609375 476.599609375 318.700195312 414.299804688 229.099609375 262.400390625 c 1
EndSplineSet
EndChar
StartChar: uF26C2
Encoding: 992962 992962 1822
Width: 1000
Flags: MW
LayerCount: 2
Fore
SplineSet
717 -197 m 5
 746 -166 768 -144 797 -96 c 4
 869 23 892 166 892 303 c 4
 892 668 729 784 717 803 c 5
 758 803 l 1
 826 742 950 603 950 304 c 0
 950 2 826 -136 758 -197 c 1
 717 -197 l 5
50 303 m 0
 50 603 173 742 241 803 c 1
 283 803 l 1
 254 772 231 750 202 701 c 0
 131 582 108 440 108 303 c 0
 108 -62 271 -178 283 -197 c 1
 241 -197 l 1
 177 -139 50 -1 50 303 c 0
535 404.5 m 0
 535 455.599609375 548.299804688 494.099609375 585.400390625 532.599609375 c 0
 614.799804688 562 643.5 574.599609375 682 574.599609375 c 0
 709.299804688 574.599609375 742.900390625 565.5 770.900390625 534.700195312 c 0
 801.700195312 500.400390625 825.5 439.5 825.5 333.099609375 c 0
 825.5 254 801 186.799804688 763.900390625 142.700195312 c 0
 733.099609375 105.599609375 692.5 84.599609375 649.099609375 84.599609375 c 0
 605.700195312 84.599609375 581.200195312 97.900390625 556 116.799804688 c 1
 577.700195312 154.599609375 l 1
 593.799804688 143.400390625 611.299804688 128 650.5 128 c 0
 684.099609375 128 714.200195312 146.900390625 735.900390625 183.299804688 c 0
 749.200195312 206.400390625 759.700195312 235.799804688 764.599609375 271.5 c 0
 765.299804688 278.5 766 285.5 766.700195312 293.200195312 c 1
 735.900390625 256.799804688 696 235.099609375 648.400390625 235.099609375 c 0
 612 235.099609375 591.700195312 251.200195312 572.799804688 277.799804688 c 0
 543.400390625 318.400390625 535 356.200195312 535 404.5 c 0
592.400390625 404.5 m 0
 592.400390625 366.700195312 594.5 340.099609375 614.799804688 310.700195312 c 0
 628.099609375 291.799804688 646.299804688 278.5 675.700195312 278.5 c 0
 702.299804688 278.5 725.400390625 291.099609375 740.799804688 310.700195312 c 4
 756.200195312 330.299804688 765.299804688 357.599609375 765.299804688 387 c 0
 765.299804688 433.200195312 752 532.599609375 682.700195312 532.599609375 c 0
 663.099609375 532.599609375 647 526.299804688 634.400390625 516.5 c 0
 612.700195312 499.700195312 600.799804688 473.799804688 596.599609375 454.900390625 c 0
 592.400390625 438.099609375 592.400390625 422 592.400390625 404.5 c 0
174.5 219.700195312 m 1
 174.5 253.299804688 l 0
 174.5 262.400390625 175.200195312 263.799804688 182.200195312 275 c 2
 351.599609375 558.5 l 1
 416 558.5 l 1
 416 262.400390625 l 1xe8
 485.299804688 262.400390625 l 1
 485.299804688 219.700195312 l 1
 416 219.700195312 l 1
 416 100 l 1
 360 100 l 1
 360 219.700195312 l 1xf0
 174.5 219.700195312 l 1
229.099609375 262.400390625 m 1
 364.200195312 262.400390625 l 1xe8
 364.200195312 532.599609375 l 1
 355.099609375 476.599609375 318.700195312 414.299804688 229.099609375 262.400390625 c 1
EndSplineSet
EndChar
StartChar: uF26C4
Encoding: 992964 992964 1824
Width: 1000
Flags: MW
LayerCount: 2
Fore
SplineSet
717 -197 m 5
 746 -166 768 -144 797 -96 c 4
 869 23 892 166 892 303 c 4
 892 668 729 784 717 803 c 5
 758 803 l 1
 826 742 950 603 950 304 c 0
 950 2 826 -136 758 -197 c 1
 717 -197 l 5
50 303 m 0
 50 603 173 742 241 803 c 1
 283 803 l 1
 254 772 231 750 202 701 c 0
 131 582 108 440 108 303 c 0
 108 -62 271 -178 283 -197 c 1
 241 -197 l 1
 177 -139 50 -1 50 303 c 0
575.599609375 487.799804688 m 1
 575.599609375 528.400390625 l 1
 656.099609375 528.400390625 691.099609375 557.099609375 710 574.599609375 c 1
 722.599609375 574.599609375 l 1
 722.599609375 141.299804688 l 1
 810.799804688 141.299804688 l 1
 810.799804688 100 l 1
 579.799804688 100 l 1
 579.799804688 141.299804688 l 1
 666.599609375 141.299804688 l 1
 666.599609375 503.900390625 l 1
 642.099609375 494.099609375 617.599609375 487.799804688 575.599609375 487.799804688 c 1
189.200195312 153.200195312 m 1
 213 192.400390625 l 1
 215.799804688 187.5 220 183.299804688 222.799804688 179.099609375 c 0
 235.400390625 162.299804688 249.400390625 150.400390625 263.400390625 142.700195312 c 0
 286.5 130.099609375 309.599609375 128 322.200195312 128 c 0
 343.200195312 128 371.200195312 136.400390625 390.799804688 160.900390625 c 0
 404.799804688 178.400390625 414.599609375 205 414.599609375 243.5 c 0
 414.599609375 251.200195312 413.900390625 258.900390625 413.200195312 265.900390625 c 0
 410.400390625 298.799804688 399.900390625 320.5 388 334.5 c 0
 374 350.599609375 357.200195312 356.200195312 343.200195312 356.200195312 c 0
 287.900390625 356.200195312 266.200195312 300.200195312 266.200195312 300.200195312 c 1
 218.599609375 300.200195312 l 1
 218.599609375 558.5 l 1
 453.799804688 558.5 l 1
 453.799804688 513.700195312 l 1
 269 513.700195312 l 1
 269 370.200195312 l 1
 292.099609375 387.700195312 311.700195312 398.900390625 344.599609375 398.900390625 c 0
 378.900390625 398.900390625 409.700195312 383.5 434.200195312 356.900390625 c 4
 460.099609375 328.900390625 477.599609375 289 477.599609375 242.799804688 c 0
 477.599609375 198 459.400390625 157.400390625 430 128.700195312 c 0
 402.700195312 101.400390625 365.599609375 84.599609375 323.599609375 84.599609375 c 0
 294.200195312 84.599609375 265.5 92.2998046875 241 106.299804688 c 0
 220.700195312 118.200195312 202.5 134.299804688 189.200195312 153.200195312 c 1
EndSplineSet
EndChar
StartChar: uF26C5
Encoding: 992965 992965 1825
Width: 1000
Flags: MW
LayerCount: 2
Fore
SplineSet
717 -197 m 5
 746 -166 768 -144 797 -96 c 4
 869 23 892 166 892 303 c 4
 892 668 729 784 717 803 c 5
 758 803 l 1
 826 742 950 603 950 304 c 0
 950 2 826 -136 758 -197 c 1
 717 -197 l 5
50 303 m 0
 50 603 173 742 241 803 c 1
 283 803 l 1
 254 772 231 750 202 701 c 0
 131 582 108 440 108 303 c 0
 108 -62 271 -178 283 -197 c 1
 241 -197 l 1
 177 -139 50 -1 50 303 c 0
533.599609375 459.799804688 m 1
 551.099609375 518.599609375 588.200195312 574.599609375 669.400390625 574.599609375 c 0
 762.5 574.599609375 819.200195312 503.900390625 819.200195312 424.799804688 c 0
 819.200195312 356.900390625 774.400390625 319.099609375 701.599609375 254.700195312 c 0
 678.5 234.400390625 645.599609375 202.200195312 589.599609375 149 c 1
 819.200195312 149.700195312 l 1
 819.200195312 100 l 1
 539.200195312 100 l 1
 539.200195312 145.5 l 1
 630.200195312 235.799804688 l 2
 697.400390625 298.099609375 760.400390625 347.799804688 760.400390625 422.700195312 c 0
 760.400390625 481.5 719.799804688 529.099609375 659.599609375 529.099609375 c 0
 574.200195312 529.099609375 565.799804688 422.700195312 563 421.299804688 c 1
 533.599609375 459.799804688 l 1
180.799804688 153.200195312 m 1
 204.599609375 192.400390625 l 1
 207.400390625 187.5 211.599609375 183.299804688 214.400390625 179.099609375 c 0
 227 162.299804688 241 150.400390625 255 142.700195312 c 0
 278.099609375 130.099609375 301.200195312 128 313.799804688 128 c 0
 334.799804688 128 362.799804688 136.400390625 382.400390625 160.900390625 c 0
 396.400390625 178.400390625 406.200195312 205 406.200195312 243.5 c 0
 406.200195312 251.200195312 405.5 258.900390625 404.799804688 265.900390625 c 0
 402 298.799804688 391.5 320.5 379.599609375 334.5 c 0
 365.599609375 350.599609375 348.799804688 356.200195312 334.799804688 356.200195312 c 0
 279.5 356.200195312 257.799804688 300.200195312 257.799804688 300.200195312 c 1
 210.200195312 300.200195312 l 1
 210.200195312 558.5 l 1
 445.400390625 558.5 l 1
 445.400390625 513.700195312 l 1
 260.599609375 513.700195312 l 1
 260.599609375 370.200195312 l 1
 283.700195312 387.700195312 303.299804688 398.900390625 336.200195312 398.900390625 c 0
 370.5 398.900390625 401.299804688 383.5 425.799804688 356.900390625 c 4
 451.700195312 328.900390625 469.200195312 289 469.200195312 242.799804688 c 0
 469.200195312 198 451 157.400390625 421.599609375 128.700195312 c 0
 394.299804688 101.400390625 357.200195312 84.599609375 315.200195312 84.599609375 c 0
 285.799804688 84.599609375 257.099609375 92.2998046875 232.599609375 106.299804688 c 0
 212.299804688 118.200195312 194.099609375 134.299804688 180.799804688 153.200195312 c 1
EndSplineSet
EndChar
StartChar: uF26C7
Encoding: 992967 992967 1827
Width: 1000
Flags: MW
LayerCount: 2
Fore
SplineSet
717 -197 m 5
 746 -166 768 -144 797 -96 c 4
 869 23 892 166 892 303 c 4
 892 668 729 784 717 803 c 5
 758 803 l 1
 826 742 950 603 950 304 c 0
 950 2 826 -136 758 -197 c 1
 717 -197 l 5
50 303 m 0
 50 603 173 742 241 803 c 1
 283 803 l 1
 254 772 231 750 202 701 c 0
 131 582 108 440 108 303 c 0
 108 -62 271 -178 283 -197 c 1
 241 -197 l 1
 177 -139 50 -1 50 303 c 0
515.400390625 219.700195312 m 1
 515.400390625 253.299804688 l 0
 515.400390625 262.400390625 516.799804688 263.799804688 523.799804688 275 c 2
 693.200195312 558.5 l 1
 757.599609375 558.5 l 1
 757.599609375 262.400390625 l 1xe8
 826.200195312 262.400390625 l 1
 826.200195312 219.700195312 l 1
 757.599609375 219.700195312 l 1
 757.599609375 100 l 1
 701.599609375 100 l 1
 701.599609375 219.700195312 l 1xf0
 515.400390625 219.700195312 l 1
570 262.400390625 m 1
 705.799804688 262.400390625 l 1xe8
 705.799804688 532.599609375 l 1
 696.700195312 476.599609375 659.599609375 414.299804688 570 262.400390625 c 1
173.799804688 153.200195312 m 1
 197.599609375 192.400390625 l 1
 200.400390625 187.5 203.200195312 183.299804688 206 179.099609375 c 0
 218.599609375 162.299804688 234 150.400390625 248 142.700195312 c 0
 271.099609375 130.099609375 294.200195312 128 306.799804688 128 c 0
 327.799804688 128 354.400390625 136.400390625 374 160.900390625 c 0
 388 178.400390625 397.799804688 205 397.799804688 243.5 c 0
 397.799804688 251.200195312 398.5 258.900390625 397.799804688 265.900390625 c 0
 395 298.799804688 384.5 320.5 372.599609375 334.5 c 0
 358.599609375 350.599609375 340.400390625 356.200195312 326.400390625 356.200195312 c 0
 271.099609375 356.200195312 249.400390625 300.200195312 249.400390625 300.200195312 c 1
 201.799804688 300.200195312 l 1
 201.799804688 558.5 l 1
 438.400390625 558.5 l 1
 438.400390625 513.700195312 l 1
 253.599609375 513.700195312 l 1
 253.599609375 370.200195312 l 1
 276.700195312 387.700195312 294.900390625 398.900390625 327.799804688 398.900390625 c 0
 362.099609375 398.900390625 394.299804688 383.5 418.799804688 356.900390625 c 4
 444.700195312 328.900390625 460.799804688 289 460.799804688 242.799804688 c 0
 460.799804688 198 444 157.400390625 414.599609375 128.700195312 c 0
 387.299804688 101.400390625 348.799804688 84.599609375 306.799804688 84.599609375 c 0
 277.400390625 84.599609375 250.099609375 92.2998046875 225.599609375 106.299804688 c 0
 205.299804688 118.200195312 187.099609375 134.299804688 173.799804688 153.200195312 c 1
EndSplineSet
EndChar
StartChar: uF26CB
Encoding: 992971 992971 1831
Width: 1000
Flags: MW
LayerCount: 2
Fore
SplineSet
717 -197 m 5
 746 -166 768 -144 797 -96 c 4
 869 23 892 166 892 303 c 4
 892 668 729 784 717 803 c 5
 758 803 l 1
 826 742 950 603 950 304 c 0
 950 2 826 -136 758 -197 c 1
 717 -197 l 5
50 303 m 0
 50 603 173 742 241 803 c 1
 283 803 l 1
 254 772 231 750 202 701 c 0
 131 582 108 440 108 303 c 0
 108 -62 271 -178 283 -197 c 1
 241 -197 l 1
 177 -139 50 -1 50 303 c 0
530.799804688 226 m 0xf2
 530.799804688 274.299804688 558.799804688 323.299804688 627.400390625 347.799804688 c 1
 572.799804688 363.900390625 540.599609375 406.599609375 540.599609375 451.400390625 c 0
 540.599609375 516.5 598.700195312 574.599609375 676.400390625 574.599609375 c 0
 677.799804688 574.599609375 677.799804688 574.599609375 679.200195312 574.599609375 c 4
 751.299804688 573.200195312 812.200195312 518.599609375 812.200195312 452.099609375 c 0xec
 812.200195312 410.099609375 785.599609375 369.5 724 347.799804688 c 1
 768.799804688 333.799804688 822 293.200195312 822 225.299804688 c 0
 822 151.799804688 759 84.599609375 676.400390625 84.599609375 c 0
 593.799804688 84.599609375 530.799804688 151.099609375 530.799804688 226 c 0xf2
586.799804688 226.700195312 m 0
 586.799804688 191.700195312 599.400390625 163.700195312 620.400390625 146.900390625 c 0
 635.099609375 135 654 128 676.400390625 128 c 0
 696 128 717 134.299804688 733.799804688 148.299804688 c 0
 752 163.700195312 764.599609375 189.599609375 764.599609375 227.400390625 c 0xf2
 764.599609375 233.700195312 763.900390625 240 763.200195312 246.299804688 c 0
 759.700195312 270.099609375 749.900390625 289.700195312 735.200195312 303.700195312 c 0
 719.799804688 318.400390625 699.5 326.099609375 675 326.099609375 c 0
 658.200195312 326.099609375 637.900390625 320.5 621.799804688 307.900390625 c 0
 605 294.599609375 591.700195312 274.299804688 588.200195312 243.5 c 0
 587.5 237.900390625 586.799804688 232.299804688 586.799804688 226.700195312 c 0
589.599609375 451.400390625 m 0
 589.599609375 425.5 598.700195312 404.5 614.799804688 390.5 c 0
 630.200195312 377.200195312 651.200195312 369.5 675 369.5 c 0
 698.799804688 369.5 719.099609375 376.5 733.799804688 388.400390625 c 0
 752 403.099609375 763.200195312 424.799804688 763.200195312 451.400390625 c 0
 763.200195312 458.400390625 761.799804688 465.400390625 760.400390625 471.700195312 c 0
 756.200195312 490.599609375 745.700195312 506.700195312 731 517.200195312 c 0
 716.299804688 527.700195312 698.099609375 533.299804688 676.400390625 533.299804688 c 0xec
 653.299804688 533.299804688 632.299804688 527 617.599609375 515.099609375 c 0
 602.200195312 502.5 592.400390625 485 589.599609375 463.299804688 c 0
 588.900390625 459.799804688 589.599609375 455.599609375 589.599609375 451.400390625 c 0
178 153.200195312 m 1
 201.799804688 192.400390625 l 1
 204.599609375 187.5 208.799804688 183.299804688 211.599609375 179.099609375 c 0
 224.200195312 162.299804688 238.200195312 150.400390625 252.200195312 142.700195312 c 0
 275.299804688 130.099609375 298.400390625 128 311 128 c 0
 332 128 360 136.400390625 379.599609375 160.900390625 c 0
 393.599609375 178.400390625 403.400390625 205 403.400390625 243.5 c 0
 403.400390625 251.200195312 402.700195312 258.900390625 402 265.900390625 c 0
 399.200195312 298.799804688 388.700195312 320.5 376.799804688 334.5 c 0
 362.799804688 350.599609375 346 356.200195312 332 356.200195312 c 0
 276.700195312 356.200195312 255 300.200195312 255 300.200195312 c 1
 207.400390625 300.200195312 l 1
 207.400390625 558.5 l 1
 442.599609375 558.5 l 1
 442.599609375 513.700195312 l 1
 257.799804688 513.700195312 l 1
 257.799804688 370.200195312 l 1
 280.900390625 387.700195312 300.5 398.900390625 333.400390625 398.900390625 c 0
 367.700195312 398.900390625 398.5 383.5 423 356.900390625 c 4
 448.900390625 328.900390625 466.400390625 289 466.400390625 242.799804688 c 0
 466.400390625 198 448.200195312 157.400390625 418.799804688 128.700195312 c 0
 391.5 101.400390625 354.400390625 84.599609375 312.400390625 84.599609375 c 0
 283 84.599609375 254.299804688 92.2998046875 229.799804688 106.299804688 c 0
 209.5 118.200195312 191.299804688 134.299804688 178 153.200195312 c 1
EndSplineSet
EndChar
StartChar: uF26CC
Encoding: 992972 992972 1832
Width: 1000
Flags: MW
LayerCount: 2
Fore
SplineSet
717 -197 m 5
 746 -166 768 -144 797 -96 c 4
 869 23 892 166 892 303 c 4
 892 668 729 784 717 803 c 5
 758 803 l 1
 826 742 950 603 950 304 c 0
 950 2 826 -136 758 -197 c 1
 717 -197 l 5
50 303 m 0
 50 603 173 742 241 803 c 1
 283 803 l 1
 254 772 231 750 202 701 c 0
 131 582 108 440 108 303 c 0
 108 -62 271 -178 283 -197 c 1
 241 -197 l 1
 177 -139 50 -1 50 303 c 0
530.799804688 404.5 m 0
 530.799804688 455.599609375 544.099609375 494.099609375 581.200195312 532.599609375 c 0
 610.599609375 562 639.299804688 574.599609375 677.799804688 574.599609375 c 0
 705.099609375 574.599609375 739.400390625 565.5 767.400390625 534.700195312 c 0
 798.200195312 500.400390625 822 439.5 822 333.099609375 c 0
 822 254 797.5 186.799804688 760.400390625 142.700195312 c 0
 729.599609375 105.599609375 689 84.599609375 645.599609375 84.599609375 c 0
 602.200195312 84.599609375 577 97.900390625 551.799804688 116.799804688 c 1
 574.200195312 154.599609375 l 1
 590.299804688 143.400390625 607.799804688 128 647 128 c 0
 680.599609375 128 710.700195312 146.900390625 732.400390625 183.299804688 c 0
 745.700195312 206.400390625 755.5 235.799804688 760.400390625 271.5 c 0
 761.099609375 278.5 762.5 285.5 763.200195312 293.200195312 c 1
 732.400390625 256.799804688 691.799804688 235.099609375 644.200195312 235.099609375 c 0
 607.799804688 235.099609375 587.5 251.200195312 568.599609375 277.799804688 c 0
 539.200195312 318.400390625 530.799804688 356.200195312 530.799804688 404.5 c 0
588.200195312 404.5 m 0
 588.200195312 366.700195312 590.299804688 340.099609375 610.599609375 310.700195312 c 0
 623.900390625 291.799804688 642.799804688 278.5 672.200195312 278.5 c 0
 698.799804688 278.5 721.200195312 291.099609375 736.599609375 310.700195312 c 4
 752 330.299804688 761.799804688 357.599609375 761.799804688 387 c 0
 761.799804688 433.200195312 748.5 532.599609375 679.200195312 532.599609375 c 0
 659.599609375 532.599609375 642.799804688 526.299804688 630.200195312 516.5 c 0
 608.5 499.700195312 596.599609375 473.799804688 592.400390625 454.900390625 c 0
 588.200195312 438.099609375 588.200195312 422 588.200195312 404.5 c 0
178 153.200195312 m 1
 201.799804688 192.400390625 l 1
 204.599609375 187.5 208.799804688 183.299804688 211.599609375 179.099609375 c 0
 224.200195312 162.299804688 238.200195312 150.400390625 252.200195312 142.700195312 c 0
 275.299804688 130.099609375 298.400390625 128 311 128 c 0
 332 128 360 136.400390625 379.599609375 160.900390625 c 0
 393.599609375 178.400390625 403.400390625 205 403.400390625 243.5 c 0
 403.400390625 251.200195312 402.700195312 258.900390625 402 265.900390625 c 0
 399.200195312 298.799804688 388.700195312 320.5 376.799804688 334.5 c 0
 362.799804688 350.599609375 346 356.200195312 332 356.200195312 c 0
 276.700195312 356.200195312 255 300.200195312 255 300.200195312 c 1
 207.400390625 300.200195312 l 1
 207.400390625 558.5 l 1
 442.599609375 558.5 l 1
 442.599609375 513.700195312 l 1
 257.799804688 513.700195312 l 1
 257.799804688 370.200195312 l 1
 280.900390625 387.700195312 300.5 398.900390625 333.400390625 398.900390625 c 0
 367.700195312 398.900390625 398.5 383.5 423 356.900390625 c 4
 448.900390625 328.900390625 466.400390625 289 466.400390625 242.799804688 c 0
 466.400390625 198 448.200195312 157.400390625 418.799804688 128.700195312 c 0
 391.5 101.400390625 354.400390625 84.599609375 312.400390625 84.599609375 c 0
 283 84.599609375 254.299804688 92.2998046875 229.799804688 106.299804688 c 0
 209.5 118.200195312 191.299804688 134.299804688 178 153.200195312 c 1
EndSplineSet
EndChar
StartChar: uF26CD
Encoding: 992973 992973 1833
Width: 1000
Flags: MW
LayerCount: 2
Fore
SplineSet
717 -197 m 5
 746 -166 768 -144 797 -96 c 4
 869 23 892 166 892 303 c 4
 892 668 729 784 717 803 c 5
 758 803 l 1
 826 742 950 603 950 304 c 0
 950 2 826 -136 758 -197 c 1
 717 -197 l 5
50 303 m 0
 50 603 173 742 241 803 c 1
 283 803 l 1
 254 772 231 750 202 701 c 0
 131 582 108 440 108 303 c 0
 108 -62 271 -178 283 -197 c 1
 241 -197 l 1
 177 -139 50 -1 50 303 c 0
528.700195312 317 m 2
 528.700195312 330.299804688 l 2
 528.700195312 398.900390625 533.599609375 530.5 630.200195312 566.200195312 c 0
 642.799804688 571.099609375 656.799804688 574.599609375 674.299804688 574.599609375 c 0
 710.700195312 574.599609375 745.700195312 558.5 769.5 531.200195312 c 0
 811.5 483.599609375 819.200195312 403.099609375 820.599609375 352 c 0
 820.599609375 342.900390625 820.599609375 334.5 820.599609375 327.5 c 0
 820.599609375 185.400390625 784.900390625 116.799804688 718.400390625 92.2998046875 c 0
 706.5 87.400390625 692.5 84.599609375 674.299804688 84.599609375 c 0
 616.200195312 84.599609375 529.400390625 118.200195312 528.700195312 317 c 2
583.299804688 315.599609375 m 2
 583.299804688 200.099609375 611.299804688 153.900390625 640.700195312 136.400390625 c 4
 652.599609375 129.400390625 664.5 127.299804688 675 127.299804688 c 0
 689 127.299804688 706.5 131.5 721.900390625 146.200195312 c 0
 745.700195312 169.299804688 766 217.599609375 766 316.299804688 c 2
 766 359 l 2
 766 427.599609375 754.799804688 469.599609375 738.700195312 494.799804688 c 0
 719.799804688 524.900390625 694.599609375 531.200195312 674.299804688 531.200195312 c 0
 637.900390625 531.200195312 583.299804688 508.099609375 583.299804688 359 c 2
 583.299804688 315.599609375 l 2
179.400390625 326.099609375 m 0
 179.400390625 396.099609375 199 459.099609375 233.299804688 503.900390625 c 0
 266.200195312 548 313.099609375 574.599609375 366.299804688 574.599609375 c 0
 401.299804688 574.599609375 423 566.900390625 441.200195312 560.599609375 c 1
 441.200195312 518.599609375 l 1
 422.299804688 524.900390625 401.299804688 533.299804688 366.299804688 533.299804688 c 0
 327.799804688 533.299804688 299.099609375 513.700195312 278.099609375 485.700195312 c 0
 252.900390625 452.099609375 240.299804688 405.200195312 238.200195312 366 c 1
 267.599609375 403.099609375 312.400390625 423.400390625 356.5 423.400390625 c 0
 392.200195312 423.400390625 413.200195312 407.299804688 432.799804688 380.700195312 c 0
 458.700195312 344.299804688 468.5 309.299804688 469.900390625 268.700195312 c 0
 469.900390625 264.5 469.900390625 261 469.900390625 256.799804688 c 0
 469.900390625 202.200195312 456.599609375 165.099609375 421.599609375 128 c 0
 393.599609375 97.900390625 364.200195312 84.599609375 326.400390625 84.599609375 c 0
 292.799804688 84.599609375 250.099609375 97.900390625 219.299804688 145.5 c 0
 195.5 181.900390625 179.400390625 239.299804688 179.400390625 326.099609375 c 0
239.599609375 272.900390625 m 0
 239.599609375 266.599609375 239.599609375 260.299804688 240.299804688 254 c 0
 245.900390625 202.200195312 260.599609375 128 325.700195312 128 c 0
 378.900390625 128 402 174.900390625 409 205.700195312 c 0
 411.799804688 221.099609375 412.5 236.5 412.5 252.599609375 c 0
 412.5 262.400390625 412.5 270.799804688 411.799804688 278.5 c 0
 410.400390625 305.799804688 405.5 324 392.900390625 344.299804688 c 0
 371.900390625 377.200195312 345.299804688 380.700195312 329.200195312 380.700195312 c 0
 282.299804688 380.700195312 250.099609375 343.599609375 241.700195312 296 c 4
 240.299804688 288.299804688 239.599609375 280.599609375 239.599609375 272.900390625 c 0
EndSplineSet
EndChar
StartChar: uF26D0
Encoding: 992976 992976 1836
Width: 1000
Flags: MW
LayerCount: 2
Fore
SplineSet
717 -197 m 5
 746 -166 768 -144 797 -96 c 4
 869 23 892 166 892 303 c 4
 892 668 729 784 717 803 c 5
 758 803 l 1
 826 742 950 603 950 304 c 0
 950 2 826 -136 758 -197 c 1
 717 -197 l 5
50 303 m 0
 50 603 173 742 241 803 c 1
 283 803 l 1
 254 772 231 750 202 701 c 0
 131 582 108 440 108 303 c 0
 108 -62 271 -178 283 -197 c 1
 241 -197 l 1
 177 -139 50 -1 50 303 c 0
529.400390625 156.700195312 m 1
 536.400390625 199.400390625 l 1
 559.5 167.900390625 586.799804688 150.400390625 610.599609375 140.599609375 c 0
 637.200195312 129.400390625 660.299804688 128 670.799804688 128 c 0
 697.400390625 128 718.400390625 139.200195312 733.799804688 157.400390625 c 0
 748.5 174.900390625 757.599609375 199.400390625 757.599609375 227.400390625 c 0xe8
 757.599609375 234.400390625 757.599609375 241.400390625 756.200195312 248.400390625 c 0
 752.700195312 272.200195312 740.799804688 293.200195312 724 307.200195312 c 0
 710 319.099609375 691.799804688 326.099609375 668 326.099609375 c 2
 616.200195312 326.099609375 l 1
 616.200195312 369.5 l 1
 656.799804688 372.299804688 661.700195312 373 666.599609375 373.700195312 c 0
 712.799804688 382.099609375 743.599609375 424.799804688 743.599609375 467.5 c 0
 743.599609375 486.400390625 735.900390625 503.200195312 724 514.400390625 c 0
 711.400390625 526.299804688 693.900390625 532.599609375 672.200195312 532.599609375 c 0
 652.599609375 532.599609375 633 527 616.200195312 517.900390625 c 0
 600.099609375 508.799804688 586.099609375 496.200195312 575.599609375 480.099609375 c 0
 571.400390625 473.799804688 567.900390625 466.799804688 564.400390625 459.799804688 c 1
 539.200195312 498.299804688 l 1
 557.400390625 526.299804688 577.700195312 544.5 598 555.700195312 c 0
 628.099609375 572.5 657.5 574.599609375 673.599609375 574.599609375 c 0
 704.400390625 574.599609375 734.5 564.799804688 757.599609375 548 c 0
 783.5 529.099609375 801 501.099609375 801 467.5 c 0xf0
 801 447.900390625 795.400390625 418.5 773 389.799804688 c 0
 761.099609375 375.099609375 745 360.400390625 722.599609375 347.799804688 c 1
 749.900390625 338 771.599609375 324 787 307.200195312 c 0
 809.400390625 283.400390625 820.599609375 254.700195312 820.599609375 226 c 0
 820.599609375 188.900390625 803.099609375 149.700195312 771.599609375 121.700195312 c 4
 746.400390625 99.2998046875 713.5 84.599609375 672.200195312 84.599609375 c 0
 659.599609375 84.599609375 629.5 86 596.599609375 101.400390625 c 0
 574.200195312 111.900390625 551.099609375 129.400390625 529.400390625 156.700195312 c 1
179.400390625 326.099609375 m 0
 179.400390625 396.099609375 199.700195312 459.099609375 234 503.900390625 c 0
 266.900390625 548 313.799804688 574.599609375 367 574.599609375 c 0
 402 574.599609375 423 566.900390625 441.200195312 560.599609375 c 1
 441.200195312 518.599609375 l 1
 422.299804688 524.900390625 402 533.299804688 367 533.299804688 c 0
 328.5 533.299804688 299.799804688 513.700195312 278.799804688 485.700195312 c 0
 253.599609375 452.099609375 240.299804688 405.200195312 238.200195312 366 c 1
 267.599609375 403.099609375 313.099609375 423.400390625 357.200195312 423.400390625 c 0
 392.900390625 423.400390625 413.200195312 407.299804688 432.799804688 380.700195312 c 0
 458.700195312 344.299804688 469.200195312 309.299804688 470.599609375 268.700195312 c 0
 470.599609375 264.5 470.599609375 261 470.599609375 256.799804688 c 0
 470.599609375 202.200195312 456.599609375 165.099609375 421.599609375 128 c 0
 393.599609375 97.900390625 364.200195312 84.599609375 326.400390625 84.599609375 c 0
 292.799804688 84.599609375 250.799804688 97.900390625 220 145.5 c 0
 196.200195312 181.900390625 179.400390625 239.299804688 179.400390625 326.099609375 c 0
239.599609375 272.900390625 m 0
 239.599609375 266.599609375 240.299804688 260.299804688 241 254 c 0
 246.599609375 202.200195312 261.299804688 128 326.400390625 128 c 0
 379.599609375 128 402 174.900390625 409 205.700195312 c 0
 411.799804688 221.099609375 413.200195312 236.5 413.200195312 252.599609375 c 0
 413.200195312 262.400390625 412.5 270.799804688 411.799804688 278.5 c 0
 410.400390625 305.799804688 406.200195312 324 393.599609375 344.299804688 c 0
 372.599609375 377.200195312 345.299804688 380.700195312 329.200195312 380.700195312 c 0
 282.299804688 380.700195312 250.799804688 343.599609375 242.400390625 296 c 4
 241 288.299804688 239.599609375 280.599609375 239.599609375 272.900390625 c 0
EndSplineSet
EndChar
StartChar: uF26D3
Encoding: 992979 992979 1839
Width: 1000
Flags: MW
LayerCount: 2
Fore
SplineSet
717 -197 m 5
 746 -166 768 -144 797 -96 c 4
 869 23 892 166 892 303 c 4
 892 668 729 784 717 803 c 5
 758 803 l 1
 826 742 950 603 950 304 c 0
 950 2 826 -136 758 -197 c 1
 717 -197 l 5
50 303 m 0
 50 603 173 742 241 803 c 1
 283 803 l 1
 254 772 231 750 202 701 c 0
 131 582 108 440 108 303 c 0
 108 -62 271 -178 283 -197 c 1
 241 -197 l 1
 177 -139 50 -1 50 303 c 0
529.400390625 326.099609375 m 0
 529.400390625 396.099609375 549.700195312 459.099609375 584 503.900390625 c 0
 616.900390625 548 663.799804688 574.599609375 717 574.599609375 c 0
 752 574.599609375 773 566.900390625 791.200195312 560.599609375 c 1
 791.200195312 518.599609375 l 1
 772.299804688 524.900390625 752 533.299804688 717 533.299804688 c 0
 678.5 533.299804688 649.799804688 513.700195312 628.799804688 485.700195312 c 0
 603.599609375 452.099609375 590.299804688 405.200195312 588.200195312 366 c 1
 617.599609375 403.099609375 663.099609375 423.400390625 707.200195312 423.400390625 c 0
 742.900390625 423.400390625 763.200195312 407.299804688 782.799804688 380.700195312 c 0
 808.700195312 344.299804688 819.200195312 309.299804688 820.599609375 268.700195312 c 0
 820.599609375 264.5 820.599609375 261 820.599609375 256.799804688 c 0
 820.599609375 202.200195312 806.599609375 165.099609375 771.599609375 128 c 0
 743.599609375 97.900390625 714.200195312 84.599609375 676.400390625 84.599609375 c 0
 642.799804688 84.599609375 600.799804688 97.900390625 570 145.5 c 0
 546.200195312 181.900390625 529.400390625 239.299804688 529.400390625 326.099609375 c 0
589.599609375 272.900390625 m 0
 589.599609375 266.599609375 590.299804688 260.299804688 591 254 c 0
 596.599609375 202.200195312 611.299804688 128 676.400390625 128 c 0
 729.599609375 128 752 174.900390625 759 205.700195312 c 0
 761.799804688 221.099609375 763.200195312 236.5 763.200195312 252.599609375 c 0
 763.200195312 262.400390625 762.5 270.799804688 761.799804688 278.5 c 0
 760.400390625 305.799804688 756.200195312 324 743.599609375 344.299804688 c 0
 722.599609375 377.200195312 695.299804688 380.700195312 679.200195312 380.700195312 c 0
 632.299804688 380.700195312 600.799804688 343.599609375 592.400390625 296 c 4
 591 288.299804688 589.599609375 280.599609375 589.599609375 272.900390625 c 0
179.400390625 326.099609375 m 0
 179.400390625 396.099609375 199.700195312 459.099609375 234 503.900390625 c 0
 266.900390625 548 313.799804688 574.599609375 367 574.599609375 c 0
 402 574.599609375 423 566.900390625 441.200195312 560.599609375 c 1
 441.200195312 518.599609375 l 1
 422.299804688 524.900390625 402 533.299804688 367 533.299804688 c 0
 328.5 533.299804688 299.799804688 513.700195312 278.799804688 485.700195312 c 0
 253.599609375 452.099609375 240.299804688 405.200195312 238.200195312 366 c 1
 267.599609375 403.099609375 313.099609375 423.400390625 357.200195312 423.400390625 c 0
 392.900390625 423.400390625 413.200195312 407.299804688 432.799804688 380.700195312 c 0
 458.700195312 344.299804688 469.200195312 309.299804688 470.599609375 268.700195312 c 0
 470.599609375 264.5 470.599609375 261 470.599609375 256.799804688 c 0
 470.599609375 202.200195312 456.599609375 165.099609375 421.599609375 128 c 0
 393.599609375 97.900390625 364.200195312 84.599609375 326.400390625 84.599609375 c 0
 292.799804688 84.599609375 250.799804688 97.900390625 220 145.5 c 0
 196.200195312 181.900390625 179.400390625 239.299804688 179.400390625 326.099609375 c 0
239.599609375 272.900390625 m 0
 239.599609375 266.599609375 240.299804688 260.299804688 241 254 c 0
 246.599609375 202.200195312 261.299804688 128 326.400390625 128 c 0
 379.599609375 128 402 174.900390625 409 205.700195312 c 0
 411.799804688 221.099609375 413.200195312 236.5 413.200195312 252.599609375 c 0
 413.200195312 262.400390625 412.5 270.799804688 411.799804688 278.5 c 0
 410.400390625 305.799804688 406.200195312 324 393.599609375 344.299804688 c 0
 372.599609375 377.200195312 345.299804688 380.700195312 329.200195312 380.700195312 c 0
 282.299804688 380.700195312 250.799804688 343.599609375 242.400390625 296 c 4
 241 288.299804688 239.599609375 280.599609375 239.599609375 272.900390625 c 0
EndSplineSet
EndChar
StartChar: uF26D5
Encoding: 992981 992981 1841
Width: 1000
Flags: MW
LayerCount: 2
Fore
SplineSet
717 -197 m 5
 746 -166 768 -144 797 -96 c 4
 869 23 892 166 892 303 c 4
 892 668 729 784 717 803 c 5
 758 803 l 1
 826 742 950 603 950 304 c 0
 950 2 826 -136 758 -197 c 1
 717 -197 l 5
50 303 m 0
 50 603 173 742 241 803 c 1
 283 803 l 1
 254 772 231 750 202 701 c 0
 131 582 108 440 108 303 c 0
 108 -62 271 -178 283 -197 c 1
 241 -197 l 1
 177 -139 50 -1 50 303 c 0
529.400390625 226 m 0xf2
 529.400390625 274.299804688 557.400390625 323.299804688 626 347.799804688 c 1
 571.400390625 363.900390625 539.200195312 406.599609375 539.200195312 451.400390625 c 0
 539.200195312 516.5 597.299804688 574.599609375 675 574.599609375 c 0
 676.400390625 574.599609375 676.400390625 574.599609375 677.799804688 574.599609375 c 4
 749.900390625 573.200195312 810.799804688 518.599609375 810.799804688 452.099609375 c 0xec
 810.799804688 410.099609375 784.200195312 369.5 722.599609375 347.799804688 c 1
 767.400390625 333.799804688 820.599609375 293.200195312 820.599609375 225.299804688 c 0
 820.599609375 151.799804688 757.599609375 84.599609375 675 84.599609375 c 0
 592.400390625 84.599609375 529.400390625 151.099609375 529.400390625 226 c 0xf2
585.400390625 226.700195312 m 0
 585.400390625 191.700195312 598 163.700195312 619 146.900390625 c 0
 633.700195312 135 652.599609375 128 675 128 c 0
 694.599609375 128 715.599609375 134.299804688 732.400390625 148.299804688 c 0
 750.599609375 163.700195312 763.200195312 189.599609375 763.200195312 227.400390625 c 0xf2
 763.200195312 233.700195312 762.5 240 761.799804688 246.299804688 c 0
 758.299804688 270.099609375 748.5 289.700195312 733.799804688 303.700195312 c 0
 718.400390625 318.400390625 698.099609375 326.099609375 673.599609375 326.099609375 c 0
 656.799804688 326.099609375 636.5 320.5 620.400390625 307.900390625 c 0
 603.599609375 294.599609375 590.299804688 274.299804688 586.799804688 243.5 c 0
 586.099609375 237.900390625 585.400390625 232.299804688 585.400390625 226.700195312 c 0
588.200195312 451.400390625 m 0
 588.200195312 425.5 597.299804688 404.5 613.400390625 390.5 c 0
 628.799804688 377.200195312 649.799804688 369.5 673.599609375 369.5 c 0
 697.400390625 369.5 717.700195312 376.5 732.400390625 388.400390625 c 0
 750.599609375 403.099609375 761.799804688 424.799804688 761.799804688 451.400390625 c 0
 761.799804688 458.400390625 760.400390625 465.400390625 759 471.700195312 c 0
 754.799804688 490.599609375 744.299804688 506.700195312 729.599609375 517.200195312 c 0
 714.900390625 527.700195312 696.700195312 533.299804688 675 533.299804688 c 0xec
 651.900390625 533.299804688 630.900390625 527 616.200195312 515.099609375 c 0
 600.799804688 502.5 591 485 588.200195312 463.299804688 c 0
 587.5 459.799804688 588.200195312 455.599609375 588.200195312 451.400390625 c 0
179.400390625 326.099609375 m 0
 179.400390625 396.099609375 199.700195312 459.099609375 234 503.900390625 c 0
 266.900390625 548 313.799804688 574.599609375 367 574.599609375 c 0
 402 574.599609375 423 566.900390625 441.200195312 560.599609375 c 1
 441.200195312 518.599609375 l 1
 422.299804688 524.900390625 402 533.299804688 367 533.299804688 c 0
 328.5 533.299804688 299.799804688 513.700195312 278.799804688 485.700195312 c 0
 253.599609375 452.099609375 240.299804688 405.200195312 238.200195312 366 c 1
 267.599609375 403.099609375 313.099609375 423.400390625 357.200195312 423.400390625 c 0
 392.900390625 423.400390625 413.200195312 407.299804688 432.799804688 380.700195312 c 0
 458.700195312 344.299804688 469.200195312 309.299804688 470.599609375 268.700195312 c 0
 470.599609375 264.5 470.599609375 261 470.599609375 256.799804688 c 0
 470.599609375 202.200195312 456.599609375 165.099609375 421.599609375 128 c 0
 393.599609375 97.900390625 364.200195312 84.599609375 326.400390625 84.599609375 c 0
 292.799804688 84.599609375 250.799804688 97.900390625 220 145.5 c 0
 196.200195312 181.900390625 179.400390625 239.299804688 179.400390625 326.099609375 c 0
239.599609375 272.900390625 m 0
 239.599609375 266.599609375 240.299804688 260.299804688 241 254 c 0
 246.599609375 202.200195312 261.299804688 128 326.400390625 128 c 0
 379.599609375 128 402 174.900390625 409 205.700195312 c 0
 411.799804688 221.099609375 413.200195312 236.5 413.200195312 252.599609375 c 0
 413.200195312 262.400390625 412.5 270.799804688 411.799804688 278.5 c 0
 410.400390625 305.799804688 406.200195312 324 393.599609375 344.299804688 c 0
 372.599609375 377.200195312 345.299804688 380.700195312 329.200195312 380.700195312 c 0
 282.299804688 380.700195312 250.799804688 343.599609375 242.400390625 296 c 4
 241 288.299804688 239.599609375 280.599609375 239.599609375 272.900390625 c 0
EndSplineSet
EndChar
StartChar: uF26E0
Encoding: 992992 992992 1852
Width: 1000
Flags: MW
LayerCount: 2
Fore
SplineSet
717 -197 m 5
 746 -166 768 -144 797 -96 c 4
 869 23 892 166 892 303 c 4
 892 668 729 784 717 803 c 5
 758 803 l 1
 826 742 950 603 950 304 c 0
 950 2 826 -136 758 -197 c 1
 717 -197 l 5
50 303 m 0
 50 603 173 742 241 803 c 1
 283 803 l 1
 254 772 231 750 202 701 c 0
 131 582 108 440 108 303 c 0
 108 -62 271 -178 283 -197 c 1
 241 -197 l 1
 177 -139 50 -1 50 303 c 0
530.099609375 404.5 m 0
 530.099609375 455.599609375 543.400390625 494.099609375 580.5 532.599609375 c 0
 609.900390625 562 638.599609375 574.599609375 677.099609375 574.599609375 c 0
 704.400390625 574.599609375 738 565.5 766 534.700195312 c 0
 796.799804688 500.400390625 820.599609375 439.5 820.599609375 333.099609375 c 0
 820.599609375 254 796.099609375 186.799804688 759 142.700195312 c 0
 728.200195312 105.599609375 687.599609375 84.599609375 644.200195312 84.599609375 c 0
 600.799804688 84.599609375 576.299804688 97.900390625 551.099609375 116.799804688 c 1
 572.799804688 154.599609375 l 1
 588.900390625 143.400390625 606.400390625 128 645.599609375 128 c 0
 679.200195312 128 709.299804688 146.900390625 731 183.299804688 c 0
 744.299804688 206.400390625 754.799804688 235.799804688 759.700195312 271.5 c 0
 760.400390625 278.5 761.099609375 285.5 761.799804688 293.200195312 c 1
 731 256.799804688 691.099609375 235.099609375 643.5 235.099609375 c 0
 607.099609375 235.099609375 586.799804688 251.200195312 567.900390625 277.799804688 c 0
 538.5 318.400390625 530.099609375 356.200195312 530.099609375 404.5 c 0
587.5 404.5 m 0
 587.5 366.700195312 589.599609375 340.099609375 609.900390625 310.700195312 c 0
 623.200195312 291.799804688 641.400390625 278.5 670.799804688 278.5 c 0
 697.400390625 278.5 720.5 291.099609375 735.900390625 310.700195312 c 4
 751.299804688 330.299804688 760.400390625 357.599609375 760.400390625 387 c 0
 760.400390625 433.200195312 747.099609375 532.599609375 677.799804688 532.599609375 c 0
 658.200195312 532.599609375 642.099609375 526.299804688 629.5 516.5 c 0
 607.799804688 499.700195312 595.900390625 473.799804688 591.700195312 454.900390625 c 0
 587.5 438.099609375 587.5 422 587.5 404.5 c 0
179.400390625 509.5 m 1
 179.400390625 559.200195312 l 1
 470.599609375 558.5 l 1
 470.599609375 513 l 1
 371.900390625 399.599609375 315.900390625 245.599609375 315.900390625 92.2998046875 c 1
 256.400390625 92.2998046875 l 1
 256.400390625 231.599609375 304 382.799804688 423 509.5 c 1
 179.400390625 509.5 l 1
EndSplineSet
EndChar
StartChar: uF26E2
Encoding: 992994 992994 1854
Width: 1000
Flags: MW
LayerCount: 2
Fore
SplineSet
717 -197 m 5
 746 -166 768 -144 797 -96 c 4
 869 23 892 166 892 303 c 4
 892 668 729 784 717 803 c 5
 758 803 l 1
 826 742 950 603 950 304 c 0
 950 2 826 -136 758 -197 c 1
 717 -197 l 5
50 303 m 0
 50 603 173 742 241 803 c 1
 283 803 l 1
 254 772 231 750 202 701 c 0
 131 582 108 440 108 303 c 0
 108 -62 271 -178 283 -197 c 1
 241 -197 l 1
 177 -139 50 -1 50 303 c 0
574.900390625 487.799804688 m 1
 574.900390625 528.400390625 l 1
 655.400390625 528.400390625 689.700195312 557.099609375 708.599609375 574.599609375 c 1
 721.900390625 574.599609375 l 1
 721.900390625 141.299804688 l 1
 809.400390625 141.299804688 l 1
 809.400390625 100 l 1
 578.400390625 100 l 1
 578.400390625 141.299804688 l 1
 665.900390625 141.299804688 l 1
 665.900390625 503.900390625 l 1
 641.400390625 494.099609375 616.900390625 487.799804688 574.900390625 487.799804688 c 1
190.599609375 226 m 0xf2
 190.599609375 274.299804688 219.299804688 323.299804688 287.900390625 347.799804688 c 1
 233.299804688 363.900390625 200.400390625 406.599609375 200.400390625 451.400390625 c 0
 200.400390625 516.5 258.5 574.599609375 336.200195312 574.599609375 c 0
 337.599609375 574.599609375 338.299804688 574.599609375 339.700195312 574.599609375 c 4
 411.799804688 573.200195312 472 518.599609375 472 452.099609375 c 0xec
 472 410.099609375 446.099609375 369.5 384.5 347.799804688 c 1
 429.299804688 333.799804688 481.799804688 293.200195312 481.799804688 225.299804688 c 0
 481.799804688 151.799804688 418.799804688 84.599609375 336.200195312 84.599609375 c 0
 253.599609375 84.599609375 190.599609375 151.099609375 190.599609375 226 c 0xf2
247.299804688 226.700195312 m 0
 247.299804688 191.700195312 259.200195312 163.700195312 280.200195312 146.900390625 c 0
 294.900390625 135 313.799804688 128 336.200195312 128 c 0
 355.799804688 128 376.799804688 134.299804688 393.599609375 148.299804688 c 0
 411.799804688 163.700195312 425.099609375 189.599609375 425.099609375 227.400390625 c 0xf2
 425.099609375 233.700195312 424.400390625 240 423.700195312 246.299804688 c 0
 420.200195312 270.099609375 410.400390625 289.700195312 395.700195312 303.700195312 c 0
 380.299804688 318.400390625 360 326.099609375 335.5 326.099609375 c 0
 318.700195312 326.099609375 298.400390625 320.5 282.299804688 307.900390625 c 0
 265.5 294.599609375 251.5 274.299804688 248 243.5 c 0
 247.299804688 237.900390625 247.299804688 232.299804688 247.299804688 226.700195312 c 0
249.400390625 451.400390625 m 0
 249.400390625 425.5 259.200195312 404.5 275.299804688 390.5 c 0
 290.700195312 377.200195312 311.700195312 369.5 335.5 369.5 c 0
 359.299804688 369.5 379.599609375 376.5 394.299804688 388.400390625 c 0
 412.5 403.099609375 423 424.799804688 423 451.400390625 c 0
 423 458.400390625 422.299804688 465.400390625 420.900390625 471.700195312 c 0
 416.700195312 490.599609375 406.200195312 506.700195312 391.5 517.200195312 c 0
 376.799804688 527.700195312 357.900390625 533.299804688 336.200195312 533.299804688 c 0xec
 313.099609375 533.299804688 292.799804688 527 278.099609375 515.099609375 c 0
 262.700195312 502.5 252.900390625 485 250.099609375 463.299804688 c 0
 249.400390625 459.799804688 249.400390625 455.599609375 249.400390625 451.400390625 c 0
EndSplineSet
EndChar
StartChar: uF26E3
Encoding: 992995 992995 1855
Width: 1000
Flags: MW
LayerCount: 2
Fore
SplineSet
717 -197 m 5
 746 -166 768 -144 797 -96 c 4
 869 23 892 166 892 303 c 4
 892 668 729 784 717 803 c 5
 758 803 l 1
 826 742 950 603 950 304 c 0
 950 2 826 -136 758 -197 c 1
 717 -197 l 5
50 303 m 0
 50 603 173 742 241 803 c 1
 283 803 l 1
 254 772 231 750 202 701 c 0
 131 582 108 440 108 303 c 0
 108 -62 271 -178 283 -197 c 1
 241 -197 l 1
 177 -139 50 -1 50 303 c 0
532.200195312 459.799804688 m 1
 549.700195312 518.599609375 586.799804688 574.599609375 668 574.599609375 c 0
 761.099609375 574.599609375 817.799804688 503.900390625 817.799804688 424.799804688 c 0
 817.799804688 356.900390625 773.700195312 319.099609375 700.900390625 254.700195312 c 0
 677.799804688 234.400390625 644.200195312 202.200195312 588.200195312 149 c 1
 817.799804688 149.700195312 l 1
 817.799804688 100 l 1
 537.799804688 100 l 1
 537.799804688 145.5 l 1
 628.799804688 235.799804688 l 2
 696 298.099609375 759.700195312 347.799804688 759.700195312 422.700195312 c 0
 759.700195312 481.5 719.099609375 529.099609375 658.900390625 529.099609375 c 0
 573.5 529.099609375 565.099609375 422.700195312 562.299804688 421.299804688 c 1
 532.200195312 459.799804688 l 1
182.200195312 226 m 0xf2
 182.200195312 274.299804688 210.900390625 323.299804688 279.5 347.799804688 c 1
 224.900390625 363.900390625 192 406.599609375 192 451.400390625 c 0
 192 516.5 250.099609375 574.599609375 327.799804688 574.599609375 c 0
 329.200195312 574.599609375 329.900390625 574.599609375 331.299804688 574.599609375 c 4
 403.400390625 573.200195312 463.599609375 518.599609375 463.599609375 452.099609375 c 0xec
 463.599609375 410.099609375 437.700195312 369.5 376.099609375 347.799804688 c 1
 420.900390625 333.799804688 473.400390625 293.200195312 473.400390625 225.299804688 c 0
 473.400390625 151.799804688 410.400390625 84.599609375 327.799804688 84.599609375 c 0
 245.200195312 84.599609375 182.200195312 151.099609375 182.200195312 226 c 0xf2
238.900390625 226.700195312 m 0
 238.900390625 191.700195312 250.799804688 163.700195312 271.799804688 146.900390625 c 0
 286.5 135 305.400390625 128 327.799804688 128 c 0
 347.400390625 128 368.400390625 134.299804688 385.200195312 148.299804688 c 0
 403.400390625 163.700195312 416.700195312 189.599609375 416.700195312 227.400390625 c 0xf2
 416.700195312 233.700195312 416 240 415.299804688 246.299804688 c 0
 411.799804688 270.099609375 402 289.700195312 387.299804688 303.700195312 c 0
 371.900390625 318.400390625 351.599609375 326.099609375 327.099609375 326.099609375 c 0
 310.299804688 326.099609375 290 320.5 273.900390625 307.900390625 c 0
 257.099609375 294.599609375 243.099609375 274.299804688 239.599609375 243.5 c 0
 238.900390625 237.900390625 238.900390625 232.299804688 238.900390625 226.700195312 c 0
241 451.400390625 m 0
 241 425.5 250.799804688 404.5 266.900390625 390.5 c 0
 282.299804688 377.200195312 303.299804688 369.5 327.099609375 369.5 c 0
 350.900390625 369.5 371.200195312 376.5 385.900390625 388.400390625 c 0
 404.099609375 403.099609375 414.599609375 424.799804688 414.599609375 451.400390625 c 0
 414.599609375 458.400390625 413.900390625 465.400390625 412.5 471.700195312 c 0
 408.299804688 490.599609375 397.799804688 506.700195312 383.099609375 517.200195312 c 0
 368.400390625 527.700195312 349.5 533.299804688 327.799804688 533.299804688 c 0xec
 304.700195312 533.299804688 284.400390625 527 269.700195312 515.099609375 c 0
 254.299804688 502.5 244.5 485 241.700195312 463.299804688 c 0
 241 459.799804688 241 455.599609375 241 451.400390625 c 0
EndSplineSet
EndChar
StartChar: uF26E4
Encoding: 992996 992996 1856
Width: 1000
Flags: MW
LayerCount: 2
Fore
SplineSet
717 -197 m 5
 746 -166 768 -144 797 -96 c 4
 869 23 892 166 892 303 c 4
 892 668 729 784 717 803 c 5
 758 803 l 1
 826 742 950 603 950 304 c 0
 950 2 826 -136 758 -197 c 1
 717 -197 l 5
50 303 m 0
 50 603 173 742 241 803 c 1
 283 803 l 1
 254 772 231 750 202 701 c 0
 131 582 108 440 108 303 c 0
 108 -62 271 -178 283 -197 c 1
 241 -197 l 1
 177 -139 50 -1 50 303 c 0
529.400390625 156.700195312 m 1
 537.099609375 199.400390625 l 1
 560.200195312 167.900390625 587.5 150.400390625 611.299804688 140.599609375 c 0
 637.900390625 129.400390625 661 128 671.5 128 c 0
 698.099609375 128 719.099609375 139.200195312 734.5 157.400390625 c 0
 749.200195312 174.900390625 757.599609375 199.400390625 757.599609375 227.400390625 c 0xe8
 757.599609375 234.400390625 757.599609375 241.400390625 756.200195312 248.400390625 c 0
 752.700195312 272.200195312 741.5 293.200195312 724.700195312 307.200195312 c 0
 710.700195312 319.099609375 691.799804688 326.099609375 668 326.099609375 c 2
 616.900390625 326.099609375 l 1
 616.900390625 369.5 l 1
 657.5 372.299804688 662.400390625 373 667.299804688 373.700195312 c 0
 713.5 382.099609375 743.599609375 424.799804688 743.599609375 467.5 c 0
 743.599609375 486.400390625 736.599609375 503.200195312 724.700195312 514.400390625 c 0
 712.099609375 526.299804688 694.599609375 532.599609375 672.900390625 532.599609375 c 0
 653.299804688 532.599609375 633.700195312 527 616.900390625 517.900390625 c 0
 600.799804688 508.799804688 586.099609375 496.200195312 575.599609375 480.099609375 c 0
 571.400390625 473.799804688 567.900390625 466.799804688 564.400390625 459.799804688 c 1
 539.200195312 498.299804688 l 1
 557.400390625 526.299804688 578.400390625 544.5 598.700195312 555.700195312 c 0
 628.799804688 572.5 658.200195312 574.599609375 674.299804688 574.599609375 c 0
 705.099609375 574.599609375 735.200195312 564.799804688 758.299804688 548 c 0
 784.200195312 529.099609375 801 501.099609375 801 467.5 c 0xf0
 801 447.900390625 796.099609375 418.5 773.700195312 389.799804688 c 0
 761.799804688 375.099609375 745.700195312 360.400390625 723.299804688 347.799804688 c 1
 750.599609375 338 772.299804688 324 787.700195312 307.200195312 c 0
 810.099609375 283.400390625 820.599609375 254.700195312 820.599609375 226 c 0
 820.599609375 188.900390625 803.799804688 149.700195312 772.299804688 121.700195312 c 4
 747.099609375 99.2998046875 713.5 84.599609375 672.200195312 84.599609375 c 0
 659.599609375 84.599609375 630.200195312 86 597.299804688 101.400390625 c 0
 574.900390625 111.900390625 551.099609375 129.400390625 529.400390625 156.700195312 c 1
179.400390625 226 m 0xf2
 179.400390625 274.299804688 208.099609375 323.299804688 276.700195312 347.799804688 c 1
 222.099609375 363.900390625 189.200195312 406.599609375 189.200195312 451.400390625 c 0
 189.200195312 516.5 247.299804688 574.599609375 325 574.599609375 c 0
 326.400390625 574.599609375 327.099609375 574.599609375 328.5 574.599609375 c 4
 400.599609375 573.200195312 460.799804688 518.599609375 460.799804688 452.099609375 c 0xec
 460.799804688 410.099609375 434.900390625 369.5 373.299804688 347.799804688 c 1
 418.099609375 333.799804688 470.599609375 293.200195312 470.599609375 225.299804688 c 0
 470.599609375 151.799804688 407.599609375 84.599609375 325 84.599609375 c 0
 242.400390625 84.599609375 179.400390625 151.099609375 179.400390625 226 c 0xf2
236.099609375 226.700195312 m 0
 236.099609375 191.700195312 248 163.700195312 269 146.900390625 c 0
 283.700195312 135 302.599609375 128 325 128 c 0
 344.599609375 128 365.599609375 134.299804688 382.400390625 148.299804688 c 0
 400.599609375 163.700195312 413.900390625 189.599609375 413.900390625 227.400390625 c 0xf2
 413.900390625 233.700195312 413.200195312 240 412.5 246.299804688 c 0
 409 270.099609375 399.200195312 289.700195312 384.5 303.700195312 c 0
 369.099609375 318.400390625 348.799804688 326.099609375 324.299804688 326.099609375 c 0
 307.5 326.099609375 287.200195312 320.5 271.099609375 307.900390625 c 0
 254.299804688 294.599609375 240.299804688 274.299804688 236.799804688 243.5 c 0
 236.099609375 237.900390625 236.099609375 232.299804688 236.099609375 226.700195312 c 0
238.200195312 451.400390625 m 0
 238.200195312 425.5 248 404.5 264.099609375 390.5 c 0
 279.5 377.200195312 300.5 369.5 324.299804688 369.5 c 0
 348.099609375 369.5 368.400390625 376.5 383.099609375 388.400390625 c 0
 401.299804688 403.099609375 411.799804688 424.799804688 411.799804688 451.400390625 c 0
 411.799804688 458.400390625 411.099609375 465.400390625 409.700195312 471.700195312 c 0
 405.5 490.599609375 395 506.700195312 380.299804688 517.200195312 c 0
 365.599609375 527.700195312 346.700195312 533.299804688 325 533.299804688 c 0xec
 301.900390625 533.299804688 281.599609375 527 266.900390625 515.099609375 c 0
 251.5 502.5 241.700195312 485 238.900390625 463.299804688 c 0
 238.200195312 459.799804688 238.200195312 455.599609375 238.200195312 451.400390625 c 0
EndSplineSet
EndChar
StartChar: uF26E8
Encoding: 993000 993000 1860
Width: 1000
Flags: MW
LayerCount: 2
Fore
SplineSet
717 -197 m 5
 746 -166 768 -144 797 -96 c 4
 869 23 892 166 892 303 c 4
 892 668 729 784 717 803 c 5
 758 803 l 1
 826 742 950 603 950 304 c 0
 950 2 826 -136 758 -197 c 1
 717 -197 l 5
50 303 m 0
 50 603 173 742 241 803 c 1
 283 803 l 1
 254 772 231 750 202 701 c 0
 131 582 108 440 108 303 c 0
 108 -62 271 -178 283 -197 c 1
 241 -197 l 1
 177 -139 50 -1 50 303 c 0
529.400390625 509.5 m 1
 529.400390625 559.200195312 l 1
 820.599609375 558.5 l 1
 820.599609375 513 l 1
 721.900390625 399.599609375 665.900390625 245.599609375 665.900390625 92.2998046875 c 1
 606.400390625 92.2998046875 l 1
 606.400390625 231.599609375 654 382.799804688 773 509.5 c 1
 529.400390625 509.5 l 1
179.400390625 226 m 0xf2
 179.400390625 274.299804688 208.099609375 323.299804688 276.700195312 347.799804688 c 1
 222.099609375 363.900390625 189.200195312 406.599609375 189.200195312 451.400390625 c 0
 189.200195312 516.5 247.299804688 574.599609375 325 574.599609375 c 0
 326.400390625 574.599609375 327.099609375 574.599609375 328.5 574.599609375 c 4
 400.599609375 573.200195312 460.799804688 518.599609375 460.799804688 452.099609375 c 0xec
 460.799804688 410.099609375 434.900390625 369.5 373.299804688 347.799804688 c 1
 418.099609375 333.799804688 470.599609375 293.200195312 470.599609375 225.299804688 c 0
 470.599609375 151.799804688 407.599609375 84.599609375 325 84.599609375 c 0
 242.400390625 84.599609375 179.400390625 151.099609375 179.400390625 226 c 0xf2
236.099609375 226.700195312 m 0
 236.099609375 191.700195312 248 163.700195312 269 146.900390625 c 0
 283.700195312 135 302.599609375 128 325 128 c 0
 344.599609375 128 365.599609375 134.299804688 382.400390625 148.299804688 c 0
 400.599609375 163.700195312 413.900390625 189.599609375 413.900390625 227.400390625 c 0xf2
 413.900390625 233.700195312 413.200195312 240 412.5 246.299804688 c 0
 409 270.099609375 399.200195312 289.700195312 384.5 303.700195312 c 0
 369.099609375 318.400390625 348.799804688 326.099609375 324.299804688 326.099609375 c 0
 307.5 326.099609375 287.200195312 320.5 271.099609375 307.900390625 c 0
 254.299804688 294.599609375 240.299804688 274.299804688 236.799804688 243.5 c 0
 236.099609375 237.900390625 236.099609375 232.299804688 236.099609375 226.700195312 c 0
238.200195312 451.400390625 m 0
 238.200195312 425.5 248 404.5 264.099609375 390.5 c 0
 279.5 377.200195312 300.5 369.5 324.299804688 369.5 c 0
 348.099609375 369.5 368.400390625 376.5 383.099609375 388.400390625 c 0
 401.299804688 403.099609375 411.799804688 424.799804688 411.799804688 451.400390625 c 0
 411.799804688 458.400390625 411.099609375 465.400390625 409.700195312 471.700195312 c 0
 405.5 490.599609375 395 506.700195312 380.299804688 517.200195312 c 0
 365.599609375 527.700195312 346.700195312 533.299804688 325 533.299804688 c 0xec
 301.900390625 533.299804688 281.599609375 527 266.900390625 515.099609375 c 0
 251.5 502.5 241.700195312 485 238.900390625 463.299804688 c 0
 238.200195312 459.799804688 238.200195312 455.599609375 238.200195312 451.400390625 c 0
EndSplineSet
EndChar
StartChar: uF26EC
Encoding: 993004 993004 1864
Width: 1000
Flags: MW
LayerCount: 2
Fore
SplineSet
717 -197 m 5
 746 -166 768 -144 797 -96 c 4
 869 23 892 166 892 303 c 4
 892 668 729 784 717 803 c 5
 758 803 l 1
 826 742 950 603 950 304 c 0
 950 2 826 -136 758 -197 c 1
 717 -197 l 5
50 303 m 0
 50 603 173 742 241 803 c 1
 283 803 l 1
 254 772 231 750 202 701 c 0
 131 582 108 440 108 303 c 0
 108 -62 271 -178 283 -197 c 1
 241 -197 l 1
 177 -139 50 -1 50 303 c 0
574.200195312 487.799804688 m 1
 574.200195312 528.400390625 l 1
 654.700195312 528.400390625 689.700195312 557.099609375 708.599609375 574.599609375 c 1
 721.200195312 574.599609375 l 1
 721.200195312 141.299804688 l 1
 809.400390625 141.299804688 l 1
 809.400390625 100 l 1
 578.400390625 100 l 1
 578.400390625 141.299804688 l 1
 665.200195312 141.299804688 l 1
 665.200195312 503.900390625 l 1
 640.700195312 494.099609375 616.200195312 487.799804688 574.200195312 487.799804688 c 1
190.599609375 404.5 m 0
 190.599609375 455.599609375 203.900390625 494.099609375 241 532.599609375 c 0
 270.400390625 562 299.099609375 574.599609375 337.599609375 574.599609375 c 0
 364.900390625 574.599609375 399.200195312 565.5 427.200195312 534.700195312 c 0
 458 500.400390625 481.799804688 439.5 481.799804688 333.099609375 c 0
 481.799804688 254 457.299804688 186.799804688 420.200195312 142.700195312 c 0
 389.400390625 105.599609375 348.799804688 84.599609375 305.400390625 84.599609375 c 0
 262 84.599609375 236.799804688 97.900390625 211.599609375 116.799804688 c 1
 234 154.599609375 l 1
 250.099609375 143.400390625 267.599609375 128 306.799804688 128 c 0
 340.400390625 128 370.5 146.900390625 392.200195312 183.299804688 c 0
 405.5 206.400390625 415.299804688 235.799804688 420.200195312 271.5 c 0
 420.900390625 278.5 422.299804688 285.5 423 293.200195312 c 1
 392.200195312 256.799804688 351.599609375 235.099609375 304 235.099609375 c 0
 267.599609375 235.099609375 247.299804688 251.200195312 228.400390625 277.799804688 c 0
 199 318.400390625 190.599609375 356.200195312 190.599609375 404.5 c 0
248 404.5 m 0
 248 366.700195312 250.099609375 340.099609375 270.400390625 310.700195312 c 0
 283.700195312 291.799804688 302.599609375 278.5 332 278.5 c 0
 358.599609375 278.5 381 291.099609375 396.400390625 310.700195312 c 4
 411.799804688 330.299804688 421.599609375 357.599609375 421.599609375 387 c 0
 421.599609375 433.200195312 408.299804688 532.599609375 339 532.599609375 c 0
 319.400390625 532.599609375 302.599609375 526.299804688 290 516.5 c 0
 268.299804688 499.700195312 256.400390625 473.799804688 252.200195312 454.900390625 c 0
 248 438.099609375 248 422 248 404.5 c 0
EndSplineSet
EndChar
StartChar: uF26ED
Encoding: 993005 993005 1865
Width: 1000
Flags: MW
LayerCount: 2
Fore
SplineSet
717 -197 m 5
 746 -166 768 -144 797 -96 c 4
 869 23 892 166 892 303 c 4
 892 668 729 784 717 803 c 5
 758 803 l 1
 826 742 950 603 950 304 c 0
 950 2 826 -136 758 -197 c 1
 717 -197 l 5
50 303 m 0
 50 603 173 742 241 803 c 1
 283 803 l 1
 254 772 231 750 202 701 c 0
 131 582 108 440 108 303 c 0
 108 -62 271 -178 283 -197 c 1
 241 -197 l 1
 177 -139 50 -1 50 303 c 0
532.200195312 459.799804688 m 1
 549.700195312 518.599609375 586.799804688 574.599609375 668 574.599609375 c 0
 761.099609375 574.599609375 817.799804688 503.900390625 817.799804688 424.799804688 c 0
 817.799804688 356.900390625 773 319.099609375 700.200195312 254.700195312 c 0
 677.099609375 234.400390625 644.200195312 202.200195312 588.200195312 149 c 1
 817.799804688 149.700195312 l 1
 817.799804688 100 l 1
 537.799804688 100 l 1
 537.799804688 145.5 l 1
 628.799804688 235.799804688 l 2
 696 298.099609375 759 347.799804688 759 422.700195312 c 0
 759 481.5 718.400390625 529.099609375 658.200195312 529.099609375 c 0
 572.799804688 529.099609375 564.400390625 422.700195312 561.599609375 421.299804688 c 1
 532.200195312 459.799804688 l 1
182.200195312 404.5 m 0
 182.200195312 455.599609375 195.5 494.099609375 232.599609375 532.599609375 c 0
 262 562 290.700195312 574.599609375 329.200195312 574.599609375 c 0
 356.5 574.599609375 390.799804688 565.5 418.799804688 534.700195312 c 0
 449.599609375 500.400390625 473.400390625 439.5 473.400390625 333.099609375 c 0
 473.400390625 254 448.900390625 186.799804688 411.799804688 142.700195312 c 0
 381 105.599609375 340.400390625 84.599609375 297 84.599609375 c 0
 253.599609375 84.599609375 228.400390625 97.900390625 203.200195312 116.799804688 c 1
 225.599609375 154.599609375 l 1
 241.700195312 143.400390625 259.200195312 128 298.400390625 128 c 0
 332 128 362.099609375 146.900390625 383.799804688 183.299804688 c 0
 397.099609375 206.400390625 406.900390625 235.799804688 411.799804688 271.5 c 0
 412.5 278.5 413.900390625 285.5 414.599609375 293.200195312 c 1
 383.799804688 256.799804688 343.200195312 235.099609375 295.599609375 235.099609375 c 0
 259.200195312 235.099609375 238.900390625 251.200195312 220 277.799804688 c 0
 190.599609375 318.400390625 182.200195312 356.200195312 182.200195312 404.5 c 0
239.599609375 404.5 m 0
 239.599609375 366.700195312 241.700195312 340.099609375 262 310.700195312 c 0
 275.299804688 291.799804688 294.200195312 278.5 323.599609375 278.5 c 0
 350.200195312 278.5 372.599609375 291.099609375 388 310.700195312 c 4
 403.400390625 330.299804688 413.200195312 357.599609375 413.200195312 387 c 0
 413.200195312 433.200195312 399.900390625 532.599609375 330.599609375 532.599609375 c 0
 311 532.599609375 294.200195312 526.299804688 281.599609375 516.5 c 0
 259.900390625 499.700195312 248 473.799804688 243.799804688 454.900390625 c 0
 239.599609375 438.099609375 239.599609375 422 239.599609375 404.5 c 0
EndSplineSet
EndChar
StartChar: uF26F3
Encoding: 993011 993011 1871
Width: 1000
Flags: MW
LayerCount: 2
Fore
SplineSet
717 -197 m 5
 746 -166 768 -144 797 -96 c 4
 869 23 892 166 892 303 c 4
 892 668 729 784 717 803 c 5
 758 803 l 1
 826 742 950 603 950 304 c 0
 950 2 826 -136 758 -197 c 1
 717 -197 l 5
50 303 m 0
 50 603 173 742 241 803 c 1
 283 803 l 1
 254 772 231 750 202 701 c 0
 131 582 108 440 108 303 c 0
 108 -62 271 -178 283 -197 c 1
 241 -197 l 1
 177 -139 50 -1 50 303 c 0
529.400390625 226 m 0xf2
 529.400390625 274.299804688 557.400390625 323.299804688 626 347.799804688 c 1
 571.400390625 363.900390625 539.200195312 406.599609375 539.200195312 451.400390625 c 0
 539.200195312 516.5 597.299804688 574.599609375 675 574.599609375 c 0
 676.400390625 574.599609375 676.400390625 574.599609375 677.799804688 574.599609375 c 4
 749.900390625 573.200195312 810.799804688 518.599609375 810.799804688 452.099609375 c 0xec
 810.799804688 410.099609375 784.200195312 369.5 722.599609375 347.799804688 c 1
 767.400390625 333.799804688 820.599609375 293.200195312 820.599609375 225.299804688 c 0
 820.599609375 151.799804688 757.599609375 84.599609375 675 84.599609375 c 0
 592.400390625 84.599609375 529.400390625 151.099609375 529.400390625 226 c 0xf2
585.400390625 226.700195312 m 0
 585.400390625 191.700195312 598 163.700195312 619 146.900390625 c 0
 633.700195312 135 652.599609375 128 675 128 c 0
 694.599609375 128 715.599609375 134.299804688 732.400390625 148.299804688 c 0
 750.599609375 163.700195312 763.200195312 189.599609375 763.200195312 227.400390625 c 0xf2
 763.200195312 233.700195312 762.5 240 761.799804688 246.299804688 c 0
 758.299804688 270.099609375 748.5 289.700195312 733.799804688 303.700195312 c 0
 718.400390625 318.400390625 698.099609375 326.099609375 673.599609375 326.099609375 c 0
 656.799804688 326.099609375 636.5 320.5 620.400390625 307.900390625 c 0
 603.599609375 294.599609375 590.299804688 274.299804688 586.799804688 243.5 c 0
 586.099609375 237.900390625 585.400390625 232.299804688 585.400390625 226.700195312 c 0
588.200195312 451.400390625 m 0
 588.200195312 425.5 597.299804688 404.5 613.400390625 390.5 c 0
 628.799804688 377.200195312 649.799804688 369.5 673.599609375 369.5 c 0
 697.400390625 369.5 717.700195312 376.5 732.400390625 388.400390625 c 0
 750.599609375 403.099609375 761.799804688 424.799804688 761.799804688 451.400390625 c 0
 761.799804688 458.400390625 760.400390625 465.400390625 759 471.700195312 c 0
 754.799804688 490.599609375 744.299804688 506.700195312 729.599609375 517.200195312 c 0
 714.900390625 527.700195312 696.700195312 533.299804688 675 533.299804688 c 0xec
 651.900390625 533.299804688 630.900390625 527 616.200195312 515.099609375 c 0
 600.799804688 502.5 591 485 588.200195312 463.299804688 c 0
 587.5 459.799804688 588.200195312 455.599609375 588.200195312 451.400390625 c 0
179.400390625 404.5 m 0
 179.400390625 455.599609375 192.700195312 494.099609375 229.799804688 532.599609375 c 0
 259.200195312 562 287.900390625 574.599609375 326.400390625 574.599609375 c 0
 353.700195312 574.599609375 388 565.5 416 534.700195312 c 0
 446.799804688 500.400390625 470.599609375 439.5 470.599609375 333.099609375 c 0
 470.599609375 254 446.099609375 186.799804688 409 142.700195312 c 0
 378.200195312 105.599609375 337.599609375 84.599609375 294.200195312 84.599609375 c 0
 250.799804688 84.599609375 225.599609375 97.900390625 200.400390625 116.799804688 c 1
 222.799804688 154.599609375 l 1
 238.900390625 143.400390625 256.400390625 128 295.599609375 128 c 0
 329.200195312 128 359.299804688 146.900390625 381 183.299804688 c 0
 394.299804688 206.400390625 404.099609375 235.799804688 409 271.5 c 0
 409.700195312 278.5 411.099609375 285.5 411.799804688 293.200195312 c 1
 381 256.799804688 340.400390625 235.099609375 292.799804688 235.099609375 c 0
 256.400390625 235.099609375 236.099609375 251.200195312 217.200195312 277.799804688 c 0
 187.799804688 318.400390625 179.400390625 356.200195312 179.400390625 404.5 c 0
236.799804688 404.5 m 0
 236.799804688 366.700195312 238.900390625 340.099609375 259.200195312 310.700195312 c 0
 272.5 291.799804688 291.400390625 278.5 320.799804688 278.5 c 0
 347.400390625 278.5 369.799804688 291.099609375 385.200195312 310.700195312 c 4
 400.599609375 330.299804688 410.400390625 357.599609375 410.400390625 387 c 0
 410.400390625 433.200195312 397.099609375 532.599609375 327.799804688 532.599609375 c 0
 308.200195312 532.599609375 291.400390625 526.299804688 278.799804688 516.5 c 0
 257.099609375 499.700195312 245.200195312 473.799804688 241 454.900390625 c 0
 236.799804688 438.099609375 236.799804688 422 236.799804688 404.5 c 0
EndSplineSet
EndChar
StartChar: uF26F9
Encoding: 993017 993017 1877
Width: 1000
Flags: MW
LayerCount: 2
Fore
SplineSet
717 -197 m 5
 746 -166 768 -144 797 -96 c 4
 869 23 892 166 892 303 c 4
 892 668 729 784 717 803 c 5
 758 803 l 1
 826 742 950 603 950 304 c 0
 950 2 826 -136 758 -197 c 1
 717 -197 l 5
50 303 m 0
 50 603 173 742 241 803 c 1
 283 803 l 1
 254 772 231 750 202 701 c 0
 131 582 108 440 108 303 c 0
 108 -62 271 -178 283 -197 c 1
 241 -197 l 1
 177 -139 50 -1 50 303 c 0
207.400390625 100 m 5
 207.400390625 585.799804688 l 5
 270.400390625 585.799804688 l 5
 270.400390625 100 l 5
 207.400390625 100 l 5
346 585.799804688 m 5
 411.099609375 585.799804688 l 5
 518.200195312 310 l 6
 553.900390625 214.099609375 566.5 181.900390625 574.900390625 149 c 5
 579.099609375 178.400390625 621.799804688 282 629.5 306.5 c 6
 738 585.799804688 l 5
 792.599609375 585.799804688 l 5
 601.5 100 l 5
 537.099609375 100 l 5
 346 585.799804688 l 5
EndSplineSet
EndChar
StartChar: uF26FA
Encoding: 993018 993018 1878
Width: 1000
Flags: MW
LayerCount: 2
Fore
SplineSet
717 -197 m 5
 746 -166 768 -144 797 -96 c 4
 869 23 892 166 892 303 c 4
 892 668 729 784 717 803 c 5
 758 803 l 1
 826 742 950 603 950 304 c 0
 950 2 826 -136 758 -197 c 1
 717 -197 l 5
50 303 m 0
 50 603 173 742 241 803 c 1
 283 803 l 1
 254 772 231 750 202 701 c 0
 131 582 108 440 108 303 c 0
 108 -62 271 -178 283 -197 c 1
 241 -197 l 1
 177 -139 50 -1 50 303 c 0
276.700195312 585.799804688 m 5
 341.799804688 585.799804688 l 5
 448.900390625 310 l 6
 484.599609375 214.099609375 497.200195312 181.900390625 505.599609375 149 c 5
 509.799804688 178.400390625 552.5 282 560.200195312 306.5 c 6
 668.700195312 585.799804688 l 5
 723.299804688 585.799804688 l 5
 532.200195312 100 l 5
 467.799804688 100 l 5
 276.700195312 585.799804688 l 5
EndSplineSet
EndChar
StartChar: uF26FC
Encoding: 993020 993020 1880
Width: 1000
Flags: MW
LayerCount: 2
Fore
SplineSet
717 -197 m 5
 746 -166 768 -144 797 -96 c 4
 869 23 892 166 892 303 c 4
 892 668 729 784 717 803 c 5
 758 803 l 1
 826 742 950 603 950 304 c 0
 950 2 826 -136 758 -197 c 1
 717 -197 l 5
50 303 m 0
 50 603 173 742 241 803 c 1
 283 803 l 1
 254 772 231 750 202 701 c 0
 131 582 108 440 108 303 c 0
 108 -62 271 -178 283 -197 c 1
 241 -197 l 1
 177 -139 50 -1 50 303 c 0
574.200195312 100 m 1
 574.200195312 585.799804688 l 1
 637.200195312 585.799804688 l 1
 637.200195312 100 l 1
 574.200195312 100 l 1
751.299804688 100 m 1
 751.299804688 585.799804688 l 1
 814.299804688 585.799804688 l 1
 814.299804688 100 l 1
 751.299804688 100 l 1
185.700195312 585.799804688 m 1
 250.799804688 585.799804688 l 1
 282.299804688 464.700195312 328.5 247 353.700195312 149 c 1
 437.700195312 585.799804688 l 1
 492.299804688 585.799804688 l 1
 380.299804688 100 l 1
 315.900390625 100 l 1
 185.700195312 585.799804688 l 1
EndSplineSet
EndChar
StartChar: uF26FE
Encoding: 993022 993022 1882
Width: 1000
Flags: MW
LayerCount: 2
Fore
SplineSet
717 -197 m 5
 746 -166 768 -144 797 -96 c 4
 869 23 892 166 892 303 c 4
 892 668 729 784 717 803 c 5
 758 803 l 1
 826 742 950 603 950 304 c 0
 950 2 826 -136 758 -197 c 1
 717 -197 l 5
50 303 m 0
 50 603 173 742 241 803 c 1
 283 803 l 1
 254 772 231 750 202 701 c 0
 131 582 108 440 108 303 c 0
 108 -62 271 -178 283 -197 c 1
 241 -197 l 1
 177 -139 50 -1 50 303 c 0
207.400390625 100 m 5
 207.400390625 585.799804688 l 5
 270.400390625 585.799804688 l 5
 270.400390625 100 l 5
 207.400390625 100 l 5
346 100 m 5
 533.599609375 355.5 l 5
 533.599609375 356.200195312 l 5
 355.799804688 585.799804688 l 5
 429.299804688 585.799804688 l 5
 564.400390625 403.099609375 l 5
 696 585.799804688 l 5
 763.200195312 585.799804688 l 5
 594.5 356.200195312 l 5
 594.5 355.5 l 5
 792.599609375 100 l 5
 719.099609375 100 l 5
 565.099609375 313.5 l 5
 563.700195312 313.5 l 5
 413.200195312 100 l 5
 346 100 l 5
EndSplineSet
EndChar
StartChar: uF2700
Encoding: 993024 993024 1884
Width: 1000
Flags: MW
LayerCount: 2
Fore
SplineSet
717 -197 m 5
 746 -166 768 -144 797 -96 c 4
 869 23 892 166 892 303 c 4
 892 668 729 784 717 803 c 5
 758 803 l 1
 826 742 950 603 950 304 c 0
 950 2 826 -136 758 -197 c 1
 717 -197 l 5
50 303 m 0
 50 603 173 742 241 803 c 1
 283 803 l 1
 254 772 231 750 202 701 c 0
 131 582 108 440 108 303 c 0
 108 -62 271 -178 283 -197 c 1
 241 -197 l 1
 177 -139 50 -1 50 303 c 0
207.400390625 100 m 5
 395 355.5 l 5
 395 356.200195312 l 5
 217.200195312 585.799804688 l 5
 290 585.799804688 l 5
 425.799804688 403.099609375 l 5
 557.400390625 585.799804688 l 5
 624.599609375 585.799804688 l 5
 455.200195312 356.200195312 l 5
 455.200195312 355.5 l 5
 654 100 l 5
 579.799804688 100 l 5
 425.799804688 313.5 l 5
 424.400390625 313.5 l 5
 274.599609375 100 l 5
 207.400390625 100 l 5
729.599609375 100 m 5
 729.599609375 585.799804688 l 5
 792.599609375 585.799804688 l 5
 792.599609375 100 l 5
 729.599609375 100 l 5
EndSplineSet
EndChar
StartChar: uF2703
Encoding: 993027 993027 1887
Width: 1000
Flags: MW
LayerCount: 2
Fore
SplineSet
717 -197 m 5
 746 -166 768 -144 797 -96 c 4
 869 23 892 166 892 303 c 4
 892 668 729 784 717 803 c 5
 758 803 l 1
 826 742 950 603 950 304 c 0
 950 2 826 -136 758 -197 c 1
 717 -197 l 5
50 303 m 0
 50 603 173 742 241 803 c 1
 283 803 l 1
 254 772 231 750 202 701 c 0
 131 582 108 440 108 303 c 0
 108 -62 271 -178 283 -197 c 1
 241 -197 l 1
 177 -139 50 -1 50 303 c 0
162.599609375 100 m 1
 264.799804688 363.900390625 l 1
 264.799804688 364.599609375 l 1
 172.400390625 585.799804688 l 1
 241 585.799804688 l 1
 297.700195312 449.299804688 l 1
 349.5 585.799804688 l 1
 411.799804688 585.799804688 l 1
 329.200195312 372.299804688 l 1
 329.200195312 371.599609375 l 1
 441.200195312 100 l 1
 374.700195312 100 l 1
 297.700195312 286.900390625 l 1
 296.299804688 286.900390625 l 1
 223.5 100 l 1
 162.599609375 100 l 1
469.200195312 100 m 1
 469.200195312 585.799804688 l 1
 532.200195312 585.799804688 l 1
 532.200195312 100 l 1
 469.200195312 100 l 1
558.799804688 585.799804688 m 1
 623.200195312 585.799804688 l 1
 648.400390625 450.700195312 687.599609375 268.700195312 703 186.799804688 c 1
 782.799804688 585.799804688 l 1
 837.400390625 585.799804688 l 1
 729.599609375 100 l 1
 665.200195312 100 l 1
 558.799804688 585.799804688 l 1
EndSplineSet
EndChar
StartChar: uF2704
Encoding: 993028 993028 1888
Width: 1000
Flags: MW
LayerCount: 2
Fore
SplineSet
717 -197 m 5
 746 -166 768 -144 797 -96 c 4
 869 23 892 166 892 303 c 4
 892 668 729 784 717 803 c 5
 758 803 l 1
 826 742 950 603 950 304 c 0
 950 2 826 -136 758 -197 c 1
 717 -197 l 5
50 303 m 0
 50 603 173 742 241 803 c 1
 283 803 l 1
 254 772 231 750 202 701 c 0
 131 582 108 440 108 303 c 0
 108 -62 271 -178 283 -197 c 1
 241 -197 l 1
 177 -139 50 -1 50 303 c 0
183.599609375 100 m 1
 299.799804688 361.099609375 l 1
 299.799804688 361.799804688 l 1
 193.400390625 585.799804688 l 1
 259.900390625 585.799804688 l 1
 332 433.900390625 l 1
 399.200195312 585.799804688 l 1
 460.799804688 585.799804688 l 1
 362.799804688 368.799804688 l 1
 362.799804688 368.099609375 l 1
 490.200195312 100 l 1
 424.400390625 100 l 1
 331.299804688 295.299804688 l 1
 329.200195312 295.299804688 l 1
 242.400390625 100 l 1
 183.599609375 100 l 1
509.799804688 585.799804688 m 1
 575.599609375 585.799804688 l 1
 593.799804688 450.700195312 648.400390625 252.599609375 669.400390625 170.700195312 c 1
 761.799804688 585.799804688 l 1
 816.400390625 585.799804688 l 1
 696 100 l 1
 631.599609375 100 l 1
 509.799804688 585.799804688 l 1
EndSplineSet
EndChar
StartChar: uF270B
Encoding: 993035 993035 1895
Width: 1000
Flags: MW
LayerCount: 2
Fore
SplineSet
717 -197 m 5
 746 -166 768 -144 797 -96 c 4
 869 23 892 166 892 303 c 4
 892 668 729 784 717 803 c 5
 758 803 l 1
 826 742 950 603 950 304 c 0
 950 2 826 -136 758 -197 c 1
 717 -197 l 5
50 303 m 0
 50 603 173 742 241 803 c 1
 283 803 l 1
 254 772 231 750 202 701 c 0
 131 582 108 440 108 303 c 0
 108 -62 271 -178 283 -197 c 1
 241 -197 l 1
 177 -139 50 -1 50 303 c 0
202.5 411.5 m 1
 256.400390625 411.5 l 1
 321.5 240.700195312 l 2
 347.400390625 167.900390625 351.599609375 156.700195312 355.099609375 135 c 1
 361.400390625 181.200195312 444 384.200195312 453.099609375 411.5 c 1
 504.900390625 411.5 l 1
 384.5 100 l 1
 322.900390625 100 l 1
 202.5 411.5 l 1
567.200195312 513 m 1
 567.200195312 575.299804688 l 1
 630.200195312 575.299804688 l 1
 630.200195312 513 l 1
 567.200195312 513 l 1
572.099609375 100 m 1
 572.099609375 411.5 l 1
 624.599609375 411.5 l 1
 624.599609375 100 l 1
 572.099609375 100 l 1
734.5 513 m 1
 734.5 575.299804688 l 1
 797.5 575.299804688 l 1
 797.5 513 l 1
 734.5 513 l 1
739.400390625 100 m 1
 739.400390625 411.5 l 1
 791.900390625 411.5 l 1
 791.900390625 100 l 1
 739.400390625 100 l 1
EndSplineSet
EndChar
StartChar: uF270C
Encoding: 993036 993036 1896
Width: 1000
Flags: MW
LayerCount: 2
Fore
SplineSet
717 -197 m 5
 746 -166 768 -144 797 -96 c 4
 869 23 892 166 892 303 c 4
 892 668 729 784 717 803 c 5
 758 803 l 1
 826 742 950 603 950 304 c 0
 950 2 826 -136 758 -197 c 1
 717 -197 l 5
50 303 m 0
 50 603 173 742 241 803 c 1
 283 803 l 1
 254 772 231 750 202 701 c 0
 131 582 108 440 108 303 c 0
 108 -62 271 -178 283 -197 c 1
 241 -197 l 1
 177 -139 50 -1 50 303 c 0
181.5 411.5 m 1
 235.400390625 411.5 l 1
 289.299804688 240.700195312 l 2
 312.400390625 168.599609375 315.900390625 156.700195312 319.400390625 135 c 1
 325.700195312 181.200195312 398.5 384.200195312 404.799804688 411.5 c 1
 447.5 411.5 l 1
 348.799804688 100 l 1
 287.200195312 100 l 1
 181.5 411.5 l 1
491.599609375 513 m 1
 491.599609375 575.299804688 l 1
 551.099609375 575.299804688 l 1
 551.099609375 513 l 1
 491.599609375 513 l 1
494.400390625 100 m 1
 494.400390625 411.5 l 1
 547.599609375 411.5 l 1
 547.599609375 100 l 1
 494.400390625 100 l 1
623.900390625 513 m 1
 623.900390625 575.299804688 l 1
 684.099609375 575.299804688 l 1
 684.099609375 513 l 1
 623.900390625 513 l 1
627.400390625 100 m 1
 627.400390625 411.5 l 1
 679.900390625 411.5 l 1
 679.900390625 100 l 1
 627.400390625 100 l 1
756.900390625 513 m 1
 756.900390625 575.299804688 l 1
 818.5 575.299804688 l 1
 818.5 513 l 1
 756.900390625 513 l 1
760.400390625 100 m 1
 760.400390625 411.5 l 1
 812.900390625 411.5 l 1
 812.900390625 100 l 1
 760.400390625 100 l 1
EndSplineSet
EndChar
StartChar: uF2710
Encoding: 993040 993040 1900
Width: 1000
Flags: MW
LayerCount: 2
Fore
SplineSet
717 -197 m 5
 746 -166 768 -144 797 -96 c 4
 869 23 892 166 892 303 c 4
 892 668 729 784 717 803 c 5
 758 803 l 1
 826 742 950 603 950 304 c 0
 950 2 826 -136 758 -197 c 1
 717 -197 l 5
50 303 m 0
 50 603 173 742 241 803 c 1
 283 803 l 1
 254 772 231 750 202 701 c 0
 131 582 108 440 108 303 c 0
 108 -62 271 -178 283 -197 c 1
 241 -197 l 1
 177 -139 50 -1 50 303 c 0
197.599609375 100 m 1
 333.400390625 259.599609375 l 1
 333.400390625 261 l 1
 201.799804688 411.5 l 1
 259.900390625 411.5 l 1
 356.5 296 l 1
 357.200195312 296 l 1
 450.299804688 411.5 l 1
 508.400390625 411.5 l 1
 379.599609375 261 l 1
 379.599609375 260.299804688 l 1
 519.599609375 100 l 1
 461.5 100 l 1
 356.5 231.599609375 l 1
 255.700195312 100 l 1
 197.599609375 100 l 1
572.099609375 513 m 1
 572.099609375 575.299804688 l 1
 635.099609375 575.299804688 l 1
 635.099609375 513 l 1
 572.099609375 513 l 1
577 100 m 1
 577 411.5 l 1
 629.5 411.5 l 1
 629.5 100 l 1
 577 100 l 1
739.400390625 513 m 1
 739.400390625 575.299804688 l 1
 802.400390625 575.299804688 l 1
 802.400390625 513 l 1
 739.400390625 513 l 1
744.299804688 100 m 1
 744.299804688 411.5 l 1
 796.799804688 411.5 l 1
 796.799804688 100 l 1
 744.299804688 100 l 1
EndSplineSet
EndChar
StartChar: uF2712
Encoding: 993042 993042 1902
Width: 1000
Flags: MW
LayerCount: 2
Fore
SplineSet
717 -197 m 5
 746 -166 768 -144 797 -96 c 4
 869 23 892 166 892 303 c 4
 892 668 729 784 717 803 c 5
 758 803 l 1
 826 742 950 603 950 304 c 0
 950 2 826 -136 758 -197 c 1
 717 -197 l 5
50 303 m 0
 50 603 173 742 241 803 c 1
 283 803 l 1
 254 772 231 750 202 701 c 0
 131 582 108 440 108 303 c 0
 108 -62 271 -178 283 -197 c 1
 241 -197 l 1
 177 -139 50 -1 50 303 c 0
166.799804688 100 m 1
 266.200195312 259.599609375 l 1
 266.200195312 261 l 1
 171 411.5 l 1
 227.700195312 411.5 l 1
 294.900390625 306.5 l 1
 294.900390625 306.5 l 1
 360.700195312 411.5 l 1
 416 411.5 l 1
 324.299804688 261.700195312 l 1
 324.299804688 261 l 1
 427.200195312 100 l 1
 369.099609375 100 l 1
 295.599609375 215.5 l 1
 224.900390625 100 l 1
 166.799804688 100 l 1
463.599609375 513 m 1
 463.599609375 575.299804688 l 1
 523.799804688 575.299804688 l 1
 523.799804688 513 l 1
 463.599609375 513 l 1
467.099609375 100 m 1
 467.099609375 411.5 l 1
 519.599609375 411.5 l 1
 519.599609375 100 l 1
 467.099609375 100 l 1
567.200195312 411.5 m 1
 622.5 411.5 l 1
 678.5 240.700195312 l 2
 702.299804688 168.599609375 705.099609375 156.700195312 708.599609375 135 c 1
 714.900390625 181.200195312 772.299804688 384.200195312 781.400390625 411.5 c 1
 833.200195312 411.5 l 1
 738 100 l 1
 676.400390625 100 l 1
 567.200195312 411.5 l 1
EndSplineSet
EndChar
StartChar: uF2713
Encoding: 993043 993043 1903
Width: 1000
Flags: MW
LayerCount: 2
Fore
SplineSet
717 -197 m 5
 746 -166 768 -144 797 -96 c 4
 869 23 892 166 892 303 c 4
 892 668 729 784 717 803 c 5
 758 803 l 1
 826 742 950 603 950 304 c 0
 950 2 826 -136 758 -197 c 1
 717 -197 l 5
50 303 m 0
 50 603 173 742 241 803 c 1
 283 803 l 1
 254 772 231 750 202 701 c 0
 131 582 108 440 108 303 c 0
 108 -62 271 -178 283 -197 c 1
 241 -197 l 1
 177 -139 50 -1 50 303 c 0
182.200195312 100 m 1
 318 259.599609375 l 1
 318 261 l 1
 186.400390625 411.5 l 1
 245.200195312 411.5 l 1
 341.799804688 296 l 1
 341.799804688 296 l 1
 435.599609375 411.5 l 1
 493 411.5 l 1
 364.200195312 261 l 1
 364.200195312 260.299804688 l 1
 504.200195312 100 l 1
 446.799804688 100 l 1
 341.799804688 231.599609375 l 1
 241 100 l 1
 182.200195312 100 l 1
515.400390625 411.5 m 1
 568.599609375 411.5 l 1
 634.400390625 240.700195312 l 2
 660.299804688 167.900390625 664.5 156.700195312 668 135 c 1
 674.299804688 181.200195312 756.900390625 384.200195312 766 411.5 c 1
 817.799804688 411.5 l 1
 697.400390625 100 l 1
 635.799804688 100 l 1
 515.400390625 411.5 l 1
EndSplineSet
EndChar
StartChar: uF2714
Encoding: 993044 993044 1904
Width: 1000
Flags: MW
LayerCount: 2
Fore
SplineSet
717 -197 m 5
 746 -166 768 -144 797 -96 c 4
 869 23 892 166 892 303 c 4
 892 668 729 784 717 803 c 5
 758 803 l 1
 826 742 950 603 950 304 c 0
 950 2 826 -136 758 -197 c 1
 717 -197 l 5
50 303 m 0
 50 603 173 742 241 803 c 1
 283 803 l 1
 254 772 231 750 202 701 c 0
 131 582 108 440 108 303 c 0
 108 -62 271 -178 283 -197 c 1
 241 -197 l 1
 177 -139 50 -1 50 303 c 0
255.700195312 100 m 1
 464.299804688 585.799804688 l 1
 539.200195312 585.799804688 l 1
 744.299804688 100 l 1
 679.900390625 100 l 1
 615.5 242.799804688 l 1
 371.900390625 242.799804688 l 1
 308.200195312 100 l 1
 255.700195312 100 l 1
389.400390625 282 m 1
 598 282 l 1
 504.200195312 505.299804688 l 25
 493.700195312 536.799804688 l 17
 481.099609375 485.700195312 460.799804688 447.900390625 389.400390625 282 c 1
EndSplineSet
EndChar
StartChar: uF2718
Encoding: 993048 993048 1908
Width: 1000
Flags: MW
LayerCount: 2
Fore
SplineSet
717 -197 m 5
 746 -166 768 -144 797 -96 c 4
 869 23 892 166 892 303 c 4
 892 668 729 784 717 803 c 5
 758 803 l 1
 826 742 950 603 950 304 c 0
 950 2 826 -136 758 -197 c 1
 717 -197 l 5
50 303 m 0
 50 603 173 742 241 803 c 1
 283 803 l 1
 254 772 231 750 202 701 c 0
 131 582 108 440 108 303 c 0
 108 -62 271 -178 283 -197 c 1
 241 -197 l 1
 177 -139 50 -1 50 303 c 0
320.799804688 100 m 1
 320.799804688 583.700195312 l 1
 669.400390625 583.700195312 l 1
 669.400390625 537.5 l 1
 383.799804688 538.900390625 l 1
 383.799804688 373 l 1
 650.5 373 l 1
 650.5 330.299804688 l 1
 383.799804688 330.299804688 l 1
 383.799804688 149 l 1
 679.200195312 150.400390625 l 1
 679.200195312 100 l 1
 320.799804688 100 l 1
EndSplineSet
EndChar
StartChar: uF2720
Encoding: 993056 993056 1916
Width: 1000
Flags: MW
LayerCount: 2
Fore
SplineSet
717 -197 m 5
 746 -166 768 -144 797 -96 c 4
 869 23 892 166 892 303 c 4
 892 668 729 784 717 803 c 5
 758 803 l 1
 826 742 950 603 950 304 c 0
 950 2 826 -136 758 -197 c 1
 717 -197 l 5
50 303 m 0
 50 603 173 742 241 803 c 1
 283 803 l 1
 254 772 231 750 202 701 c 0
 131 582 108 440 108 303 c 0
 108 -62 271 -178 283 -197 c 1
 241 -197 l 1
 177 -139 50 -1 50 303 c 0
227.700195312 100 m 1
 227.700195312 585.799804688 l 1
 312.400390625 585.799804688 l 1
 441.900390625 305.099609375 l 2
 476.200195312 226.700195312 495.799804688 181.200195312 499.299804688 164.400390625 c 1
 500.700195312 164.400390625 l 1
 504.900390625 188.200195312 551.799804688 287.599609375 557.400390625 304.400390625 c 2
 686.900390625 585.799804688 l 1
 772.299804688 585.799804688 l 1
 772.299804688 100 l 1
 717.700195312 100 l 1
 717.700195312 514.400390625 l 2
 717.700195312 528.400390625 717 536.799804688 717 536.799804688 c 1
 717 536.799804688 714.200195312 524.200195312 708.599609375 510.900390625 c 2
 658.200195312 396.099609375 l 25
 528.700195312 115.400390625 l 1
 468.5 115.400390625 l 1
 342.5 387.700195312 l 2
 310.299804688 461.900390625 290 506 282.299804688 536.799804688 c 1
 282.299804688 100 l 1
 227.700195312 100 l 1
EndSplineSet
EndChar
